<?xml version="1.0" encoding="utf-8"?>
<!-- Generator: Adobe Illustrator 24.0.1, SVG Export Plug-In . SVG Version: 6.00 Build 0)  -->
<svg version="1.1" id="logoHorizontal" xmlns="http://www.w3.org/2000/svg" xmlns:xlink="http://www.w3.org/1999/xlink" x="0px"
	 y="0px" viewBox="0 0 2000 600" style="enable-background:new 0 0 2000 600;" xml:space="preserve">
<style type="text/css">
	.st0{fill:#2496ED;}
</style>
<path class="st0" d="M940.7,192.8c-10.5-0.3-19.3,7.9-19.6,18.3c0,0.4,0,0.8,0,1.3v94.2c-45.5-36.5-111.9-29.3-148.4,16.2
	c-15.1,18.8-23.3,42.1-23.3,66.2c-1,58.3,45.5,106.4,103.7,107.4c58.3,1,106.4-45.5,107.4-103.7c0-1.2,0-2.4,0-3.6V212.5
	c0.2-5.3-1.9-10.4-5.8-14.1C951,194.8,945.9,192.8,940.7,192.8 M915.9,414.4c-6.7,15.9-19.3,28.5-35.1,35.4c-16.6,7-35.3,7-51.8,0
	c-15.8-6.8-28.3-19.4-35-35.3c-6.9-16.4-6.9-34.9,0-51.3c6.7-15.8,19.2-28.4,35-35.1c16.6-7,35.3-7,51.8,0
	c15.8,6.8,28.4,19.5,35.1,35.4c6.9,16.3,6.9,34.8,0,51.1"/>
<path class="st0" d="M1161.1,314.3c-41.2-41.2-108.1-41.2-149.3,0.1c-19.8,19.8-30.9,46.6-30.9,74.6c-1,58.3,45.5,106.4,103.7,107.4
	c58.3,1,106.4-45.5,107.4-103.7c0-1.2,0-2.4,0-3.6c0-13.9-2.6-27.6-7.8-40.5C1178.8,335.6,1171,324,1161.1,314.3 M1147.4,414.3
	c-3.4,7.8-8.2,15-14.2,21c-6,6.1-13.2,10.9-21,14.3c-16.6,7-35.3,7-51.8,0c-15.8-6.8-28.3-19.4-35-35.3c-6.9-16.4-6.9-34.9,0-51.3
	c6.7-15.8,19.2-28.3,35-35c16.6-7,35.3-7,51.8,0c7.8,3.4,15,8.3,21,14.3c6,6.1,10.8,13.2,14.2,21c6.9,16.3,6.9,34.7,0,51.1"/>
<path class="st0" d="M1597.5,303c0-2.6-0.5-5.2-1.6-7.5c-1.1-2.3-2.5-4.4-4.3-6.2c-1.7-1.8-3.8-3.3-6.2-4.2c-2.4-1-5.1-1.5-7.7-1.5
	c-3.7,0-7.4,1-10.6,3.1l-112.7,73.3V212.7c0.1-5.3-2-10.3-5.8-14c-3.6-3.8-8.7-5.9-13.9-5.8c-10.9-0.1-19.7,8.7-19.8,19.5
	c0,0.1,0,0.2,0,0.2v262c-0.1,5.2,2,10.3,5.8,13.9c3.7,3.8,8.7,5.9,14,5.8c5.2,0.1,10.3-2,13.9-5.8c3.7-3.7,5.8-8.7,5.8-13.9v-67.9
	l23-15.1l87.1,97.8c3.5,3.4,8.3,5.2,13.2,5.1c2.7,0,5.3-0.5,7.7-1.5c2.3-1,4.4-2.4,6.2-4.2c1.8-1.8,3.2-4,4.3-6.3
	c1-2.4,1.6-4.9,1.6-7.5c0-5.1-1.9-10-5.4-13.8l-81-91.2l78.9-51.3C1595,315.1,1597.9,309.2,1597.5,303"/>
<path class="st0" d="M1270.5,342.1c6.1-6,13.3-10.8,21.1-14.2c8.2-3.5,16.9-5.2,25.8-5.2c7.9-0.1,15.6,1.3,23,4.1
	c7.4,3,14.2,7.1,20.2,12.3c3.6,2.9,8.2,4.4,12.8,4.4c5.3,0.2,10.5-1.8,14.2-5.5c3.7-3.8,5.7-8.9,5.6-14.2c0.1-5.7-2.4-11.2-6.8-14.9
	c-18.9-16.9-43.5-26.1-68.8-25.6c-58.3,0-105.6,47.3-105.6,105.6c-0.1,58.2,46.9,105.5,105.1,105.7c25.4,0.1,50-9.1,69.2-25.7
	c4-3.8,6.2-9,6.2-14.5c0.3-10.5-7.9-19.3-18.3-19.6c-0.4,0-0.8,0-1.3,0c-4.5,0-8.8,1.5-12.5,4.1c-5.9,5.2-12.7,9.3-20,12.2
	c-7.3,2.8-15.1,4.1-23,4.1c-8.9,0.1-17.7-1.7-25.8-5.2c-7.9-3.3-15-8.1-21.1-14.2c-25.9-25.7-26-67.5-0.3-93.4
	C1270.4,342.4,1270.5,342.3,1270.5,342.1"/>
<path class="st0" d="M1989,296.6c-3.8-3.6-8.3-6.3-13.3-8c-5.7-2-11.5-3.4-17.5-4.1c-5.9-0.7-11.9-1.1-17.8-1.1
	c-12.1,0-24.1,2-35.4,6.2c-11.1,4.1-21.5,9.9-30.8,17.4V303c-0.4-10.9-9.6-19.4-20.5-18.9c-10.3,0.4-18.5,8.6-18.9,18.9v171.9
	c0.4,10.9,9.6,19.4,20.5,18.9c10.3-0.4,18.5-8.6,18.9-18.9v-85.9c-0.1-8.9,1.7-17.7,5.2-25.8c3.3-7.8,8.1-15,14.1-21
	c6-6,13.2-10.8,21-14.2c8.2-3.5,17-5.2,25.8-5.2c8.8-0.1,17.6,1.5,25.8,4.7c2.6,1.3,5.4,2,8.3,2.1c2.6,0,5.3-0.5,7.7-1.5
	c2.3-1,4.4-2.4,6.2-4.2c1.8-1.8,3.2-3.9,4.2-6.2c1.1-2.4,1.6-5.1,1.6-7.7c0.2-5-1.7-9.8-5.3-13.2"/>
<path class="st0" d="M1805.8,348.6c-16.8-39.2-55.2-64.7-97.8-64.9c-58.3,0-105.5,47.2-105.6,105.5c0,0,0,0,0,0
	c0,58.3,47.3,105.6,105.6,105.6c25.3,0,49.8-9.1,69-25.6c0.3-0.3,0.7-0.6,0.8-0.7c1.7-1.4,3.2-3,4.5-4.9c6.3-9.1,4.1-21.7-5-28
	c-7.6-5-17.7-4.1-24.3,2.2c-0.6,0.6-2.5,2.3-2.8,2.6l-0.3,0.2c-5.6,4.8-12,8.5-19,11.1c-7.3,2.6-15,3.9-22.8,3.8
	c-7.2,0-14.3-1.1-21-3.4c-6.6-2.2-12.8-5.4-18.5-9.5c-5.6-4.1-10.5-9.1-14.6-14.7c-4.2-5.8-7.3-12.2-9.4-19h149.3
	c5.2,0.1,10.3-1.9,14-5.6c3.8-3.6,5.9-8.7,5.8-14C1813.6,375.3,1811,361.5,1805.8,348.6 M1644.5,369.6c2-6.8,5.1-13.2,9.2-19
	c4.1-5.6,9.1-10.6,14.7-14.7c5.7-4.1,12-7.3,18.7-9.5c6.7-2.2,13.8-3.4,20.9-3.4c7.1,0,14.1,1.1,20.8,3.4
	c13.3,4.4,24.9,12.9,33.2,24.2c4.2,5.7,7.4,12.1,9.5,19H1644.5z"/>
<path class="st0" d="M1921.7,465.9c-7.5,0.1-13.6,6.3-13.4,13.9s6.3,13.6,13.9,13.4c7.5-0.1,13.5-6.3,13.4-13.8
	C1935.5,471.9,1929.2,465.9,1921.7,465.9C1921.7,465.9,1921.7,465.9,1921.7,465.9 M1921.7,490.3c-6,0.3-11-4.4-11.3-10.3
	c-0.3-6,4.4-11,10.3-11.3c6-0.3,11,4.4,11.3,10.3c0,0.2,0,0.4,0,0.6c0.2,5.7-4.3,10.5-10,10.7
	C1921.9,490.3,1921.8,490.3,1921.7,490.3"/>
<path class="st0" d="M1924.8,479.9v-0.2c1.5-0.3,2.7-1.5,2.8-3.1c0.1-1.2-0.4-2.3-1.3-3.1c-1.4-0.8-3.1-1.1-4.7-1
	c-1.7,0-3.5,0.1-5.2,0.4v13.5h3.1v-5.4h1.5c1.8,0,2.6,0.6,2.8,2.2c0.2,1.1,0.5,2.3,1,3.3h3.4c-0.5-1.1-0.9-2.2-1-3.4
	C1927.1,481.7,1926.1,480.5,1924.8,479.9 M1921,478.9h-1.5V475c0.6-0.1,1.2-0.1,1.8,0c2,0,2.9,0.8,2.9,2.1s-1.4,2-3.1,2"/>
<path class="st0" d="M713.2,237.2c-1.9-1.5-20-15.2-58.2-15.2c-10.1,0-20.1,0.9-30.1,2.6c-7.4-50.6-49.2-75.3-51.1-76.4l-10.2-5.9
	l-6.7,9.7c-8.4,13.1-14.6,27.5-18.2,42.6c-6.8,28.9-2.7,56,12,79.2c-17.7,9.9-46.2,12.3-51.9,12.5H28.1c-12.3,0-22.3,10-22.3,22.2
	c-0.5,41.2,6.4,82.2,20.6,120.9c16.2,42.5,40.3,73.8,71.7,93c35.2,21.5,92.3,33.8,157.1,33.8c29.3,0.1,58.5-2.6,87.2-7.9
	c40-7.3,78.5-21.3,113.8-41.4c29.1-16.9,55.4-38.4,77.7-63.6c37.3-42.2,59.5-89.2,76-131c2.2,0,4.4,0,6.6,0
	c40.8,0,65.9-16.3,79.8-30c9.2-8.7,16.4-19.4,21-31.2l2.9-8.6L713.2,237.2z"/>
<path class="st0" d="M71.7,272.5h63.1c3,0,5.5-2.5,5.5-5.5l0,0v-56.2c0-3-2.4-5.5-5.5-5.5c0,0,0,0,0,0H71.7c-3,0-5.5,2.5-5.5,5.5
	c0,0,0,0,0,0V267C66.2,270,68.7,272.5,71.7,272.5L71.7,272.5"/>
<path class="st0" d="M158.6,272.5h63.1c3,0,5.5-2.5,5.5-5.5l0,0v-56.2c0-3-2.4-5.5-5.5-5.5c0,0,0,0,0,0h-63.1
	c-3.1,0-5.5,2.5-5.5,5.5V267C153.1,270,155.6,272.5,158.6,272.5"/>
<path class="st0" d="M246.9,272.5H310c3,0,5.5-2.5,5.5-5.5l0,0v-56.2c0-3-2.4-5.5-5.5-5.5c0,0,0,0,0,0h-63.1c-3,0-5.5,2.5-5.5,5.5
	c0,0,0,0,0,0V267C241.4,270,243.8,272.5,246.9,272.5L246.9,272.5"/>
<path class="st0" d="M334.1,272.5h63.1c3,0,5.5-2.5,5.5-5.5v-56.2c0-3.1-2.5-5.5-5.5-5.5l0,0h-63.1c-3,0-5.5,2.5-5.5,5.5
	c0,0,0,0,0,0V267C328.6,270,331,272.5,334.1,272.5L334.1,272.5"/>
<path class="st0" d="M158.6,191.7h63.1c3,0,5.5-2.5,5.5-5.5V130c0-3-2.5-5.5-5.5-5.5l0,0h-63.1c-3,0-5.5,2.5-5.5,5.5v56.2
	C153.1,189.2,155.6,191.7,158.6,191.7"/>
<path class="st0" d="M246.9,191.7H310c3,0,5.5-2.5,5.5-5.5V130c0-3-2.5-5.5-5.5-5.5l0,0h-63.1c-3,0-5.5,2.5-5.5,5.5l0,0v56.2
	C241.4,189.2,243.8,191.7,246.9,191.7"/>
<path class="st0" d="M334.1,191.7h63.1c3.1,0,5.5-2.5,5.5-5.5V130c0-3-2.5-5.5-5.5-5.5h-63.1c-3,0-5.5,2.5-5.5,5.5l0,0v56.2
	C328.6,189.2,331,191.7,334.1,191.7"/>
<path class="st0" d="M334.1,110.8h63.1c3,0,5.5-2.5,5.5-5.5V49.1c0-3-2.5-5.5-5.5-5.5h-63.1c-3,0-5.5,2.5-5.5,5.5l0,0v56.2
	C328.6,108.4,331,110.8,334.1,110.8"/>
<path class="st0" d="M422,272.5h63.1c3,0,5.5-2.5,5.5-5.5v-56.2c0-3.1-2.5-5.5-5.5-5.5l0,0H422c-3,0-5.5,2.5-5.5,5.5c0,0,0,0,0,0
	V267C416.5,270,419,272.5,422,272.5"/>
</svg>
