<?xml version="1.0" encoding="utf-8"?>
<!-- Generator: Adobe Illustrator 24.0.1, SVG Export Plug-In . SVG Version: 6.00 Build 0)  -->
<svg version="1.1" id="Layer_1" xmlns="http://www.w3.org/2000/svg" xmlns:xlink="http://www.w3.org/1999/xlink" x="0px" y="0px"
	 viewBox="0 0 500.5 198.3" style="enable-background:new 0 0 500.5 198.3;" xml:space="preserve">
<style type="text/css">
	.st0{fill:#FFFFFF;}
	.st1{fill:#009639;}
</style>
<title>NGINX Logo White Endorsement RGB</title>
<polygon class="st0" points="477.7,65.1 464.7,65.1 450.3,87.8 436.3,65.1 422.8,65.1 442.9,98 422.6,132 435.4,132 449.7,109 
	463.7,132 477.2,132 456.9,98.8 "/>
<polygon class="st0" points="405.9,65.1 405.9,110.6 379.6,65.1 368.8,65.1 368.8,132 379.6,132 379.6,86.7 405.9,132 416.9,132 
	416.9,65.1 "/>
<rect x="348.2" y="65.1" class="st0" width="11.6" height="66.9"/>
<path class="st0" d="M339.2,88.9v-3.8c0-13-9.5-21.4-26.3-21.4c-16.6,0-26.2,8.4-26.2,21.4V112c0,13,9.6,21.4,26.3,21.4
	s26.2-8.4,26.2-21.4V96.3h-26.7V107h15v4.3c0,7-5.3,11.3-14.7,11.3c-9.3,0-14.6-4.3-14.6-11.3V85.8c0-7,5.3-11.3,14.7-11.3
	c9.3,0,14.6,4.3,14.6,11.3v3.1L339.2,88.9z"/>
<polygon class="st0" points="266.8,65.1 266.8,110.6 240.5,65.1 229.6,65.1 229.6,132 240.5,132 240.5,86.7 266.8,132 277.7,132 
	277.7,65.1 "/>
<path class="st1" d="M1.4,148.7c0.9,1.6,2.2,2.8,3.8,3.7l77,44.4l0,0c3.2,1.9,7.1,1.9,10.2,0l77-44.4c3.2-1.8,5.1-5.2,5.1-8.9V54.7
	l0,0c0-3.7-1.9-7.1-5.1-8.9l-77-44.4v0c-3.2-1.9-7.1-1.9-10.2,0v0l-77,44.4C1.9,47.6,0,51,0,54.7l0,0v88.9
	C0,145.4,0.4,147.1,1.4,148.7"/>
<path class="st0" d="M62.6,133c0,5.5-4.4,9.9-9.9,9.9s-9.9-4.4-9.9-9.9l0,0l0-67.9c0-5.3,4.7-9.6,11.2-9.6c4.7,0,10.2,1.9,13.5,6
	l3,3.6l41.4,49.5V65.3h0c0-5.5,4.4-9.9,9.9-9.9c5.5,0,9.9,4.4,9.9,9.9h0l0,67.9c0,5.3-4.7,9.6-11.2,9.6c-4.7,0-10.2-1.9-13.5-6
	L62.6,83.8L62.6,133L62.6,133z"/>
</svg>
