<svg xmlns="http://www.w3.org/2000/svg" xmlns:xlink="http://www.w3.org/1999/xlink" version="1.1" x="0px" y="0px" viewBox="0 0 100 100" enable-background="new 0 0 100 100" xml:space="preserve"><g><g><path d="M59.947,16.961L58.618,20.2c-0.24,0.586,0.037,1.242,0.612,1.507c8.843,4.08,14.742,12.823,15.214,22.55    c0.031,0.632,0.535,1.135,1.168,1.132l3.501-0.019c0.655-0.004,1.195-0.548,1.167-1.203c-0.511-12.031-7.817-22.86-18.782-27.838    C60.902,16.058,60.196,16.355,59.947,16.961z"/><path d="M64.374,6.168l-1.327,3.236c-0.241,0.587,0.038,1.247,0.618,1.506c13.176,5.869,21.943,18.864,22.452,33.279    c0.022,0.634,0.53,1.14,1.165,1.136l3.498-0.019c0.654-0.004,1.19-0.545,1.169-1.199c-0.542-16.724-10.72-31.809-26.025-38.574    C65.326,5.269,64.622,5.563,64.374,6.168z"/></g><path fill="#000000" d="M75.91,68.591l-6.16-6.325V50.544c0-11.689-6.915-21.734-17.28-25.795c-1.04-4.68-5.158-8.185-10.064-8.185   c-4.906,0-9.023,3.505-10.064,8.185c-10.365,4.061-17.28,14.105-17.28,25.795v11.723l-6.16,6.325   c-0.546,0.56-0.851,1.311-0.851,2.093v8.93c0,1.604,1.301,2.905,2.905,2.905h19.381c0.015,6.419,5.648,12.044,12.069,12.044   c6.421,0,12.054-5.625,12.069-12.044h19.381c1.604,0,2.905-1.301,2.905-2.905v-8.93C76.761,69.902,76.456,69.151,75.91,68.591z    M42.406,88.754c-3.433,0-6.242-3.236-6.258-6.234h12.517C48.649,85.517,45.84,88.754,42.406,88.754z M70.951,76.709H13.862v-4.883   l7.011-7.198c0-6.887,0-12.833,0-14.085c0-10.591,7.011-19.293,17.026-21.412c0-1.081,0-1.853,0-2.062   c0-2.504,2.003-4.695,4.507-4.695c2.504,0,4.507,2.191,4.507,4.695c0,0.209,0,0.981,0,2.062   C56.929,31.251,63.94,39.953,63.94,50.544c0,1.565,0,7.198,0,14.085l7.011,7.198V76.709z"/></g></svg>