<svg xmlns="http://www.w3.org/2000/svg" xmlns:xlink="http://www.w3.org/1999/xlink" version="1.1" x="0px" y="0px" viewBox="0 0 100 125" style="enable-background:new 0 0 100 100;" xml:space="preserve"><path d="M80,10H20c-1.1,0-2,0.9-2,2v76c0,1.1,0.9,2,2,2h60c1.1,0,2-0.9,2-2V12C82,10.9,81.1,10,80,10z M78,86H22V14h56V86z M29,38  h16c0.6,0,1-0.4,1-1V21c0-0.6-0.4-1-1-1H29c-0.6,0-1,0.4-1,1v16C28,37.6,28.4,38,29,38z M30,22h14v14H30V22z M54,21c0-0.6,0.4-1,1-1  h16c0.6,0,1,0.4,1,1s-0.4,1-1,1H55C54.4,22,54,21.6,54,21z M50,25c0-0.6,0.4-1,1-1h20c0.6,0,1,0.4,1,1s-0.4,1-1,1H51  C50.4,26,50,25.6,50,25z M50,29c0-0.6,0.4-1,1-1h20c0.6,0,1,0.4,1,1s-0.4,1-1,1H51C50.4,30,50,29.6,50,29z M50,33c0-0.6,0.4-1,1-1  h20c0.6,0,1,0.4,1,1s-0.4,1-1,1H51C50.4,34,50,33.6,50,33z M50,37c0-0.6,0.4-1,1-1h20c0.6,0,1,0.4,1,1s-0.4,1-1,1H51  C50.4,38,50,37.6,50,37z M71,62H55c-0.6,0-1,0.4-1,1v16c0,0.6,0.4,1,1,1h16c0.6,0,1-0.4,1-1V63C72,62.4,71.6,62,71,62z M70,78H56V64  h14V78z M49,62c0.6,0,1,0.4,1,1s-0.4,1-1,1H33c-0.6,0-1-0.4-1-1s0.4-1,1-1H49z M28,67c0-0.6,0.4-1,1-1h20c0.6,0,1,0.4,1,1  s-0.4,1-1,1H29C28.4,68,28,67.6,28,67z M28,71c0-0.6,0.4-1,1-1h20c0.6,0,1,0.4,1,1s-0.4,1-1,1H29C28.4,72,28,71.6,28,71z M28,75  c0-0.6,0.4-1,1-1h20c0.6,0,1,0.4,1,1s-0.4,1-1,1H29C28.4,76,28,75.6,28,75z M28,79c0-0.6,0.4-1,1-1h20c0.6,0,1,0.4,1,1s-0.4,1-1,1  H29C28.4,80,28,79.6,28,79z M72,46c0,0.6-0.4,1-1,1H33c-0.6,0-1-0.4-1-1s0.4-1,1-1h38C71.6,45,72,45.4,72,46z M28,50  c0-0.6,0.4-1,1-1h42c0.6,0,1,0.4,1,1s-0.4,1-1,1H29C28.4,51,28,50.6,28,50z M28,54c0-0.6,0.4-1,1-1h42c0.6,0,1,0.4,1,1s-0.4,1-1,1  H29C28.4,55,28,54.6,28,54z"/><text x="0" y="115" fill="#000000" font-size="5px" font-weight="bold" font-family="'Helvetica Neue', Helvetica, Arial-Unicode, Arial, Sans-serif">Created by Setyo Ari Wibowo</text><text x="0" y="120" fill="#000000" font-size="5px" font-weight="bold" font-family="'Helvetica Neue', Helvetica, Arial-Unicode, Arial, Sans-serif">from the Noun Project</text></svg>