<svg xmlns="http://www.w3.org/2000/svg" xmlns:xlink="http://www.w3.org/1999/xlink" version="1.1" x="0px" y="0px" viewBox="0 0 512 512" enable-background="new 0 0 512 512" xml:space="preserve"><path d="M256,2C115.9,2,2,115.9,2,256s113.9,254,254,254s254-113.9,254-254S396.1,2,256,2z M256,52.8c46.9,0,90,16.1,124.4,42.9  L95.7,380.4C68.9,346,52.8,302.9,52.8,256C52.8,144,144,52.8,256,52.8z M256,459.2c-46.9,0-90-16.1-124.4-42.9l284.7-284.7  c26.8,34.4,42.9,77.5,42.9,124.4C459.2,368,368,459.2,256,459.2z"/></svg>