<svg xmlns="http://www.w3.org/2000/svg" xmlns:xlink="http://www.w3.org/1999/xlink" version="1.1" x="0px" y="0px" viewBox="0 0 100 125" enable-background="new 0 0 100 100" xml:space="preserve"><circle cx="32.076" cy="14.759" r="3.002"/><circle cx="23.386" cy="19.88" r="1.877"/><circle cx="31.231" cy="29.766" r="2.157"/><circle cx="52.152" cy="32.232" r="2.515"/><circle cx="60.809" cy="49.323" r="2.08"/><circle cx="54.304" cy="51.572" r="2.152"/><circle cx="57.351" cy="36.58" r="1.62"/><circle cx="75.075" cy="33.857" r="1.934"/><circle cx="76.84" cy="25.553" r="2.055"/><circle cx="81.677" cy="18.057" r="1.62"/><circle cx="74.664" cy="13.85" r="1.523"/><circle cx="70.07" cy="15.833" r="1.378"/><circle cx="65.427" cy="22.7" r="1.523"/><circle cx="71.617" cy="40.013" r="2.104"/><circle cx="86.827" cy="33.016" r="2.515"/><circle cx="92.751" cy="38.2" r="2.249"/><circle cx="85.086" cy="46.083" r="2.273"/><circle cx="73.346" cy="45.539" r="1.729"/><circle cx="61.558" cy="59.019" r="1.33"/><circle cx="47.147" cy="65.983" r="1.814"/><circle cx="39.989" cy="60.615" r="1.233"/><circle cx="42.722" cy="52.805" r="2.176"/><circle cx="44.487" cy="39.675" r="2.007"/><circle cx="32.735" cy="40.207" r="1.668"/><circle cx="29.432" cy="46.963" r="1.799"/><circle cx="21.317" cy="45.58" r="1.383"/><circle cx="6.741" cy="51.814" r="1.741"/><circle cx="18.265" cy="56.118" r="2.104"/><circle cx="14.007" cy="39.058" r="1.149"/><circle cx="7.672" cy="42.033" r="1.826"/><circle cx="14.237" cy="27.899" r="1.112"/><circle cx="21.66" cy="38.306" r="1.726"/><circle cx="38.998" cy="28.624" r="1.838"/><circle cx="46.373" cy="20.234" r="1.523"/><circle cx="58.911" cy="17.175" r="1.56"/><circle cx="50.387" cy="11.287" r="1.765"/><circle cx="64.121" cy="30.728" r="1.717"/><circle cx="71.666" cy="29.181" r="1.282"/><circle cx="50.218" cy="44.874" r="1.644"/><circle cx="38.176" cy="48.269" r="1.306"/><circle cx="31.084" cy="52.667" r="1.652"/><circle cx="27.928" cy="68.721" r="1.504"/><circle cx="49.009" cy="75.148" r="1.209"/><circle cx="43.979" cy="87.915" r="0.967"/><circle cx="40.328" cy="89.584" r="1.185"/><circle cx="39.602" cy="82.644" r="0.725"/><circle cx="42.117" cy="75.027" r="1.088"/><circle cx="41.585" cy="69.615" r="0.895"/><circle cx="49.855" cy="70.848" r="1.233"/><circle cx="51.33" cy="59.43" r="0.822"/><circle cx="67.56" cy="50.851" r="1.277"/><circle cx="66.484" cy="41.283" r="1.076"/><circle cx="57.363" cy="21.092" r="1.608"/><circle cx="60.035" cy="10.296" r="1.064"/><circle cx="11.71" cy="33.884" r="1.149"/><circle cx="11.045" cy="56.722" r="1.548"/><circle cx="23.987" cy="48.143" r="1.18"/><circle cx="34.464" cy="33.884" r="1.149"/><circle cx="35.044" cy="21.672" r="1.439"/><circle cx="21.317" cy="30.394" r="1.383"/><circle cx="53.105" cy="63.41" r="1.562"/><circle cx="75.721" cy="50.694" r="1.12"/><circle cx="81.785" cy="51.1" r="1.028"/><circle cx="86.222" cy="23.837" r="1.136"/><circle cx="40.352" cy="10.586" r="1.354"/><circle cx="38.756" cy="67.217" r="0.752"/><path d="M40.327,89.759c0.005,0,0.012,0,0.018-0.001c0.098-0.01,0.168-0.097,0.157-0.194l-0.726-6.94  c-0.011-0.095-0.102-0.166-0.192-0.157c-0.098,0.01-0.168,0.097-0.157,0.194l0.726,6.94C40.162,89.692,40.238,89.759,40.327,89.759z  "/><path d="M43.978,88.091c0.04,0,0.08-0.013,0.113-0.041c0.074-0.062,0.085-0.173,0.022-0.248l-4.377-5.272  c-0.062-0.075-0.172-0.086-0.247-0.023c-0.074,0.062-0.085,0.173-0.022,0.248l4.377,5.272C43.878,88.07,43.928,88.091,43.978,88.091  z"/><path d="M43.978,88.091c0.07,0,0.136-0.042,0.164-0.111l5.031-12.768c0.036-0.091-0.008-0.192-0.099-0.228  c-0.087-0.036-0.192,0.008-0.228,0.099l-5.031,12.768c-0.036,0.091,0.008,0.192,0.099,0.228  C43.934,88.087,43.956,88.091,43.978,88.091z"/><path d="M49.009,75.324c0.096,0,0.175-0.077,0.176-0.173c0.001-0.097-0.076-0.177-0.173-0.179l-6.891-0.121  c-0.111,0.005-0.177,0.076-0.179,0.173c-0.001,0.097,0.076,0.177,0.173,0.179l6.891,0.121  C49.008,75.324,49.008,75.324,49.009,75.324z"/><path d="M39.602,82.819c0.074,0,0.143-0.047,0.168-0.121l2.516-7.617c0.03-0.092-0.021-0.192-0.113-0.222  c-0.092-0.032-0.192,0.02-0.223,0.112l-2.516,7.617c-0.03,0.092,0.021,0.192,0.113,0.222C39.565,82.817,39.584,82.819,39.602,82.819  z"/><path d="M39.602,82.819c0.038,0,0.077-0.012,0.11-0.038l9.407-7.496c0.076-0.06,0.088-0.171,0.027-0.247  c-0.06-0.076-0.17-0.089-0.247-0.027l-9.407,7.496c-0.076,0.06-0.088,0.171-0.027,0.247C39.499,82.797,39.55,82.819,39.602,82.819z"/><path d="M40.327,89.759c0.059,0,0.118-0.03,0.151-0.085l8.682-14.436c0.049-0.083,0.023-0.192-0.06-0.241  c-0.084-0.049-0.192-0.024-0.242,0.06l-8.682,14.436c-0.049,0.083-0.023,0.192,0.06,0.241  C40.266,89.751,40.296,89.759,40.327,89.759z"/><path d="M40.327,89.759c0.025,0,0.049-0.005,0.073-0.016l3.651-1.668c0.088-0.041,0.128-0.145,0.087-0.233  c-0.04-0.088-0.148-0.127-0.232-0.087l-3.651,1.668c-0.088,0.041-0.128,0.145-0.087,0.233  C40.197,89.721,40.261,89.759,40.327,89.759z"/><path d="M43.978,88.091c0.087,0,0.161-0.063,0.175-0.15l3.169-21.932c0.014-0.096-0.054-0.186-0.15-0.199  c-0.095-0.016-0.184,0.052-0.199,0.148L43.804,87.89c-0.014,0.096,0.054,0.186,0.15,0.199C43.962,88.09,43.97,88.091,43.978,88.091z  "/><path d="M41.585,69.791c0.033,0,0.066-0.009,0.096-0.029l5.562-3.632c0.081-0.053,0.104-0.162,0.051-0.243  c-0.051-0.08-0.159-0.105-0.243-0.051l-5.562,3.632c-0.081,0.053-0.104,0.162-0.051,0.243  C41.471,69.763,41.527,69.791,41.585,69.791z"/><path d="M42.118,75.203c0.005,0,0.011,0,0.018-0.001c0.096-0.01,0.166-0.096,0.157-0.192l-0.533-5.411  c-0.008-0.091-0.085-0.159-0.175-0.159c-0.005,0-0.011,0-0.018,0.001c-0.096,0.01-0.166,0.096-0.157,0.192l0.533,5.411  C41.952,75.135,42.029,75.203,42.118,75.203z"/><path d="M43.978,88.091c0.008,0,0.016-0.001,0.025-0.002c0.096-0.014,0.164-0.103,0.15-0.199l-1.861-12.889  c-0.015-0.096-0.099-0.169-0.199-0.148c-0.096,0.014-0.164,0.103-0.15,0.199l1.861,12.889  C43.818,88.028,43.892,88.091,43.978,88.091z"/><path d="M40.327,89.759c0.088,0,0.164-0.065,0.175-0.155l1.79-14.557c0.012-0.096-0.056-0.184-0.153-0.196  c-0.109-0.008-0.184,0.057-0.196,0.153l-1.79,14.557c-0.012,0.096,0.056,0.184,0.153,0.196  C40.314,89.759,40.32,89.759,40.327,89.759z"/><path d="M42.118,75.203c0.029,0,0.056-0.007,0.084-0.021l7.738-4.178c0.085-0.046,0.117-0.153,0.071-0.238  c-0.048-0.085-0.153-0.115-0.239-0.071l-7.738,4.178c-0.085,0.046-0.117,0.153-0.071,0.238  C41.996,75.169,42.056,75.203,42.118,75.203z"/><path d="M49.855,71.025c0.029,0,0.059-0.007,0.085-0.022c0.085-0.047,0.115-0.155,0.069-0.24l-2.708-4.866  c-0.048-0.085-0.158-0.117-0.239-0.068c-0.085,0.047-0.115,0.155-0.069,0.24l2.708,4.866C49.735,70.992,49.794,71.025,49.855,71.025  z"/><path d="M47.147,66.159c0.054,0,0.106-0.025,0.142-0.071c0.058-0.078,0.041-0.188-0.036-0.246l-7.158-5.343  c-0.078-0.056-0.188-0.042-0.247,0.036c-0.058,0.078-0.041,0.188,0.036,0.246l7.158,5.343C47.073,66.147,47.11,66.159,47.147,66.159  z"/><path d="M27.929,68.896c0.034,0,0.067-0.01,0.098-0.03l12.061-8.08c0.081-0.054,0.103-0.164,0.048-0.244  c-0.052-0.082-0.165-0.102-0.243-0.049l-12.061,8.08c-0.081,0.054-0.103,0.164-0.048,0.244  C27.816,68.869,27.872,68.896,27.929,68.896z"/><path d="M27.929,68.896c0.008,0,0.016-0.001,0.025-0.001l10.827-1.504c0.096-0.014,0.164-0.102,0.15-0.199  c-0.014-0.097-0.102-0.158-0.199-0.15l-10.827,1.504c-0.096,0.014-0.164,0.102-0.15,0.199  C27.767,68.832,27.842,68.896,27.929,68.896z"/><path d="M41.585,69.791c0.049,0,0.099-0.021,0.135-0.062c0.062-0.074,0.054-0.186-0.021-0.248l-2.829-2.399  c-0.074-0.062-0.186-0.053-0.249,0.02c-0.062,0.074-0.054,0.186,0.021,0.248l2.829,2.399C41.504,69.778,41.545,69.791,41.585,69.791  z"/><path d="M41.585,69.791c0.01,0,0.021-0.001,0.03-0.003c0.096-0.017,0.159-0.109,0.143-0.204l-1.595-8.976  c-0.016-0.095-0.106-0.166-0.203-0.142c-0.096,0.017-0.159,0.109-0.143,0.204l1.595,8.976  C41.427,69.732,41.501,69.791,41.585,69.791z"/><path d="M49.009,75.324c0.032,0,0.065-0.008,0.093-0.027c0.082-0.051,0.107-0.159,0.056-0.242l-9.02-14.508  c-0.052-0.082-0.159-0.111-0.243-0.056c-0.082,0.051-0.107,0.159-0.056,0.242l9.02,14.508C48.894,75.294,48.95,75.324,49.009,75.324  z"/><path d="M49.009,75.324c0.082,0,0.157-0.058,0.173-0.142l0.846-4.299c0.018-0.095-0.044-0.188-0.139-0.206  c-0.107-0.021-0.188,0.044-0.207,0.139l-0.846,4.299c-0.018,0.095,0.044,0.188,0.139,0.206  C48.987,75.322,48.998,75.324,49.009,75.324z"/><path d="M49.855,71.025c0.067,0,0.132-0.039,0.161-0.106l3.25-7.439c0.04-0.089-0.001-0.192-0.091-0.232  c-0.085-0.038-0.191,0.001-0.231,0.091l-3.25,7.439c-0.04,0.089,0.001,0.192,0.091,0.232C49.807,71.02,49.832,71.025,49.855,71.025z  "/><path d="M53.105,63.586c0.025,0,0.048-0.005,0.071-0.015c0.089-0.04,0.129-0.144,0.089-0.232l-1.775-3.979  c-0.04-0.091-0.144-0.129-0.232-0.089c-0.089,0.04-0.129,0.144-0.089,0.232l1.775,3.979C52.973,63.547,53.038,63.586,53.105,63.586z  "/><path d="M51.33,59.606c0.052,0,0.104-0.023,0.139-0.069c0.06-0.077,0.045-0.188-0.032-0.247l-8.609-6.625  c-0.076-0.06-0.187-0.046-0.246,0.032c-0.06,0.077-0.045,0.188,0.032,0.247l8.609,6.625C51.254,59.595,51.293,59.606,51.33,59.606z"/><path d="M42.721,52.981c0.096,0,0.175-0.078,0.176-0.174c0.001-0.097-0.077-0.177-0.173-0.178l-11.637-0.138  c-0.001,0-0.003,0-0.003,0c-0.096,0-0.175,0.078-0.176,0.174c-0.001,0.097,0.077,0.177,0.173,0.178l11.637,0.138  C42.72,52.981,42.721,52.981,42.721,52.981z"/><path d="M18.266,56.293c0.015,0,0.03-0.002,0.045-0.006l12.818-3.45c0.095-0.025,0.15-0.122,0.125-0.216  c-0.027-0.093-0.125-0.148-0.216-0.124l-12.818,3.45c-0.095,0.025-0.15,0.122-0.125,0.216  C18.118,56.242,18.188,56.293,18.266,56.293z"/><path d="M27.929,68.896c0.037,0,0.076-0.012,0.107-0.036c0.077-0.059,0.092-0.17,0.033-0.247L18.406,56.01  c-0.06-0.078-0.17-0.093-0.247-0.032c-0.077,0.059-0.092,0.17-0.033,0.247l9.663,12.603C27.824,68.873,27.876,68.896,27.929,68.896z  "/><path d="M27.929,68.896c0.082,0,0.157-0.058,0.173-0.142l3.155-16.053c0.018-0.095-0.044-0.188-0.139-0.206  c-0.104-0.019-0.188,0.044-0.207,0.139l-3.155,16.053c-0.018,0.095,0.044,0.188,0.139,0.206  C27.907,68.895,27.918,68.896,27.929,68.896z"/><path d="M39.989,60.816c0.048,0,0.096-0.02,0.131-0.058c0.066-0.073,0.059-0.183-0.014-0.249L31.2,52.536  c-0.07-0.065-0.184-0.059-0.247,0.014c-0.066,0.073-0.059,0.183,0.014,0.249l8.906,7.973C39.905,60.801,39.948,60.816,39.989,60.816  z"/><path d="M39.989,60.816c0.073,0,0.14-0.045,0.166-0.118l2.732-7.835c0.032-0.091-0.016-0.192-0.109-0.224  c-0.093-0.03-0.191,0.016-0.224,0.109l-2.732,7.835c-0.032,0.091,0.016,0.192,0.109,0.224C39.951,60.812,39.97,60.816,39.989,60.816  z"/><path d="M11.045,56.898c0.004,0,0.01,0,0.015-0.001l7.221-0.605c0.096-0.008,0.168-0.093,0.161-0.19  c-0.008-0.096-0.073-0.175-0.191-0.161l-7.221,0.605c-0.096,0.008-0.168,0.093-0.161,0.19  C10.877,56.829,10.954,56.898,11.045,56.898z"/><path d="M11.045,56.898c0.041,0,0.082-0.014,0.115-0.044c0.074-0.064,0.081-0.175,0.016-0.248l-4.304-4.908  c-0.062-0.073-0.175-0.08-0.247-0.016c-0.074,0.064-0.081,0.175-0.016,0.248l4.304,4.908C10.947,56.877,10.995,56.898,11.045,56.898  z"/><path d="M6.741,51.99c0.089,0,0.166-0.068,0.175-0.159l0.93-9.782c0.01-0.097-0.062-0.182-0.158-0.192  c-0.093-0.016-0.183,0.061-0.191,0.159l-0.93,9.782c-0.01,0.097,0.062,0.182,0.158,0.192C6.73,51.99,6.736,51.99,6.741,51.99z"/><path d="M7.671,42.208c0.025,0,0.051-0.005,0.074-0.016l6.336-2.974c0.088-0.041,0.126-0.146,0.085-0.234  c-0.043-0.087-0.148-0.124-0.234-0.085l-6.336,2.974c-0.088,0.041-0.126,0.146-0.085,0.234C7.542,42.171,7.606,42.208,7.671,42.208z  "/><path d="M14.008,39.234c0.023,0,0.048-0.005,0.071-0.015c0.089-0.039,0.129-0.144,0.089-0.232l-2.298-5.175  c-0.038-0.088-0.142-0.131-0.232-0.089c-0.089,0.039-0.129,0.144-0.089,0.232l2.298,5.175C13.876,39.195,13.94,39.234,14.008,39.234  z"/><path d="M11.71,34.06c0.069,0,0.133-0.041,0.162-0.107l2.527-5.985c0.037-0.09-0.004-0.193-0.093-0.231  c-0.089-0.037-0.192,0.005-0.231,0.093l-2.527,5.985c-0.037,0.09,0.004,0.193,0.093,0.231C11.663,34.055,11.687,34.06,11.71,34.06z"/><path d="M21.316,30.57c0.073,0,0.14-0.045,0.166-0.117c0.032-0.091-0.016-0.192-0.107-0.224l-7.079-2.495  c-0.099-0.034-0.192,0.016-0.225,0.107c-0.032,0.091,0.016,0.192,0.107,0.224l7.079,2.495C21.278,30.567,21.297,30.57,21.316,30.57z  "/><path d="M21.316,30.57c0.082,0,0.157-0.058,0.173-0.142l2.069-10.514c0.018-0.095-0.044-0.188-0.139-0.206  c-0.104-0.018-0.188,0.043-0.207,0.139L21.143,30.36c-0.018,0.095,0.044,0.188,0.139,0.206C21.294,30.569,21.305,30.57,21.316,30.57  z"/><path d="M31.231,29.941c0.038,0,0.077-0.012,0.11-0.038c0.076-0.06,0.088-0.171,0.027-0.247l-7.845-9.885  c-0.059-0.076-0.17-0.089-0.247-0.029c-0.076,0.06-0.088,0.171-0.027,0.247l7.845,9.885C31.128,29.919,31.178,29.941,31.231,29.941z  "/><path d="M31.231,29.941c0.093,0,0.17-0.072,0.176-0.166l0.845-15.006c0.005-0.097-0.069-0.18-0.166-0.186  c-0.091,0.007-0.18,0.069-0.186,0.166l-0.845,15.006c-0.005,0.097,0.069,0.18,0.166,0.186  C31.224,29.941,31.228,29.941,31.231,29.941z"/><path d="M35.029,21.848c0.023,0,0.047-0.005,0.069-0.014c0.089-0.038,0.131-0.142,0.093-0.231l-2.953-6.913  c-0.038-0.089-0.144-0.129-0.231-0.092c-0.089,0.038-0.131,0.142-0.093,0.231l2.953,6.913C34.895,21.809,34.96,21.848,35.029,21.848  z"/><path d="M38.997,28.8c0.03,0,0.059-0.008,0.087-0.023c0.085-0.048,0.114-0.155,0.066-0.24l-3.968-6.952  c-0.047-0.085-0.157-0.114-0.239-0.065c-0.085,0.048-0.114,0.155-0.066,0.24l3.968,6.952C38.876,28.769,38.937,28.8,38.997,28.8z"/><path d="M35.029,21.848c0.066,0,0.128-0.036,0.158-0.1l5.323-11.087c0.043-0.088,0.005-0.193-0.082-0.235  c-0.082-0.04-0.191-0.006-0.234,0.082l-5.323,11.087c-0.043,0.088-0.005,0.193,0.082,0.235  C34.977,21.843,35.003,21.848,35.029,21.848z"/><path d="M32.076,14.935c0.026,0,0.054-0.006,0.08-0.019l8.276-4.174c0.087-0.044,0.121-0.15,0.077-0.236  c-0.043-0.087-0.147-0.119-0.236-0.078l-8.276,4.174c-0.087,0.044-0.121,0.15-0.077,0.236C31.949,14.9,32.011,14.935,32.076,14.935z  "/><path d="M23.386,20.056c0.03,0,0.062-0.008,0.089-0.024l8.69-5.121c0.084-0.049,0.111-0.157,0.062-0.241  c-0.048-0.083-0.158-0.112-0.24-0.063l-8.69,5.121c-0.084,0.049-0.111,0.157-0.062,0.241C23.268,20.025,23.325,20.056,23.386,20.056  z"/><path d="M14.237,28.075c0.041,0,0.082-0.014,0.115-0.043l9.149-8.019c0.074-0.065,0.081-0.175,0.016-0.249  c-0.062-0.072-0.175-0.079-0.247-0.016l-9.149,8.019c-0.074,0.065-0.081,0.175-0.016,0.249  C14.139,28.054,14.188,28.075,14.237,28.075z"/><path d="M7.671,42.208c0.065,0,0.126-0.036,0.158-0.098l4.039-8.149c0.043-0.087,0.007-0.193-0.08-0.236  c-0.088-0.041-0.192-0.007-0.236,0.079l-4.039,8.149c-0.043,0.087-0.007,0.193,0.08,0.236C7.618,42.202,7.645,42.208,7.671,42.208z"/><path d="M50.387,11.463c0.092,0,0.169-0.071,0.176-0.164c0.007-0.097-0.067-0.181-0.164-0.188L40.364,10.41  c-0.113-0.012-0.181,0.066-0.188,0.163s0.067,0.181,0.164,0.188l10.035,0.701C50.379,11.463,50.383,11.463,50.387,11.463z"/><path d="M50.387,11.463c0.005,0,0.012,0,0.018-0.001l9.648-0.991c0.096-0.01,0.168-0.097,0.157-0.193  c-0.01-0.097-0.102-0.173-0.192-0.157l-9.648,0.991c-0.096,0.01-0.168,0.097-0.157,0.193C50.221,11.396,50.298,11.463,50.387,11.463  z"/><path d="M74.664,14.026c0.08,0,0.151-0.054,0.17-0.135c0.023-0.094-0.034-0.189-0.129-0.212l-14.629-3.554  c-0.093-0.025-0.19,0.035-0.212,0.13c-0.023,0.094,0.034,0.189,0.129,0.212l14.629,3.554C74.636,14.024,74.65,14.026,74.664,14.026z  "/><path d="M81.677,18.224c0.059,0,0.118-0.03,0.151-0.086c0.049-0.083,0.022-0.191-0.06-0.241l-7.013-4.198  c-0.084-0.051-0.191-0.023-0.242,0.061c-0.049,0.083-0.022,0.191,0.06,0.241l7.013,4.198C81.615,18.215,81.647,18.224,81.677,18.224  z"/><path d="M86.223,24.013c0.038,0,0.077-0.012,0.109-0.038c0.077-0.06,0.089-0.17,0.03-0.247l-4.546-5.789  c-0.062-0.077-0.173-0.09-0.247-0.03c-0.077,0.06-0.089,0.17-0.03,0.247l4.546,5.789C86.12,23.989,86.171,24.013,86.223,24.013z"/><path d="M86.827,33.192c0.004,0,0.008,0,0.011-0.001c0.098-0.006,0.17-0.09,0.165-0.187l-0.605-9.179  c-0.007-0.093-0.084-0.164-0.176-0.164c-0.004,0-0.008,0-0.011,0.001c-0.098,0.006-0.17,0.09-0.165,0.187l0.605,9.179  C86.658,33.12,86.735,33.192,86.827,33.192z"/><path d="M92.751,38.376c0.049,0,0.098-0.021,0.132-0.06c0.065-0.074,0.056-0.185-0.016-0.249l-5.924-5.184  c-0.073-0.064-0.183-0.056-0.247,0.016c-0.065,0.074-0.056,0.185,0.016,0.249l5.924,5.184C92.669,38.361,92.71,38.376,92.751,38.376  z"/><path d="M85.086,46.259c0.045,0,0.092-0.018,0.126-0.054l7.665-7.883c0.067-0.069,0.066-0.181-0.004-0.249  c-0.071-0.066-0.181-0.065-0.249,0.004l-7.665,7.883c-0.067,0.069-0.066,0.181,0.004,0.249  C84.998,46.242,85.042,46.259,85.086,46.259z"/><path d="M81.786,51.276c0.058,0,0.113-0.028,0.147-0.079l3.301-5.017c0.054-0.081,0.03-0.19-0.051-0.244  c-0.081-0.053-0.19-0.03-0.243,0.05l-3.301,5.017c-0.054,0.081-0.03,0.19,0.051,0.244C81.718,51.266,81.753,51.276,81.786,51.276z"/><path d="M81.786,51.276c0.092,0,0.169-0.071,0.176-0.164c0.006-0.097-0.067-0.181-0.164-0.187l-6.065-0.406  c-0.117-0.01-0.181,0.067-0.188,0.164c-0.005,0.097,0.067,0.181,0.164,0.187l6.065,0.406C81.778,51.276,81.782,51.276,81.786,51.276  z"/><path d="M67.56,51.027c0.001,0,0.003,0,0.003,0l8.161-0.157c0.098-0.002,0.175-0.082,0.173-0.179  c-0.001-0.096-0.08-0.172-0.176-0.172c-0.001,0-0.003,0-0.003,0l-8.161,0.157c-0.098,0.002-0.175,0.082-0.173,0.179  C67.385,50.951,67.463,51.027,67.56,51.027z"/><path d="M61.559,59.195c0.054,0,0.107-0.025,0.142-0.071l6.001-8.168c0.058-0.078,0.041-0.189-0.037-0.246  c-0.078-0.059-0.188-0.041-0.246,0.037l-6.001,8.168c-0.058,0.078-0.041,0.189,0.037,0.246  C61.486,59.184,61.523,59.195,61.559,59.195z"/><path d="M53.105,63.586c0.027,0,0.055-0.006,0.081-0.02l8.454-4.391c0.087-0.045,0.12-0.151,0.076-0.237  c-0.047-0.086-0.154-0.12-0.238-0.075l-8.454,4.391c-0.087,0.045-0.12,0.151-0.076,0.237C52.98,63.552,53.042,63.586,53.105,63.586z  "/><path d="M53.105,63.586c0.089,0,0.166-0.067,0.175-0.158l1.198-11.838c0.01-0.097-0.06-0.183-0.157-0.193  c-0.089-0.015-0.183,0.06-0.192,0.157l-1.198,11.838c-0.01,0.097,0.06,0.183,0.157,0.193C53.093,63.586,53.1,63.586,53.105,63.586z"/><path d="M54.303,51.748c0.019,0,0.038-0.003,0.058-0.01l6.505-2.249c0.092-0.032,0.14-0.132,0.109-0.224  c-0.032-0.092-0.133-0.141-0.224-0.109l-6.505,2.249c-0.092,0.032-0.14,0.132-0.109,0.224  C54.162,51.703,54.231,51.748,54.303,51.748z"/><path d="M67.56,51.027c0.081,0,0.153-0.056,0.172-0.137c0.021-0.095-0.038-0.189-0.133-0.211l-6.751-1.528  c-0.096-0.021-0.188,0.039-0.21,0.133c-0.021,0.095,0.038,0.189,0.133,0.211l6.751,1.528C67.533,51.026,67.547,51.027,67.56,51.027z  "/><path d="M67.56,51.027c0.043,0,0.085-0.015,0.12-0.046l5.786-5.312c0.071-0.066,0.076-0.177,0.01-0.249  c-0.066-0.07-0.176-0.077-0.249-0.011l-5.786,5.312c-0.071,0.066-0.076,0.177-0.01,0.249C67.465,51.008,67.511,51.027,67.56,51.027z  "/><path d="M75.72,50.87c0.025,0,0.049-0.005,0.074-0.016c0.088-0.041,0.126-0.146,0.085-0.234l-2.374-5.155  c-0.041-0.089-0.144-0.126-0.234-0.087c-0.088,0.041-0.126,0.146-0.085,0.234l2.374,5.155C75.59,50.832,75.655,50.87,75.72,50.87z"/><path d="M75.72,50.87c0.026,0,0.052-0.005,0.078-0.018l9.366-4.611c0.087-0.043,0.122-0.148,0.08-0.236  c-0.043-0.087-0.146-0.122-0.236-0.08l-9.366,4.611c-0.087,0.043-0.122,0.148-0.08,0.236C75.593,50.834,75.656,50.87,75.72,50.87z"/><path d="M85.086,46.259c0.067,0,0.131-0.038,0.161-0.104c0.04-0.089,0-0.192-0.088-0.232L71.69,39.854  c-0.087-0.041-0.191-0.001-0.234,0.088c-0.04,0.089,0,0.192,0.088,0.232l13.469,6.069C85.037,46.254,85.062,46.259,85.086,46.259z"/><path d="M71.617,40.189c0.062,0,0.121-0.032,0.154-0.09l3.457-6.157c0.047-0.085,0.016-0.192-0.067-0.239  c-0.087-0.047-0.192-0.017-0.24,0.067l-3.457,6.157c-0.047,0.085-0.016,0.192,0.067,0.239  C71.558,40.182,71.589,40.189,71.617,40.189z"/><path d="M75.075,34.033c0.004,0,0.008,0,0.012-0.001l11.753-0.841c0.098-0.007,0.17-0.091,0.164-0.188  c-0.007-0.096-0.1-0.179-0.188-0.163l-11.753,0.841c-0.098,0.007-0.17,0.091-0.164,0.188C74.906,33.962,74.983,34.033,75.075,34.033  z"/><path d="M14.008,39.234c0.049,0,0.1-0.021,0.135-0.063l7.309-8.664c0.062-0.074,0.054-0.186-0.021-0.248  c-0.074-0.06-0.187-0.054-0.249,0.021l-7.309,8.664c-0.062,0.074-0.054,0.186,0.021,0.248  C13.926,39.221,13.968,39.234,14.008,39.234z"/><path d="M21.66,38.482c0.003,0,0.005,0,0.008,0c0.096-0.004,0.172-0.087,0.168-0.183l-0.344-7.912  c-0.004-0.098-0.082-0.161-0.184-0.168c-0.096,0.004-0.172,0.087-0.168,0.183l0.344,7.912C21.488,38.409,21.567,38.482,21.66,38.482  z"/><path d="M14.008,39.234c0.005,0,0.011,0,0.018-0.001l7.652-0.752c0.096-0.01,0.166-0.096,0.157-0.192  c-0.008-0.091-0.085-0.159-0.175-0.159c-0.005,0-0.011,0-0.018,0.001l-7.652,0.752c-0.096,0.01-0.166,0.096-0.157,0.192  C13.841,39.166,13.918,39.234,14.008,39.234z"/><path d="M14.008,39.234c0.096,0,0.175-0.076,0.176-0.172l0.229-11.16c0.001-0.097-0.076-0.177-0.172-0.179c-0.001,0-0.003,0-0.004,0  c-0.096,0-0.175,0.076-0.176,0.172l-0.229,11.16c-0.001,0.097,0.076,0.177,0.172,0.179C14.005,39.234,14.006,39.234,14.008,39.234z"/><path d="M31.231,29.941c0.089,0,0.165-0.067,0.175-0.157c0.011-0.097-0.059-0.183-0.155-0.194l-16.994-1.867  c-0.106-0.018-0.184,0.058-0.194,0.155c-0.011,0.097,0.059,0.183,0.155,0.194l16.994,1.867  C31.218,29.941,31.224,29.941,31.231,29.941z"/><path d="M34.464,34.06c0.038,0,0.077-0.012,0.109-0.038c0.077-0.06,0.089-0.17,0.03-0.247l-3.233-4.118  c-0.062-0.076-0.173-0.089-0.247-0.03c-0.077,0.06-0.089,0.17-0.03,0.247l3.233,4.118C34.361,34.036,34.412,34.06,34.464,34.06z"/><path d="M34.464,34.06c0.078,0,0.148-0.052,0.17-0.131c0.025-0.094-0.032-0.19-0.125-0.215l-13.148-3.49  c-0.092-0.027-0.19,0.03-0.216,0.124c-0.025,0.094,0.032,0.19,0.125,0.215l13.148,3.49C34.434,34.057,34.449,34.06,34.464,34.06z"/><path d="M32.735,40.383c0.049,0,0.099-0.021,0.133-0.061c0.063-0.074,0.055-0.185-0.019-0.248l-11.419-9.813  c-0.071-0.064-0.184-0.056-0.247,0.019c-0.063,0.074-0.055,0.185,0.019,0.248l11.419,9.813  C32.654,40.369,32.694,40.383,32.735,40.383z"/><path d="M32.735,40.383c0.077,0,0.148-0.052,0.169-0.129l1.729-6.323c0.026-0.094-0.029-0.191-0.122-0.216  c-0.098-0.025-0.191,0.03-0.216,0.123l-1.729,6.323c-0.026,0.094,0.029,0.191,0.122,0.216C32.705,40.38,32.72,40.383,32.735,40.383z  "/><path d="M44.487,39.851c0.06,0,0.12-0.032,0.153-0.088c0.048-0.084,0.019-0.192-0.065-0.24l-10.023-5.791  c-0.081-0.047-0.191-0.021-0.24,0.065c-0.048,0.084-0.019,0.192,0.065,0.24l10.023,5.791C44.426,39.843,44.457,39.851,44.487,39.851  z"/><path d="M32.735,40.383c0.003,0,0.005,0,0.008,0l11.751-0.532c0.096-0.005,0.172-0.087,0.168-0.184  c-0.005-0.097-0.071-0.159-0.184-0.168l-11.751,0.532c-0.096,0.005-0.172,0.087-0.168,0.184  C32.564,40.309,32.642,40.383,32.735,40.383z"/><path d="M29.432,47.139c0.065,0,0.128-0.036,0.158-0.099l3.303-6.757c0.043-0.087,0.007-0.192-0.081-0.235  c-0.087-0.041-0.194-0.006-0.235,0.081l-3.303,6.757c-0.043,0.087-0.007,0.192,0.081,0.235  C29.38,47.134,29.406,47.139,29.432,47.139z"/><path d="M29.432,47.139c0.043,0,0.084-0.015,0.118-0.045c0.071-0.065,0.077-0.177,0.012-0.249l-7.772-8.657  c-0.066-0.072-0.177-0.076-0.249-0.014c-0.071,0.065-0.077,0.177-0.012,0.249l7.772,8.657  C29.336,47.119,29.384,47.139,29.432,47.139z"/><path d="M32.735,40.383c0.084,0,0.158-0.06,0.173-0.146c0.016-0.096-0.048-0.186-0.143-0.203l-11.075-1.9  c-0.106-0.024-0.186,0.047-0.203,0.144c-0.016,0.096,0.048,0.186,0.143,0.203l11.075,1.9C32.716,40.382,32.726,40.383,32.735,40.383  z"/><path d="M38.175,48.444c0.034,0,0.069-0.01,0.099-0.03c0.08-0.054,0.102-0.164,0.047-0.244l-5.44-8.062  c-0.056-0.08-0.166-0.101-0.245-0.047c-0.08,0.054-0.102,0.164-0.047,0.244l5.44,8.062C38.064,48.417,38.119,48.444,38.175,48.444z"/><path d="M38.175,48.444c0.085,0,0.161-0.063,0.175-0.15c0.014-0.096-0.052-0.186-0.148-0.2l-8.743-1.305  c-0.099-0.014-0.186,0.052-0.201,0.148c-0.014,0.096,0.052,0.186,0.148,0.2l8.744,1.305C38.159,48.444,38.167,48.444,38.175,48.444z  "/><path d="M23.986,48.319c0.012,0,0.025-0.001,0.037-0.004l5.446-1.18c0.095-0.021,0.155-0.114,0.135-0.209  c-0.021-0.095-0.12-0.153-0.209-0.135l-5.446,1.18c-0.095,0.021-0.155,0.114-0.135,0.209C23.832,48.262,23.905,48.319,23.986,48.319  z"/><path d="M23.986,48.319c0.047,0,0.092-0.018,0.126-0.054c0.067-0.07,0.066-0.181-0.004-0.249l-2.67-2.563  c-0.071-0.066-0.183-0.064-0.249,0.005c-0.067,0.07-0.066,0.181,0.004,0.249l2.67,2.563C23.898,48.302,23.942,48.319,23.986,48.319z  "/><path d="M21.316,45.756c0.093,0,0.172-0.074,0.176-0.168l0.344-7.274c0.004-0.097-0.07-0.179-0.168-0.184  c-0.11,0.002-0.179,0.071-0.184,0.168l-0.344,7.274c-0.004,0.097,0.07,0.179,0.168,0.184C21.311,45.756,21.314,45.756,21.316,45.756  z"/><path d="M6.741,51.99c0.043,0,0.084-0.015,0.118-0.045l14.919-13.508c0.071-0.065,0.077-0.177,0.012-0.249  c-0.066-0.073-0.177-0.076-0.249-0.012L6.623,51.683c-0.071,0.065-0.077,0.177-0.012,0.249C6.645,51.97,6.693,51.99,6.741,51.99z"/><path d="M6.741,51.99c0.023,0,0.047-0.005,0.069-0.014l14.575-6.234c0.089-0.038,0.131-0.142,0.093-0.231  c-0.04-0.089-0.146-0.129-0.231-0.092L6.672,51.652c-0.089,0.038-0.131,0.142-0.093,0.231C6.608,51.95,6.672,51.99,6.741,51.99z"/><path d="M21.316,45.756c0.025,0,0.051-0.005,0.076-0.016l11.419-5.373c0.087-0.042,0.125-0.146,0.084-0.234  c-0.043-0.088-0.146-0.123-0.235-0.085l-11.419,5.373c-0.087,0.042-0.125,0.146-0.084,0.234  C21.187,45.719,21.25,45.756,21.316,45.756z"/><path d="M32.735,40.383c0.025,0,0.049-0.005,0.073-0.016c0.089-0.041,0.128-0.146,0.087-0.234l-9.349-20.327  c-0.04-0.088-0.148-0.125-0.232-0.087c-0.089,0.041-0.128,0.146-0.087,0.234l9.349,20.327  C32.605,40.345,32.669,40.383,32.735,40.383z"/><path d="M35.029,21.848c0.085,0,0.161-0.063,0.175-0.149c0.014-0.096-0.052-0.186-0.148-0.201l-11.643-1.793  c-0.096-0.013-0.186,0.053-0.201,0.147c-0.014,0.096,0.052,0.186,0.148,0.201l11.643,1.793  C35.011,21.848,35.021,21.848,35.029,21.848z"/><path d="M34.464,34.06c0.093,0,0.172-0.074,0.176-0.168l0.565-12.211c0.004-0.097-0.07-0.179-0.168-0.184  c-0.109-0.005-0.179,0.071-0.184,0.168l-0.565,12.211c-0.004,0.097,0.07,0.179,0.168,0.184C34.458,34.06,34.461,34.06,34.464,34.06z  "/><path d="M34.464,34.06c0.049,0,0.099-0.021,0.133-0.061l4.533-5.259c0.063-0.074,0.055-0.185-0.018-0.248  c-0.074-0.065-0.184-0.056-0.249,0.019l-4.533,5.259c-0.063,0.074-0.055,0.185,0.018,0.248C34.383,34.046,34.423,34.06,34.464,34.06  z"/><path d="M31.231,29.941c0.008,0,0.016-0.001,0.026-0.002l7.767-1.141c0.096-0.014,0.162-0.103,0.148-0.199  c-0.014-0.096-0.091-0.17-0.201-0.148l-7.767,1.141c-0.096,0.014-0.162,0.103-0.148,0.199C31.07,29.878,31.144,29.941,31.231,29.941  z"/><path d="M52.152,32.408c0.088,0,0.164-0.066,0.175-0.155c0.011-0.096-0.058-0.184-0.154-0.195l-20.921-2.467  c-0.096-0.011-0.183,0.058-0.195,0.154c-0.011,0.096,0.058,0.184,0.154,0.195l20.921,2.467  C52.138,32.407,52.145,32.408,52.152,32.408z"/><path d="M44.487,39.851c0.044,0,0.088-0.016,0.122-0.049l7.665-7.443c0.07-0.068,0.071-0.179,0.004-0.249  c-0.069-0.069-0.18-0.07-0.249-0.004l-7.665,7.443c-0.07,0.068-0.071,0.179-0.004,0.249C44.395,39.833,44.441,39.851,44.487,39.851z  "/><path d="M50.218,45.05c0.048,0,0.096-0.019,0.131-0.058c0.065-0.072,0.059-0.183-0.012-0.249l-5.731-5.199  c-0.073-0.065-0.183-0.061-0.249,0.012c-0.065,0.072-0.059,0.183,0.012,0.249l5.731,5.199C50.134,45.035,50.176,45.05,50.218,45.05z  "/><path d="M50.218,45.05c0.085,0,0.161-0.063,0.175-0.149l1.933-12.642c0.014-0.096-0.052-0.186-0.148-0.201  c-0.098-0.015-0.186,0.052-0.201,0.147l-1.933,12.642c-0.014,0.096,0.052,0.186,0.148,0.201C50.2,45.049,50.21,45.05,50.218,45.05z"/><path d="M52.152,32.408c0.026,0,0.052-0.005,0.077-0.018c0.087-0.042,0.124-0.147,0.081-0.235l-5.818-11.998  c-0.043-0.087-0.15-0.123-0.235-0.081c-0.087,0.042-0.124,0.147-0.081,0.235l5.818,11.998  C52.024,32.371,52.087,32.408,52.152,32.408z"/><path d="M38.997,28.8c0.049,0,0.098-0.021,0.132-0.06l7.336-8.39c0.065-0.074,0.056-0.185-0.016-0.249  c-0.073-0.064-0.183-0.056-0.247,0.016l-7.336,8.39c-0.065,0.074-0.056,0.185,0.016,0.249C38.915,28.786,38.956,28.8,38.997,28.8z"/><path d="M38.997,28.8c0.022,0,0.045-0.004,0.067-0.013l18.366-7.532c0.089-0.037,0.132-0.139,0.095-0.229  c-0.036-0.089-0.139-0.134-0.229-0.096L38.93,28.461c-0.089,0.037-0.132,0.139-0.095,0.229C38.863,28.759,38.929,28.8,38.997,28.8z"/><path d="M52.152,32.408c0.066,0,0.129-0.038,0.159-0.102l5.212-11.14c0.041-0.088,0.003-0.192-0.085-0.234  c-0.084-0.042-0.191-0.003-0.234,0.085l-5.212,11.14c-0.041,0.088-0.003,0.192,0.085,0.234  C52.101,32.402,52.127,32.408,52.152,32.408z"/><path d="M57.364,36.756c0.051,0,0.1-0.021,0.135-0.063c0.063-0.075,0.052-0.186-0.022-0.248l-5.212-4.348  c-0.074-0.062-0.187-0.052-0.247,0.023c-0.063,0.075-0.052,0.186,0.022,0.248l5.212,4.348  C57.284,36.743,57.324,36.756,57.364,36.756z"/><path d="M57.364,36.756c0.041,0,0.082-0.014,0.115-0.043l6.758-5.852c0.073-0.064,0.081-0.175,0.018-0.249  c-0.066-0.074-0.176-0.08-0.249-0.018l-6.758,5.852c-0.073,0.064-0.081,0.175-0.018,0.249  C57.266,36.735,57.314,36.756,57.364,36.756z"/><path d="M64.122,30.904c0.036,0,0.07-0.01,0.1-0.032c0.08-0.056,0.099-0.166,0.044-0.245l-6.758-9.636  c-0.055-0.08-0.166-0.098-0.245-0.043c-0.08,0.056-0.099,0.166-0.044,0.245l6.758,9.636C64.012,30.878,64.067,30.904,64.122,30.904z  "/><path d="M57.364,21.268c0.07,0,0.136-0.042,0.164-0.111l1.547-3.917c0.036-0.09-0.008-0.192-0.099-0.228  c-0.085-0.034-0.191,0.008-0.228,0.099L57.2,21.027c-0.036,0.09,0.008,0.192,0.099,0.228C57.32,21.264,57.342,21.268,57.364,21.268z  "/><path d="M65.427,22.876c0.049,0,0.099-0.021,0.135-0.062c0.062-0.074,0.054-0.186-0.021-0.248l-6.516-5.525  c-0.076-0.063-0.186-0.053-0.249,0.02c-0.062,0.074-0.054,0.186,0.021,0.248l6.516,5.525C65.346,22.863,65.387,22.876,65.427,22.876  z"/><path d="M64.122,30.904c0.085,0,0.159-0.061,0.173-0.148l1.305-8.028c0.016-0.096-0.049-0.186-0.144-0.202  c-0.092-0.019-0.187,0.049-0.202,0.146L63.948,30.7c-0.016,0.096,0.049,0.186,0.144,0.202  C64.102,30.903,64.112,30.904,64.122,30.904z"/><path d="M64.122,30.904c0.021,0,0.043-0.003,0.063-0.012c0.091-0.035,0.136-0.137,0.1-0.227l-5.211-13.553  c-0.033-0.091-0.135-0.136-0.227-0.101c-0.091,0.035-0.136,0.137-0.1,0.227l5.211,13.553C63.984,30.861,64.051,30.904,64.122,30.904  z"/><path d="M58.911,17.351c0.056,0,0.11-0.027,0.144-0.076c0.055-0.08,0.036-0.189-0.044-0.245l-8.524-5.888  c-0.08-0.054-0.19-0.034-0.245,0.045c-0.055,0.08-0.036,0.189,0.044,0.245l8.524,5.888C58.841,17.341,58.877,17.351,58.911,17.351z"/><path d="M46.334,20.41c0.067,0,0.131-0.038,0.161-0.103l4.054-8.947c0.04-0.089,0-0.193-0.088-0.233  c-0.085-0.042-0.192-0.001-0.234,0.087l-4.054,8.947c-0.04,0.089,0,0.193,0.088,0.233C46.284,20.405,46.309,20.41,46.334,20.41z"/><path d="M46.334,20.41c0.032,0,0.063-0.008,0.092-0.026c0.084-0.052,0.109-0.16,0.058-0.243l-5.982-9.648  c-0.049-0.083-0.159-0.109-0.242-0.057c-0.084,0.052-0.109,0.16-0.058,0.243l5.982,9.648C46.217,20.38,46.275,20.41,46.334,20.41z"/><path d="M57.351,21.268c0.059,0,0.117-0.03,0.15-0.083c0.051-0.083,0.025-0.191-0.058-0.243L40.444,10.436  c-0.084-0.05-0.191-0.025-0.242,0.057c-0.051,0.083-0.025,0.191,0.058,0.243l16.999,10.506C57.288,21.26,57.32,21.268,57.351,21.268  z"/><path d="M57.351,21.268c0.091,0,0.168-0.07,0.176-0.162c0.007-0.097-0.066-0.181-0.162-0.189l-11.018-0.858  c-0.1-0.021-0.18,0.065-0.19,0.161c-0.007,0.097,0.066,0.181,0.162,0.189l11.018,0.858C57.342,21.268,57.347,21.268,57.351,21.268z"/><path d="M35.029,21.848c0.007,0,0.015-0.001,0.022-0.001l11.305-1.439c0.096-0.012,0.165-0.1,0.153-0.196  c-0.011-0.096-0.099-0.159-0.196-0.153l-11.305,1.439c-0.096,0.012-0.165,0.1-0.153,0.196  C34.865,21.784,34.941,21.848,35.029,21.848z"/><path d="M52.152,32.408c0.059,0,0.117-0.03,0.15-0.084c0.051-0.082,0.025-0.191-0.058-0.242L35.121,21.523  c-0.084-0.052-0.191-0.025-0.242,0.058s-0.025,0.191,0.058,0.242L52.06,32.382C52.088,32.4,52.12,32.408,52.152,32.408z"/><path d="M60.809,49.499c0.027,0,0.054-0.006,0.08-0.019c0.087-0.044,0.121-0.15,0.077-0.236l-8.657-17.091  c-0.043-0.087-0.15-0.121-0.236-0.077c-0.087,0.044-0.121,0.15-0.077,0.236l8.657,17.091C60.682,49.464,60.744,49.499,60.809,49.499  z"/><path d="M60.809,49.499c0.015,0,0.03-0.002,0.045-0.006c0.095-0.025,0.15-0.122,0.125-0.216l-3.445-12.744  c-0.026-0.094-0.122-0.149-0.216-0.124c-0.095,0.025-0.15,0.122-0.125,0.216l3.445,12.744C60.66,49.448,60.732,49.499,60.809,49.499  z"/><path d="M66.484,41.458c0.063,0,0.125-0.035,0.157-0.096c0.044-0.086,0.01-0.192-0.076-0.237l-9.12-4.703  c-0.085-0.043-0.192-0.011-0.238,0.076c-0.044,0.086-0.01,0.192,0.076,0.237l9.12,4.703C66.429,41.452,66.456,41.458,66.484,41.458z  "/><path d="M66.484,41.458c0.012,0,0.026-0.001,0.038-0.004c0.095-0.021,0.154-0.115,0.133-0.21L64.293,30.69  c-0.021-0.093-0.117-0.154-0.21-0.133c-0.095,0.021-0.154,0.115-0.133,0.21l2.362,10.555C66.33,41.403,66.403,41.458,66.484,41.458z  "/><path d="M71.617,40.189c0.038,0,0.078-0.013,0.11-0.039c0.076-0.061,0.088-0.172,0.027-0.247l-7.496-9.286  c-0.062-0.076-0.173-0.087-0.247-0.026c-0.076,0.061-0.088,0.172-0.027,0.247l7.496,9.286  C71.516,40.167,71.567,40.189,71.617,40.189z"/><path d="M73.346,45.715c0.018,0,0.034-0.003,0.052-0.008c0.093-0.029,0.144-0.128,0.115-0.22l-1.729-5.525  c-0.029-0.094-0.126-0.146-0.22-0.115c-0.093,0.029-0.144,0.128-0.115,0.22l1.729,5.525C73.202,45.667,73.27,45.715,73.346,45.715z"/><path d="M73.346,45.715c0.059,0,0.117-0.03,0.15-0.083c0.051-0.082,0.026-0.191-0.058-0.243l-6.862-4.256  c-0.084-0.05-0.192-0.024-0.242,0.057c-0.051,0.082-0.026,0.191,0.058,0.243l6.862,4.256C73.283,45.707,73.314,45.715,73.346,45.715  z"/><path d="M60.809,49.499c0.055,0,0.11-0.026,0.144-0.074l5.675-8.041c0.055-0.08,0.037-0.19-0.043-0.245  c-0.078-0.057-0.188-0.038-0.246,0.042l-5.675,8.041c-0.055,0.08-0.037,0.19,0.043,0.245C60.738,49.489,60.773,49.499,60.809,49.499  z"/><path d="M60.809,49.499c0.069,0,0.133-0.041,0.162-0.108c0.037-0.089-0.004-0.192-0.093-0.23l-10.59-4.449  c-0.095-0.037-0.192,0.004-0.231,0.094c-0.037,0.089,0.004,0.192,0.093,0.23l10.59,4.449C60.763,49.495,60.785,49.499,60.809,49.499  z"/><path d="M54.303,51.748c0.032,0,0.063-0.008,0.092-0.025c0.082-0.051,0.109-0.159,0.058-0.242l-4.085-6.698  c-0.051-0.083-0.158-0.109-0.242-0.059c-0.082,0.051-0.109,0.159-0.058,0.242l4.085,6.698  C54.187,51.718,54.244,51.748,54.303,51.748z"/><path d="M42.721,52.981c0.005,0,0.012,0,0.019-0.001l11.582-1.233c0.096-0.01,0.166-0.098,0.155-0.194  c-0.01-0.096-0.071-0.17-0.194-0.157L42.702,52.63c-0.096,0.01-0.166,0.098-0.155,0.194C42.556,52.914,42.632,52.981,42.721,52.981z  "/><path d="M42.721,52.981c0.087,0,0.162-0.064,0.175-0.153l1.766-13.13c0.012-0.096-0.055-0.185-0.151-0.198  c-0.088-0.01-0.184,0.054-0.198,0.151l-1.766,13.13c-0.012,0.096,0.055,0.185,0.151,0.198C42.706,52.98,42.713,52.981,42.721,52.981  z"/><path d="M38.175,48.444c0.054,0,0.107-0.025,0.142-0.071l6.311-8.594c0.058-0.078,0.041-0.189-0.037-0.246  c-0.078-0.06-0.188-0.041-0.246,0.037l-6.311,8.594c-0.058,0.078-0.041,0.189,0.037,0.246C38.103,48.433,38.14,48.444,38.175,48.444  z"/><path d="M54.303,51.748c0.082,0,0.155-0.057,0.172-0.141c0.021-0.095-0.041-0.188-0.136-0.207l-16.128-3.303  c-0.103-0.019-0.188,0.042-0.207,0.137c-0.021,0.095,0.041,0.188,0.136,0.207l16.128,3.303  C54.28,51.746,54.292,51.748,54.303,51.748z"/><path d="M54.303,51.748c0.063,0,0.124-0.034,0.155-0.094c0.045-0.086,0.012-0.192-0.073-0.237L32.818,40.051  c-0.085-0.048-0.192-0.012-0.238,0.074c-0.045,0.086-0.012,0.192,0.073,0.237l21.568,11.365  C54.247,51.742,54.276,51.748,54.303,51.748z"/><path d="M31.084,52.843c0.016,0,0.033-0.002,0.049-0.007c0.093-0.027,0.147-0.124,0.12-0.218l-1.652-5.704  c-0.027-0.093-0.128-0.145-0.218-0.12c-0.093,0.027-0.147,0.124-0.12,0.218l1.652,5.704C30.937,52.793,31.007,52.843,31.084,52.843z  "/><path d="M18.266,56.293c0.04,0,0.078-0.013,0.111-0.04l11.166-9.154c0.076-0.062,0.087-0.172,0.025-0.247  c-0.062-0.076-0.172-0.086-0.247-0.025l-11.166,9.154c-0.076,0.062-0.087,0.172-0.025,0.247  C18.164,56.271,18.215,56.293,18.266,56.293z"/><path d="M18.266,56.293c0.055,0,0.109-0.025,0.143-0.074l5.72-7.975c0.056-0.079,0.038-0.189-0.04-0.245  c-0.08-0.057-0.188-0.04-0.246,0.041l-5.72,7.975c-0.056,0.079-0.038,0.189,0.04,0.245C18.194,56.282,18.23,56.293,18.266,56.293z"/><path d="M27.929,68.896c0.011,0,0.022-0.001,0.033-0.003c0.096-0.018,0.158-0.11,0.14-0.205L24.159,48.11  c-0.018-0.096-0.113-0.168-0.206-0.139c-0.096,0.018-0.158,0.11-0.14,0.205l3.942,20.577C27.772,68.838,27.846,68.896,27.929,68.896  z"/><path d="M27.929,68.896c0.065,0,0.126-0.036,0.157-0.097l10.247-20.452c0.044-0.087,0.01-0.193-0.078-0.236  c-0.087-0.041-0.194-0.007-0.235,0.078L27.772,68.641c-0.044,0.087-0.01,0.193,0.078,0.236  C27.875,68.89,27.903,68.896,27.929,68.896z"/><path d="M47.147,66.159c0.058,0,0.114-0.029,0.148-0.081l4.183-6.552c0.052-0.082,0.027-0.191-0.054-0.243  c-0.08-0.05-0.19-0.028-0.243,0.054l-4.183,6.552c-0.052,0.082-0.027,0.191,0.054,0.243C47.081,66.15,47.114,66.159,47.147,66.159z"/><path d="M39.989,60.816c0.005,0,0.012,0,0.019-0.001l11.341-1.209c0.096-0.01,0.166-0.098,0.155-0.194  c-0.01-0.096-0.073-0.17-0.194-0.157L39.97,60.465c-0.096,0.01-0.166,0.098-0.155,0.194C39.824,60.749,39.9,60.816,39.989,60.816z"/><path d="M51.33,59.606c0.071,0,0.137-0.043,0.165-0.113l2.974-7.859c0.034-0.091-0.012-0.192-0.103-0.227  c-0.092-0.036-0.191,0.011-0.227,0.102l-2.974,7.859c-0.034,0.091,0.012,0.192,0.103,0.227  C51.289,59.603,51.309,59.606,51.33,59.606z"/><path d="M61.559,59.195c0.004,0,0.01,0,0.014-0.001c0.096-0.008,0.169-0.092,0.162-0.189l-0.75-9.696  c-0.008-0.096-0.107-0.177-0.19-0.161c-0.096,0.008-0.169,0.092-0.162,0.189l0.75,9.696C61.391,59.125,61.468,59.195,61.559,59.195z  "/><path d="M53.105,63.586c0.062,0,0.122-0.033,0.154-0.091l7.703-14.087c0.047-0.085,0.015-0.192-0.07-0.239  c-0.082-0.045-0.191-0.015-0.238,0.07l-7.703,14.087c-0.047,0.085-0.015,0.192,0.07,0.239  C53.048,63.579,53.076,63.586,53.105,63.586z"/><path d="M64.122,30.904c0.011,0,0.023-0.001,0.036-0.003l7.544-1.547c0.095-0.02,0.157-0.113,0.136-0.207  c-0.018-0.095-0.1-0.155-0.207-0.137l-7.544,1.547c-0.095,0.02-0.157,0.113-0.136,0.207C63.966,30.847,64.039,30.904,64.122,30.904z  "/><path d="M71.617,40.189c0.096,0,0.176-0.078,0.176-0.175l0.048-10.833c0-0.097-0.078-0.176-0.175-0.177c-0.001,0-0.001,0-0.001,0  c-0.096,0-0.176,0.078-0.176,0.175l-0.048,10.833c0,0.097,0.078,0.176,0.175,0.177C71.617,40.189,71.617,40.189,71.617,40.189z"/><path d="M71.665,29.357c0.034,0,0.07-0.01,0.1-0.032l5.175-3.627c0.08-0.056,0.099-0.166,0.044-0.245  c-0.055-0.08-0.165-0.099-0.245-0.043l-5.175,3.627c-0.08,0.056-0.099,0.166-0.044,0.245C71.556,29.331,71.61,29.357,71.665,29.357z  "/><path d="M76.84,25.73c0.034,0,0.07-0.01,0.1-0.032c0.08-0.056,0.099-0.165,0.044-0.245l-6.77-9.721  c-0.055-0.081-0.165-0.1-0.245-0.044s-0.099,0.165-0.044,0.245l6.77,9.721C76.73,25.704,76.785,25.73,76.84,25.73z"/><path d="M70.07,16.008c0.023,0,0.047-0.005,0.07-0.014l4.594-1.983c0.089-0.038,0.131-0.142,0.092-0.231  c-0.04-0.09-0.14-0.128-0.232-0.092L70,15.671c-0.089,0.038-0.131,0.142-0.092,0.231C69.937,15.969,70.003,16.008,70.07,16.008z"/><path d="M71.642,29.371c0.082,0,0.157-0.058,0.173-0.142l3.022-15.345c0.018-0.095-0.044-0.188-0.139-0.206  c-0.107-0.021-0.188,0.044-0.207,0.139l-3.022,15.345c-0.018,0.095,0.044,0.188,0.139,0.206  C71.62,29.37,71.631,29.371,71.642,29.371z"/><path d="M71.642,29.371c0.044,0,0.088-0.016,0.121-0.049c0.071-0.067,0.073-0.179,0.006-0.249l-6.215-6.495  c-0.067-0.071-0.18-0.071-0.247-0.005c-0.071,0.067-0.073,0.179-0.005,0.249l6.215,6.495C71.55,29.353,71.595,29.371,71.642,29.371z  "/><path d="M65.427,22.876c0.056,0,0.111-0.027,0.146-0.078l4.643-6.868c0.055-0.08,0.033-0.19-0.047-0.244  c-0.08-0.054-0.19-0.034-0.245,0.047l-4.643,6.868c-0.055,0.08-0.033,0.19,0.047,0.244C65.358,22.867,65.393,22.876,65.427,22.876z"/><path d="M70.07,16.008c0.062,0,0.122-0.033,0.154-0.091c0.047-0.085,0.016-0.192-0.069-0.239L60.12,10.142  c-0.085-0.048-0.192-0.016-0.239,0.069c-0.047,0.085-0.016,0.192,0.069,0.239l10.035,5.537  C70.012,16.002,70.041,16.008,70.07,16.008z"/><path d="M58.911,17.351c0.085,0,0.159-0.061,0.173-0.148l1.124-6.88c0.016-0.096-0.049-0.186-0.144-0.202  c-0.092-0.014-0.187,0.049-0.202,0.146l-1.124,6.88c-0.016,0.096,0.049,0.186,0.144,0.202C58.892,17.35,58.901,17.351,58.911,17.351  z"/><path d="M46.334,20.41c0.014,0,0.027-0.001,0.041-0.005l12.577-3.059c0.095-0.023,0.153-0.118,0.129-0.212  c-0.022-0.094-0.12-0.151-0.212-0.13l-12.577,3.059c-0.095,0.023-0.153,0.118-0.129,0.212C46.182,20.356,46.254,20.41,46.334,20.41z  "/><path d="M46.334,20.41c0.036,0,0.071-0.011,0.103-0.034l13.701-9.938c0.078-0.057,0.096-0.167,0.04-0.245  c-0.056-0.079-0.165-0.098-0.246-0.039l-13.701,9.938c-0.078,0.057-0.096,0.167-0.04,0.245C46.225,20.384,46.279,20.41,46.334,20.41  z"/><path d="M65.427,22.876c0.023,0,0.047-0.005,0.07-0.014c0.089-0.039,0.131-0.142,0.091-0.232l-5.392-12.405  c-0.038-0.089-0.142-0.129-0.231-0.091c-0.089,0.039-0.131,0.142-0.091,0.232l5.392,12.405  C65.295,22.836,65.36,22.876,65.427,22.876z"/><path d="M65.427,22.876c0.016,0,0.032-0.002,0.048-0.007l16.25-4.653c0.093-0.027,0.148-0.124,0.121-0.217  c-0.027-0.093-0.125-0.146-0.217-0.121l-16.25,4.653c-0.093,0.027-0.148,0.124-0.121,0.217C65.28,22.826,65.35,22.876,65.427,22.876  z"/><path d="M76.84,25.73c0.058,0,0.114-0.028,0.148-0.08l4.837-7.506c0.052-0.082,0.029-0.191-0.054-0.243  c-0.081-0.052-0.19-0.03-0.243,0.052l-4.837,7.506c-0.052,0.082-0.029,0.191,0.054,0.243C76.774,25.721,76.807,25.73,76.84,25.73z"/><path d="M86.827,33.192c0.054,0,0.106-0.024,0.142-0.071c0.058-0.078,0.041-0.188-0.036-0.246l-9.987-7.462  c-0.078-0.056-0.188-0.043-0.247,0.036c-0.058,0.078-0.041,0.188,0.036,0.246l9.987,7.462C86.753,33.18,86.79,33.192,86.827,33.192z  "/><path d="M76.84,25.73c0.011,0,0.021-0.001,0.032-0.003l9.382-1.717c0.096-0.018,0.159-0.109,0.142-0.205  c-0.016-0.096-0.107-0.161-0.205-0.142l-9.382,1.717c-0.096,0.018-0.159,0.109-0.142,0.205C76.682,25.671,76.757,25.73,76.84,25.73z  "/><path d="M75.075,34.033c0.043,0,0.084-0.015,0.118-0.045l11.148-10.02c0.071-0.065,0.077-0.176,0.012-0.248  c-0.066-0.072-0.176-0.076-0.249-0.013l-11.148,10.02c-0.071,0.065-0.077,0.176-0.012,0.248  C74.978,34.013,75.027,34.033,75.075,34.033z"/><path d="M86.223,24.013c0.065,0,0.126-0.036,0.158-0.098c0.043-0.087,0.007-0.193-0.08-0.236l-16.153-8.004  c-0.088-0.042-0.192-0.007-0.236,0.079c-0.043,0.087-0.007,0.193,0.08,0.236l16.153,8.004  C86.169,24.007,86.197,24.013,86.223,24.013z"/><path d="M86.827,33.192c0.019,0,0.038-0.003,0.058-0.01c0.091-0.032,0.14-0.132,0.109-0.223l-5.15-14.968  c-0.032-0.092-0.133-0.142-0.224-0.109c-0.091,0.032-0.14,0.132-0.109,0.223l5.15,14.968C86.686,33.146,86.755,33.192,86.827,33.192  z"/><path d="M92.751,38.376c0.08,0,0.151-0.054,0.17-0.134c0.023-0.094-0.034-0.19-0.128-0.213l-17.677-4.343  c-0.106-0.02-0.191,0.035-0.213,0.129c-0.023,0.094,0.034,0.19,0.128,0.213l17.677,4.343C92.724,38.374,92.738,38.376,92.751,38.376  z"/><path d="M71.617,40.189c0.005,0,0.01,0,0.015-0.001l21.134-1.814c0.096-0.008,0.169-0.093,0.161-0.19  c-0.008-0.097-0.096-0.17-0.191-0.16l-21.134,1.814c-0.096,0.008-0.169,0.093-0.161,0.19C71.45,40.12,71.527,40.189,71.617,40.189z"/><path d="M73.346,45.715c0.021,0,0.041-0.003,0.062-0.012l19.405-7.339c0.091-0.034,0.137-0.135,0.103-0.227  c-0.036-0.091-0.135-0.14-0.227-0.102l-19.405,7.339c-0.091,0.034-0.137,0.135-0.103,0.227  C73.209,45.672,73.275,45.715,73.346,45.715z"/><path d="M75.72,50.87c0.058,0,0.115-0.029,0.148-0.082l11.107-17.678c0.052-0.082,0.027-0.191-0.055-0.243  c-0.081-0.052-0.191-0.027-0.242,0.056L75.572,50.6c-0.052,0.082-0.027,0.191,0.055,0.243C75.656,50.861,75.689,50.87,75.72,50.87z"/><path d="M75.72,50.87c0.003,0,0.004,0,0.007,0c0.098-0.004,0.173-0.086,0.169-0.183L75.251,33.85  c-0.004-0.095-0.081-0.169-0.176-0.169c-0.003,0-0.004,0-0.007,0c-0.098,0.004-0.173,0.086-0.169,0.183l0.646,16.837  C75.549,50.796,75.626,50.87,75.72,50.87z"/><path d="M81.786,51.276c0.021,0,0.043-0.004,0.063-0.012c0.091-0.036,0.136-0.137,0.1-0.228l-6.711-17.243  c-0.033-0.09-0.137-0.133-0.227-0.1c-0.091,0.036-0.136,0.137-0.1,0.228l6.711,17.243C81.648,51.233,81.716,51.276,81.786,51.276z"/><path d="M75.075,34.033c0.036,0,0.073-0.011,0.104-0.034c0.078-0.058,0.095-0.168,0.037-0.246l-3.433-4.662  c-0.056-0.078-0.168-0.096-0.246-0.037c-0.078,0.058-0.095,0.168-0.037,0.246l3.433,4.662  C74.967,34.008,75.021,34.033,75.075,34.033z"/><path d="M75.075,34.033c0.077,0,0.147-0.05,0.169-0.128c0.026-0.093-0.027-0.19-0.121-0.217L64.17,30.559  c-0.095-0.027-0.191,0.026-0.217,0.121c-0.026,0.093,0.027,0.19,0.121,0.217l10.953,3.129  C75.043,34.031,75.058,34.033,75.075,34.033z"/><path d="M75.075,34.033c0.081,0,0.154-0.056,0.172-0.139l1.766-8.303c0.021-0.095-0.04-0.188-0.135-0.208  c-0.096-0.021-0.188,0.04-0.209,0.135l-1.766,8.303c-0.021,0.095,0.04,0.188,0.135,0.208C75.05,34.031,75.062,34.033,75.075,34.033z  "/><path d="M57.364,36.756c0.008,0,0.018-0.001,0.026-0.002l17.711-2.723c0.096-0.014,0.162-0.104,0.148-0.201  c-0.015-0.095-0.111-0.161-0.201-0.147l-17.711,2.723c-0.096,0.014-0.162,0.104-0.148,0.201  C57.203,36.693,57.278,36.756,57.364,36.756z"/><path d="M50.218,45.05c0.012,0,0.025-0.001,0.038-0.004l16.265-3.591c0.095-0.021,0.154-0.115,0.133-0.21  c-0.021-0.095-0.106-0.155-0.21-0.134L50.18,44.702c-0.095,0.021-0.154,0.115-0.133,0.21C50.064,44.994,50.137,45.05,50.218,45.05z"/><path d="M67.56,51.027c0.007,0,0.012-0.001,0.019-0.001c0.098-0.01,0.166-0.098,0.155-0.194l-1.076-9.569  c-0.011-0.096-0.102-0.161-0.194-0.155c-0.098,0.01-0.166,0.098-0.155,0.194l1.076,9.569C67.395,50.96,67.472,51.027,67.56,51.027z"/><path d="M67.56,51.027c0.036,0,0.071-0.01,0.102-0.033c0.08-0.056,0.098-0.166,0.041-0.245L57.507,36.477  c-0.056-0.08-0.168-0.099-0.245-0.041c-0.08,0.056-0.098,0.166-0.041,0.245l10.196,14.272C67.451,51.002,67.505,51.027,67.56,51.027  z"/><path d="M66.484,41.458c0.014,0,0.027-0.001,0.043-0.005l5.134-1.269c0.093-0.023,0.151-0.119,0.128-0.213  c-0.023-0.093-0.113-0.152-0.213-0.129l-5.134,1.269c-0.093,0.023-0.151,0.119-0.128,0.213  C66.333,41.405,66.404,41.458,66.484,41.458z"/><path d="M73.346,45.715c0.095,0,0.173-0.076,0.176-0.171c0.003-0.097-0.074-0.178-0.17-0.181l-23.128-0.665  c-0.003,0-0.004,0-0.005,0c-0.095,0-0.173,0.076-0.176,0.171c-0.003,0.097,0.074,0.178,0.17,0.181l23.128,0.665  C73.343,45.715,73.345,45.715,73.346,45.715z"/><path d="M51.33,59.606c0.019,0,0.038-0.003,0.058-0.01c0.092-0.032,0.14-0.132,0.109-0.224l-6.843-19.756  c-0.032-0.091-0.133-0.139-0.224-0.109c-0.092,0.032-0.14,0.132-0.109,0.224l6.843,19.756C51.188,59.561,51.257,59.606,51.33,59.606  z"/><path d="M52.152,32.408c0.036,0,0.071-0.011,0.103-0.033l13.275-9.532c0.078-0.057,0.096-0.166,0.04-0.245  c-0.056-0.08-0.166-0.098-0.246-0.041l-13.275,9.532c-0.078,0.057-0.096,0.166-0.04,0.245  C52.043,32.382,52.097,32.408,52.152,32.408z"/><path d="M52.152,32.408c0.007,0,0.015-0.001,0.022-0.001l11.97-1.504c0.096-0.012,0.165-0.1,0.153-0.196  c-0.012-0.096-0.1-0.166-0.196-0.153l-11.97,1.504c-0.096,0.012-0.165,0.1-0.153,0.196C51.988,32.343,52.064,32.408,52.152,32.408z"/><path d="M34.464,34.06c0.005,0,0.011,0,0.016-0.001l17.688-1.652c0.096-0.009,0.168-0.095,0.158-0.192  c-0.008-0.097-0.1-0.174-0.191-0.159l-17.688,1.652c-0.096,0.009-0.168,0.095-0.158,0.192C34.298,33.991,34.375,34.06,34.464,34.06z  "/><path d="M11.045,56.898c0.085,0,0.159-0.061,0.173-0.147l2.963-17.664c0.016-0.096-0.048-0.186-0.144-0.202  c-0.089-0.022-0.186,0.048-0.202,0.144l-2.963,17.664c-0.016,0.096,0.048,0.186,0.144,0.202  C11.026,56.897,11.035,56.898,11.045,56.898z"/><path d="M18.266,56.293c0.014,0,0.029-0.001,0.043-0.005c0.095-0.023,0.151-0.119,0.128-0.213l-4.258-17.059  c-0.022-0.094-0.122-0.157-0.213-0.128c-0.095,0.023-0.151,0.119-0.128,0.213l4.258,17.059  C18.115,56.24,18.188,56.293,18.266,56.293z"/><path d="M18.266,56.293c0.037,0,0.074-0.012,0.106-0.035c0.077-0.058,0.093-0.169,0.034-0.247L7.812,41.926  c-0.058-0.078-0.169-0.091-0.246-0.035c-0.077,0.058-0.093,0.169-0.034,0.247l10.594,14.085  C18.16,56.269,18.212,56.293,18.266,56.293z"/><path d="M39.989,60.816c0.081,0,0.155-0.057,0.172-0.14c0.021-0.095-0.041-0.188-0.136-0.208l-21.723-4.522  c-0.098-0.014-0.188,0.041-0.207,0.137c-0.021,0.095,0.041,0.188,0.136,0.208l21.723,4.522  C39.966,60.814,39.977,60.816,39.989,60.816z"/><path d="M38.755,67.392c0.027,0,0.056-0.006,0.082-0.021c0.085-0.045,0.118-0.151,0.073-0.237l-7.672-14.549  c-0.045-0.085-0.151-0.12-0.238-0.074c-0.085,0.045-0.118,0.151-0.073,0.237L38.6,67.298C38.632,67.358,38.692,67.392,38.755,67.392  z"/><path d="M38.755,67.392c0.062,0,0.122-0.033,0.155-0.092c0.045-0.085,0.014-0.192-0.071-0.238L18.35,55.963  c-0.082-0.046-0.19-0.016-0.239,0.071c-0.045,0.085-0.014,0.192,0.071,0.238l20.489,11.099  C38.698,67.385,38.727,67.392,38.755,67.392z"/><path d="M38.755,67.392c0.084,0,0.157-0.059,0.173-0.144l1.234-6.577c0.018-0.096-0.045-0.188-0.14-0.205  c-0.091-0.019-0.187,0.045-0.206,0.141l-1.234,6.577c-0.018,0.095,0.045,0.188,0.14,0.205  C38.733,67.391,38.744,67.392,38.755,67.392z"/><path d="M47.147,66.159c0.018,0,0.037-0.003,0.056-0.009c0.092-0.031,0.142-0.131,0.11-0.223l-4.426-13.178  c-0.03-0.092-0.124-0.143-0.223-0.111c-0.092,0.031-0.142,0.131-0.11,0.223l4.426,13.178C47.006,66.113,47.074,66.159,47.147,66.159  z"/><path d="M61.559,59.195c0.044,0,0.088-0.016,0.122-0.05c0.07-0.067,0.071-0.179,0.004-0.249l-7.255-7.447  c-0.067-0.067-0.179-0.071-0.249-0.003c-0.07,0.067-0.071,0.179-0.004,0.249l7.255,7.447C61.467,59.177,61.513,59.195,61.559,59.195  z"/><path d="M61.559,59.195c0.074,0,0.143-0.047,0.168-0.121c0.03-0.092-0.021-0.192-0.113-0.222l-18.838-6.214  c-0.093-0.03-0.192,0.021-0.223,0.112c-0.03,0.092,0.021,0.192,0.113,0.222l18.838,6.214C61.522,59.192,61.541,59.195,61.559,59.195  z"/><path d="M44.487,39.851c0.089,0,0.166-0.068,0.175-0.159l1.847-19.441c0.01-0.097-0.062-0.182-0.158-0.192  c-0.095-0.013-0.183,0.062-0.191,0.159l-1.847,19.441c-0.01,0.097,0.062,0.182,0.158,0.192  C44.476,39.851,44.481,39.851,44.487,39.851z"/><path d="M44.487,39.851c0.026,0,0.054-0.006,0.078-0.019c0.087-0.043,0.122-0.148,0.08-0.236l-5.49-11.051  c-0.045-0.086-0.153-0.12-0.236-0.079c-0.087,0.043-0.122,0.148-0.08,0.236l5.49,11.051C44.36,39.815,44.422,39.851,44.487,39.851z"/><path d="M52.152,32.408c0.077,0,0.148-0.052,0.169-0.129c0.026-0.094-0.029-0.19-0.122-0.216l-13.154-3.608  c-0.091-0.027-0.191,0.03-0.216,0.123c-0.026,0.094,0.029,0.19,0.122,0.216l13.154,3.608C52.12,32.406,52.137,32.408,52.152,32.408z  "/><path d="M38.997,28.8c0.062,0,0.121-0.032,0.154-0.09c0.047-0.085,0.016-0.192-0.067-0.239l-15.611-8.744  c-0.087-0.05-0.191-0.018-0.24,0.067c-0.047,0.085-0.016,0.192,0.067,0.239l15.611,8.744C38.938,28.793,38.968,28.8,38.997,28.8z"/><path d="M35.029,21.848c0.034,0,0.069-0.01,0.099-0.03l15.359-10.386c0.08-0.054,0.102-0.164,0.047-0.244  c-0.055-0.082-0.165-0.101-0.245-0.047L34.93,21.527c-0.08,0.054-0.102,0.164-0.047,0.244  C34.917,21.822,34.972,21.848,35.029,21.848z"/><path d="M32.076,14.935c0.011,0,0.022-0.001,0.033-0.003L50.42,11.46c0.095-0.019,0.158-0.111,0.14-0.206  c-0.018-0.096-0.11-0.162-0.206-0.14l-18.311,3.472c-0.095,0.019-0.158,0.111-0.14,0.206C31.919,14.876,31.993,14.935,32.076,14.935  z"/><path d="M58.838,17.301c0.007,0,0.014-0.001,0.021-0.001l11.232-1.292c0.096-0.011,0.165-0.098,0.154-0.194  c-0.011-0.098-0.104-0.168-0.195-0.155L58.817,16.95c-0.096,0.011-0.165,0.098-0.154,0.194  C58.673,17.235,58.75,17.301,58.838,17.301z"/><path d="M64.122,30.904c0.06,0,0.118-0.031,0.151-0.087c0.049-0.084,0.022-0.192-0.062-0.24L46.423,20.083  c-0.082-0.052-0.19-0.021-0.24,0.062c-0.049,0.084-0.022,0.192,0.062,0.24l17.788,10.494C64.06,30.896,64.091,30.904,64.122,30.904z  "/><path d="M44.487,39.851c0.014,0,0.027-0.001,0.041-0.005l12.877-3.095c0.095-0.023,0.153-0.117,0.129-0.212  c-0.023-0.094-0.122-0.153-0.212-0.13l-12.877,3.095c-0.095,0.023-0.153,0.117-0.129,0.212  C44.336,39.796,44.407,39.851,44.487,39.851z"/><path d="M42.721,52.981c0.047,0,0.093-0.019,0.128-0.055l7.497-7.931c0.067-0.071,0.063-0.182-0.007-0.249  c-0.071-0.066-0.183-0.064-0.249,0.007l-7.497,7.931c-0.067,0.071-0.063,0.182,0.007,0.249  C42.634,52.965,42.677,52.981,42.721,52.981z"/><path d="M38.175,48.444c0.093,0,0.172-0.074,0.176-0.168l0.822-19.644c0.004-0.098-0.071-0.179-0.169-0.183  c-0.001,0-0.004,0-0.007,0c-0.093,0-0.172,0.074-0.176,0.168L38,48.261c-0.004,0.098,0.071,0.179,0.169,0.183  C38.17,48.444,38.173,48.444,38.175,48.444z"/><path d="M39.989,60.816c0.008,0,0.016-0.001,0.026-0.002c0.096-0.014,0.162-0.103,0.148-0.199L38.35,48.243  c-0.014-0.096-0.091-0.164-0.201-0.148c-0.096,0.014-0.162,0.103-0.148,0.199l1.814,12.371  C39.829,60.752,39.903,60.816,39.989,60.816z"/><path d="M50.218,45.05c0.049,0,0.099-0.021,0.133-0.061l7.145-8.294c0.063-0.074,0.055-0.185-0.018-0.248  c-0.074-0.065-0.186-0.056-0.249,0.019l-7.145,8.294c-0.063,0.074-0.055,0.185,0.018,0.248C50.137,45.036,50.177,45.05,50.218,45.05  z"/><path d="M57.364,36.756c0.098,0,0.176-0.079,0.176-0.176V21.092c0-0.097-0.078-0.176-0.176-0.176c-0.098,0-0.176,0.079-0.176,0.176  V36.58C57.188,36.677,57.266,36.756,57.364,36.756z"/><path d="M52.152,32.408c0.004,0,0.01,0,0.015-0.001c0.096-0.008,0.168-0.093,0.161-0.19l-1.764-20.945  c-0.008-0.092-0.085-0.161-0.176-0.161c-0.004,0-0.01,0-0.015,0.001c-0.096,0.008-0.168,0.093-0.161,0.19l1.764,20.945  C51.984,32.338,52.061,32.408,52.152,32.408z"/><path d="M57.364,21.268c0.022,0,0.045-0.004,0.067-0.013l12.706-5.259c0.089-0.038,0.132-0.14,0.095-0.23  c-0.036-0.089-0.137-0.131-0.229-0.096l-12.706,5.259c-0.089,0.038-0.132,0.14-0.095,0.23  C57.229,21.227,57.295,21.268,57.364,21.268z"/><path d="M64.122,30.904c0.059,0,0.115-0.03,0.15-0.082l10.542-16.878c0.051-0.082,0.026-0.191-0.056-0.243  c-0.084-0.05-0.191-0.025-0.243,0.056L63.972,30.635c-0.051,0.082-0.026,0.191,0.056,0.243  C64.057,30.895,64.09,30.904,64.122,30.904z"/><path d="M21.66,38.482c0.041,0,0.084-0.014,0.117-0.045l9.571-8.541c0.073-0.065,0.08-0.176,0.015-0.248  c-0.065-0.073-0.176-0.081-0.249-0.014l-9.571,8.541c-0.073,0.065-0.08,0.176-0.014,0.248C21.564,38.462,21.612,38.482,21.66,38.482  z"/><path d="M21.316,45.756c0.048,0,0.096-0.02,0.132-0.059c0.065-0.072,0.058-0.183-0.015-0.248l-7.309-6.522  c-0.07-0.066-0.183-0.058-0.249,0.014c-0.065,0.072-0.058,0.183,0.015,0.248l7.309,6.522C21.233,45.742,21.275,45.756,21.316,45.756  z"/><text x="0" y="115" fill="#000000" font-size="5px" font-weight="bold" font-family="'Helvetica Neue', Helvetica, Arial-Unicode, Arial, Sans-serif">Created by Clockwise</text><text x="0" y="120" fill="#000000" font-size="5px" font-weight="bold" font-family="'Helvetica Neue', Helvetica, Arial-Unicode, Arial, Sans-serif">from the Noun Project</text></svg>