<svg xmlns="http://www.w3.org/2000/svg" data-name="Layer 1" viewBox="0 0 512 640" x="0px" y="0px"><title>a1</title><g data-name="Group"><path data-name="Path" d="M113.333,69.63a10.6,10.6,0,1,0-10.6,10.6A10.614,10.614,0,0,0,113.333,69.63Z"/><path data-name="Path" d="M78.688,113.8a44.856,44.856,0,0,0,47.96,0A19.682,19.682,0,0,0,107.381,98H97.955A19.682,19.682,0,0,0,78.688,113.8Z"/><path data-name="Path" d="M77.923,450h-8.6a17.289,17.289,0,0,0-16.774,13.438,40.248,40.248,0,0,0,42.144,0A17.289,17.289,0,0,0,77.923,450Z"/><path data-name="Path" d="M73.625,388.755a40.328,40.328,0,0,0-33.518,62.784,33.465,33.465,0,0,1,13.356-13.387,24.965,24.965,0,1,1,40.4.047,33.455,33.455,0,0,1,13.274,13.34,40.328,40.328,0,0,0-33.516-62.784Z"/><path data-name="Path" d="M82.647,423.532a8.966,8.966,0,1,0-8.965,8.966A8.977,8.977,0,0,0,82.647,423.532Z"/><path data-name="Path" d="M422.293,42.4a56.385,56.385,0,0,0-44.175,91.482,41.84,41.84,0,0,1,21.459-22.073,30.609,30.609,0,1,1,45.543.049,41.846,41.846,0,0,1,21.349,22.024A56.385,56.385,0,0,0,422.293,42.4Z"/><circle data-name="Path" cx="422.37" cy="91.403" r="14.609"/><path data-name="Path" d="M81.728,85.926a26.6,26.6,0,1,1,41.97.046,35.879,35.879,0,0,1,15.614,15.852,45.009,45.009,0,1,0-73.289,0A35.887,35.887,0,0,1,81.728,85.926Z"/><path data-name="Path" d="M391.247,145.835a56.265,56.265,0,0,0,62.093,0A25.721,25.721,0,0,0,428.022,124H416.564A25.721,25.721,0,0,0,391.247,145.835Z"/><path data-name="Path" d="M423.5,448H411.4a27.332,27.332,0,0,0-27.225,23.414,59.908,59.908,0,0,0,66.553,0A27.332,27.332,0,0,0,423.5,448Z"/><path data-name="Path" d="M433.416,413.37a15.883,15.883,0,1,0-15.883,15.882A15.9,15.9,0,0,0,433.416,413.37Z"/><path data-name="Path" d="M417.453,361.156a60.019,60.019,0,0,0-46.531,97.975,43.737,43.737,0,0,1,23.288-24.056,31.883,31.883,0,1,1,46.6.051,43.737,43.737,0,0,1,23.175,24,60.02,60.02,0,0,0-46.531-97.975Z"/><path data-name="Path" d="M229.637,146.769a82.709,82.709,0,0,0-61.054,138.558,55.577,55.577,0,0,1,34.9-36.33,39.848,39.848,0,1,1,52.465.053,55.577,55.577,0,0,1,34.744,36.277,82.709,82.709,0,0,0-61.054-138.558Z"/><path data-name="Path" d="M253.593,219.066a23.848,23.848,0,1,0-23.848,23.848A23.875,23.875,0,0,0,253.593,219.066Z"/><path data-name="Path" d="M237.707,262H221.568a39.37,39.37,0,0,0-39.15,35.458,82.492,82.492,0,0,0,94.438,0A39.37,39.37,0,0,0,237.707,262Z"/><path data-name="Path" d="M141.56,120.983l23.649,32.272a8,8,0,0,0,12.906-9.457l-23.65-32.272a8,8,0,1,0-12.9,9.457Z"/><path data-name="Path" d="M303.332,176.543a8,8,0,0,0,11.094,2.217l51.3-34.217a8,8,0,0,0,2.217-11.094h0a8,8,0,0,0-11.094-2.217l-51.3,34.217a8,8,0,0,0-2.216,11.094Z"/><path data-name="Path" d="M179.964,305.494h0a8,8,0,0,0-11.263,1.07L105.77,382.708a8,8,0,0,0,1.069,11.263h0A8,8,0,0,0,118.1,392.9l62.931-76.145A8,8,0,0,0,179.964,305.494Z"/><path data-name="Path" d="M371.553,370.965h0a8,8,0,0,0,.423-11.306L308.186,290.9a8,8,0,0,0-11.307-.424h0a8,8,0,0,0-.423,11.305l63.791,68.758A8,8,0,0,0,371.553,370.965Z"/></g><text x="0" y="527" fill="#000000" font-size="5px" font-weight="bold" font-family="'Helvetica Neue', Helvetica, Arial-Unicode, Arial, Sans-serif">Created by Lakshisha</text><text x="0" y="532" fill="#000000" font-size="5px" font-weight="bold" font-family="'Helvetica Neue', Helvetica, Arial-Unicode, Arial, Sans-serif">from the Noun Project</text></svg>