<svg xmlns="http://www.w3.org/2000/svg" xmlns:xlink="http://www.w3.org/1999/xlink" xml:space="preserve" version="1.1" style="shape-rendering:geometricPrecision;text-rendering:geometricPrecision;image-rendering:optimizeQuality;" viewBox="0 0 228 281.25" x="0px" y="0px" fill-rule="evenodd" clip-rule="evenodd"><defs><style type="text/css">
   
    .fil0 {fill:black;fill-rule:nonzero}
   
  </style></defs><g><path class="fil0" d="M35 6l14 13c8,8 8,21 0,29l1 3c9,-3 19,0 25,9l10 16c3,4 3,10 2,15l4 1c8,-9 22,-10 30,-1l14 13c8,8 8,20 0,28l3 5c8,-3 19,0 24,8l10 16c3,5 4,10 3,15l3 2c1,-1 1,-1 2,-2 7,-8 20,-8 29,0l13 13c19,19 -9,48 -29,30l-13 -14c-5,-5 -7,-12 -6,-19l-3 -1c-9,11 -26,10 -34,-2l-10 -16c-5,-8 -4,-18 3,-25l-3 -4c-7,2 -15,1 -21,-5l-13 -13c-6,-5 -8,-13 -6,-19l-4 -2c-8,11 -25,10 -33,-2l-10 -16c-5,-8 -4,-18 2,-24l-1 -4c-7,3 -15,1 -21,-4l-14 -14c-19,-18 10,-48 29,-29zm153 175l6 3c4,1 1,10 -4,9l-7 -3c0,3 1,6 3,9l14 13c10,10 26,-6 15,-16l-13 -13c-4,-4 -10,-4 -14,-2zm-34 -3c-5,-1 -1,-10 3,-9l9 4c0,-3 -1,-5 -2,-7l-10 -16c-3,-4 -8,-6 -12,-5l3 7c2,4 -6,9 -8,5l-3 -5c-1,3 -1,7 1,10l10 16c4,5 11,7 16,3l-7 -3zm-35 -57c-2,-4 7,-8 9,-4l3 6c1,-4 1,-9 -3,-12l-13 -14c-4,-3 -10,-4 -14,-1l6 2c4,2 0,11 -4,9l-7 -3c0,3 1,7 3,9l14 13c3,3 6,4 10,3l-4 -8zm-53 -28c-4,-2 0,-11 4,-9l8 3c0,-2 0,-4 -1,-6l-10 -16c-3,-4 -8,-6 -12,-5l3 7c2,4 -6,8 -8,4l-3 -5c-1,3 -1,7 1,10l10 16c3,6 10,7 16,4l-8 -3zm-34 -57c-2,-4 6,-8 8,-4l4 7c2,-4 1,-9 -2,-13l-14 -13c-10,-10 -25,5 -15,16l14 13c2,2 6,3 9,3l-4 -9z"/></g><text x="0" y="240" fill="#000000" font-size="5px" font-weight="bold" font-family="'Helvetica Neue', Helvetica, Arial-Unicode, Arial, Sans-serif">Created by ruliani</text><text x="0" y="245" fill="#000000" font-size="5px" font-weight="bold" font-family="'Helvetica Neue', Helvetica, Arial-Unicode, Arial, Sans-serif">from the Noun Project</text></svg>