<svg xmlns="http://www.w3.org/2000/svg" viewBox="0 0 24 24" fill="none" x="0px" y="0px"><path d="M0.439342 2.56067C-0.146449 1.97488 -0.146447 1.02513 0.439346 0.439338C1.02514 -0.146448 1.97488 -0.146446 2.56067 0.439342L9.00001 6.87868L15.4393 0.439342C16.0251 -0.146446 16.9749 -0.146448 17.5607 0.439338C18.1465 1.02513 18.1465 1.97488 17.5607 2.56067L11.1213 9L17.5607 15.4393C18.1465 16.0251 18.1465 16.9749 17.5607 17.5607C16.9749 18.1465 16.0251 18.1465 15.4393 17.5607L9.00001 11.1213L2.56067 17.5607C1.97488 18.1465 1.02514 18.1465 0.439346 17.5607C-0.146447 16.9749 -0.146449 16.0251 0.439342 15.4393L6.87867 9L0.439342 2.56067Z" transform="translate(3 3)" fill="black"/></svg>