<svg xmlns="http://www.w3.org/2000/svg" viewBox="0 0 64 80" x="0px" y="0px"><title>Anti-Terrorism</title><g data-name="Anti-Terrorism 10"><path d="M56,25H44V20a1,1,0,0,0-1-1H34.7L33,17.54V13h2v1a1,1,0,0,0,1,1h4a1,1,0,0,0,1-1V10a1,1,0,0,0-1-1H37V8a1,1,0,0,0-1-1H32a1,1,0,0,0-1,1v9.54L29.3,19H21a1,1,0,0,0-1,1v5H8a1,1,0,0,0-1,1V56a1,1,0,0,0,1,1H56a1,1,0,0,0,1-1V26A1,1,0,0,0,56,25ZM33,51H31V46a1,1,0,0,1,2,0Zm-1-8a3,3,0,0,0-3,3v5H28V31h8V51H35V46A3,3,0,0,0,32,43Zm-8,8V31h2V51ZM9,51V31H22V51ZM32,19.32,43.3,29H20.7ZM38,31h2V51H38Zm4,0H55V51H42Zm13-2H46.37L44,27H55ZM42,21v4h-.3L37,21ZM39,11v2H37V11Zm-4-1v1H33V9h2ZM22,21h5L22.3,25H22ZM9,27H20l-2.33,2H9ZM55,55H9V53H55Z"/><path d="M26,28H38a1,1,0,0,0,.94-.66,1,1,0,0,0-.3-1.11l-6-5a1,1,0,0,0-1.28,0l-6,5a1,1,0,0,0-.3,1.11A1,1,0,0,0,26,28Zm6-4.7L35.24,26H28.76Z"/><path d="M14,34H11a1,1,0,0,0-1,1v4a1,1,0,0,0,1,1h3a1,1,0,0,0,1-1V35A1,1,0,0,0,14,34Zm-1,4H12V36h1Z"/><path d="M14,42H11a1,1,0,0,0-1,1v4a1,1,0,0,0,1,1h3a1,1,0,0,0,1-1V43A1,1,0,0,0,14,42Zm-1,4H12V44h1Z"/><path d="M20,34H17a1,1,0,0,0-1,1v4a1,1,0,0,0,1,1h3a1,1,0,0,0,1-1V35A1,1,0,0,0,20,34Zm-1,4H18V36h1Z"/><path d="M35,35a1,1,0,0,0-1-1H30a1,1,0,0,0-1,1v4a1,1,0,0,0,1,1h4a1,1,0,0,0,1-1Zm-2,3H31V36h2Z"/><path d="M20,42H17a1,1,0,0,0-1,1v4a1,1,0,0,0,1,1h3a1,1,0,0,0,1-1V43A1,1,0,0,0,20,42Zm-1,4H18V44h1Z"/><path d="M47,34H44a1,1,0,0,0-1,1v4a1,1,0,0,0,1,1h3a1,1,0,0,0,1-1V35A1,1,0,0,0,47,34Zm-1,4H45V36h1Z"/><path d="M47,42H44a1,1,0,0,0-1,1v4a1,1,0,0,0,1,1h3a1,1,0,0,0,1-1V43A1,1,0,0,0,47,42Zm-1,4H45V44h1Z"/><path d="M53,34H50a1,1,0,0,0-1,1v4a1,1,0,0,0,1,1h3a1,1,0,0,0,1-1V35A1,1,0,0,0,53,34Zm-1,4H51V36h1Z"/><path d="M53,42H50a1,1,0,0,0-1,1v4a1,1,0,0,0,1,1h3a1,1,0,0,0,1-1V43A1,1,0,0,0,53,42Zm-1,4H51V44h1Z"/></g><text x="0" y="79" fill="#000000" font-size="5px" font-weight="bold" font-family="'Helvetica Neue', Helvetica, Arial-Unicode, Arial, Sans-serif">Created by Berkah Icon</text><text x="0" y="84" fill="#000000" font-size="5px" font-weight="bold" font-family="'Helvetica Neue', Helvetica, Arial-Unicode, Arial, Sans-serif">from the Noun Project</text></svg>