<svg xmlns:dc="http://purl.org/dc/elements/1.1/" xmlns:cc="http://creativecommons.org/ns#" xmlns:rdf="http://www.w3.org/1999/02/22-rdf-syntax-ns#" xmlns:svg="http://www.w3.org/2000/svg" xmlns="http://www.w3.org/2000/svg" xmlns:sodipodi="http://sodipodi.sourceforge.net/DTD/sodipodi-0.dtd" xmlns:inkscape="http://www.inkscape.org/namespaces/inkscape" viewBox="0 0 100 125" version="1.1" x="0px" y="0px"><title>Whitehouse</title><g transform="translate(0,-952.36216)"><path style="opacity:1;fill:#000000;fill-opacity:1;fill-rule:evenodd;stroke:none;stroke-width:2;stroke-linecap:butt;stroke-linejoin:miter;stroke-miterlimit:4;stroke-dasharray:none;stroke-dashoffset:12;stroke-opacity:1" d="m 49.760057,979.06233 -0.02344,2.91609 -0.02539,2.91998 -2.253922,0.91408 c -1.240667,0.50283 -3.780765,1.53105 -5.644568,2.28521 l -3.388694,1.37113 -1.962902,0 c -2.567378,0 -2.561007,-0.003 -2.664081,1.25198 l -0.05469,0.66407 -0.857428,0.35939 c -1.472268,0.61559 -1.561798,0.65823 -1.73048,0.83986 -0.238042,0.25629 -0.217038,0.80204 0.03906,1.02737 0.11166,0.0982 0.478171,0.43563 0.814459,0.75001 l 0.611333,0.57228 -0.02539,1.27347 -0.01953,0.97267 -0.0957,0.0938 c -0.203578,0.20252 -0.301477,0.2247 -0.847663,0.23633 -0.103595,0.003 -0.206952,0.008 -0.310549,0.0117 l -0.320312,0.004 -0.0098,-0.17187 -0.0039,-0.79885 c -0.0043,-1.4693 -0.01196,-1.47464 -2.287124,-1.47464 -1.634994,0 -1.676006,0.005 -1.92384,0.21875 -0.244797,0.21105 -0.253707,0.25136 -0.283205,1.22073 l -0.0293,1.00393 -10.3321,0.0234 -10.3301445,0.0234 -0.2187515,0.25392 c -0.2903982,0.33867 -0.2873449,0.78095 0.00781,1.13283 0.2080045,0.24798 0.2265639,0.33932 0.2265639,1.18169 l 0,0.9121 -0.3085957,0.1309 c -0.6416129,0.269 -0.676818,0.8201 -0.097657,1.5332 l 0.4062527,0.5 0,9.2932 0,8.176 c -0.0011,0.091 -0.018243,0.3717 -0.039062,0.623 3.086e-4,0.3993 -0.2750406,0.7139 -0.5039096,1.0274 -0.082801,0.1811 -0.1459972,0.4028 -0.1757824,0.752 -0.05051,0.5921 0.00622,1.3058 0.1250008,1.582 0.06551,0.1523 0.2563855,0.3342 0.3867213,0.3692 0.2915569,10e-5 0.5832197,-6e-4 0.8437555,-0 l 12.3028134,0.096 13.045007,0.045 0,-0.4317 0,-0.4297 -12.902427,0 -12.9024276,0 0,-1.5996 22.0118616,-0.068 c 12.106668,-0.036 31.882233,-0.036 43.945598,0 l 21.931784,0.068 -0.02539,0.7774 -0.02539,0.7773 -12.83602,0.025 -12.834068,0.022 0.0059,0.5215 c 0.0039,0.2861 0.0277,0.4685 0.05273,0.4062 0.03611,-0.09 2.710479,-0.1132 12.949303,-0.1132 11.979287,0 12.923263,-0.01 13.164149,-0.1524 0.347388,-0.2058 0.445315,-0.5356 0.445315,-1.4942 0,-0.8249 -0.119541,-1.2827 -0.392581,-1.5098 -0.137186,-0.1142 -0.148439,-0.8856 -0.148439,-9.508 l 0,-9.3869 0.265627,-0.2539 c 0.352091,-0.3383 0.542407,-0.7607 0.482425,-1.0704 -0.05026,-0.2595 -0.408753,-0.6093 -0.625004,-0.6093 -0.19578,0 -0.17591,-2.01544 0.02148,-2.17978 0.241705,-0.20122 0.321565,-0.53098 0.210938,-0.86721 -0.200233,-0.60862 0.460846,-0.57423 -10.863351,-0.57423 l -10.246161,0 0,-0.90041 c 0,-0.9886 -0.08768,-1.28957 -0.419925,-1.44144 -0.135685,-0.062 -0.854525,-0.10156 -1.878918,-0.10156 -1.624238,0 -1.666364,0.005 -1.914074,0.21875 -0.244826,0.21107 -0.253665,0.2521 -0.283206,1.22269 l -0.03125,1.00197 -0.619144,0 c -0.543473,0 -0.648135,-0.0284 -0.849616,-0.23047 -0.222382,-0.22312 -0.22801,-0.26538 -0.22461,-1.37894 l 0.002,-1.15041 0.544925,-0.45314 c 0.984765,-0.81902 1.072273,-0.91763 1.072273,-1.20901 0,-0.45168 -0.315881,-0.69103 -1.623057,-1.22268 l -1.218758,-0.49415 -0.04492,-0.74026 c -0.04092,-0.67074 -0.06919,-0.75916 -0.29883,-0.95705 -0.251305,-0.21672 -0.268141,-0.21872 -2.300796,-0.22071 l -2.04689,-0.002 -1.398446,-0.57423 c -7.101251,-2.91833 -9.452997,-3.8896 -9.587953,-3.96102 -0.137483,-0.0727 -0.156251,-0.23062 -0.156251,-1.21292 l 0,-1.12698 0.324221,0 c 0.178461,0 0.551265,-0.0677 0.82813,-0.14844 0.627787,-0.18306 1.234361,-0.12601 1.984388,0.17969 0.307644,0.12537 0.57976,0.19488 0.60352,0.15626 0.04086,-0.0663 -0.07951,-1.44132 -0.179689,-2.05474 -0.05836,-0.3574 -0.175609,-0.39096 -1.714854,-0.47462 -1.47368,-0.08 -1.787001,-0.21625 -1.830091,-0.80666 -0.02442,-0.33456 -0.05325,-0.38086 -0.246095,-0.38086 z m -0.01563,7.74822 8.628962,3.25984 8.627014,3.25984 -17.00011,-0.0234 -17.000111,-0.0254 8.371148,-3.23445 z m -15.707134,7.57634 31.925989,0 c 0.02061,0 0.03711,0.0165 0.03711,0.0371 l 0,2.34576 c 0,0.0207 -0.0165,0.0371 -0.03711,0.0371 l -31.925989,0 c -0.0206,0 -0.0371,-0.0164 -0.0371,-0.0371 l 0,-2.34576 c 0,-0.0207 0.01651,-0.0371 0.0371,-0.0371 z m -6.837935,1.50394 1.443369,0 1.445322,0 0,1.22269 0,1.22268 c 0.516903,-0.0177 1.038375,-0.009 1.5879,-0.0176 0.242255,-0.0183 0.587184,-0.0693 0.759771,-0.11328 0.272765,-0.0695 0.459851,-0.16066 0.619145,-0.27931 0.198185,-0.0282 0.09702,-0.0179 0.333987,-0.0508 0,-0.0241 10.095512,-0.16892 18.308713,-0.16992 14.81563,-0.003 14.934302,-0.001 15.113379,0.17773 0.283548,0.29987 1.085189,0.56932 2.886738,0.45314 l 0,-1.22268 0,-1.22269 1.443368,0 1.443368,0 0,1.22269 0,1.22268 10.55671,0 c 5.806328,0 10.558663,0.0306 10.558663,0.0684 0,0.0378 -0.08239,0.11749 -0.181643,0.17969 -0.165408,0.10363 -0.179688,0.21124 -0.179688,1.28909 l 0,1.17776 -13.400478,0 -13.398525,0 0,0.4512 0,0.4531 13.779387,0 13.779386,0 -0.380861,0.3867 -0.378909,0.3887 -0.02344,9.8186 -0.02148,9.8166 -86.7407985,0.045 -0.00781,-0.211 -0.00586,-0.2129 -0.00195,0 0,-9.3693 0,-9.7952 -0.425786,-0.4336 -0.4238309,-0.4316 13.8692315,0 13.86923,0 0,-0.4766 0,-0.4746 -13.443447,0.021 -13.4453996,0.023 0,-1.10354 c 0,-1.0752 -0.00614,-1.11226 -0.242189,-1.3594 l -0.2421891,-0.25196 10.5742877,0 10.572334,0 0,-1.22269 z"/><path style="opacity:1;fill:#000000;fill-opacity:1;fill-rule:evenodd;stroke:none;stroke-width:2;stroke-linecap:butt;stroke-linejoin:miter;stroke-miterlimit:4;stroke-dasharray:none;stroke-dashoffset:12;stroke-opacity:1" d="m 9.4389966,1004.9579 c -0.027477,0 -0.049591,0.022 -0.049591,0.05 l 0,4.4624 -0.4556961,0 c -0.027477,0 -0.049591,0.022 -0.049591,0.05 l 0,1.0525 c 0,0.028 0.022114,0.05 0.049591,0.05 l 0.5052868,0 3.0588614,0 0.505286,0 c 0.02748,0 0.04959,-0.022 0.04959,-0.05 l 0,-1.0525 c 0,-0.027 -0.02211,-0.05 -0.04959,-0.05 l -0.455695,0 0,-4.4624 c 0,-0.028 -0.02211,-0.05 -0.04959,-0.05 l -3.0588614,0 z"/><path d="m 16.265822,1004.9579 c -0.02748,0 -0.04959,0.022 -0.04959,0.05 l 0,4.4624 -0.455696,0 c -0.02748,0 -0.04959,0.022 -0.04959,0.05 l 0,1.0524 c 0,0.028 0.02211,0.05 0.04959,0.05 l 0.505287,0 3.05886,0 0.505287,0 c 0.02748,0 0.04959,-0.022 0.04959,-0.05 l 0,-1.0524 c 0,-0.028 -0.02211,-0.05 -0.04959,-0.05 l -0.455695,0 0,-4.4624 c 0,-0.028 -0.02211,-0.05 -0.04959,-0.05 l -3.05886,0 z" style="opacity:1;fill:#000000;fill-opacity:1;fill-rule:evenodd;stroke:none;stroke-width:2;stroke-linecap:butt;stroke-linejoin:miter;stroke-miterlimit:4;stroke-dasharray:none;stroke-dashoffset:12;stroke-opacity:1"/><path d="m 22.672924,1004.9579 c -0.02748,0 -0.04959,0.022 -0.04959,0.05 l 0,4.4623 -0.455697,0 c -0.02748,0 -0.04959,0.022 -0.04959,0.05 l 0,1.0525 c 0,0.028 0.02211,0.05 0.04959,0.05 l 0.505287,0 3.05886,0 0.505287,0 c 0.02748,0 0.04959,-0.022 0.04959,-0.05 l 0,-1.0525 c 0,-0.028 -0.02211,-0.05 -0.04959,-0.05 l -0.455695,0 0,-4.4623 c 0,-0.028 -0.02211,-0.05 -0.04959,-0.05 l -3.05886,0 z" style="opacity:1;fill:#000000;fill-opacity:1;fill-rule:evenodd;stroke:none;stroke-width:2;stroke-linecap:butt;stroke-linejoin:miter;stroke-miterlimit:4;stroke-dasharray:none;stroke-dashoffset:12;stroke-opacity:1"/><path style="opacity:1;fill:#000000;fill-opacity:1;fill-rule:evenodd;stroke:none;stroke-width:2;stroke-linecap:butt;stroke-linejoin:miter;stroke-miterlimit:4;stroke-dasharray:none;stroke-dashoffset:12;stroke-opacity:1" d="m 29.499749,1004.9579 c -0.02748,0 -0.04959,0.022 -0.04959,0.05 l 0,4.4624 -0.455696,0 c -0.02748,0 -0.04959,0.022 -0.04959,0.049 l 0,1.0525 c 0,0.028 0.02211,0.05 0.04959,0.05 l 0.505287,0 3.05886,0 0.505287,0 c 0.02748,0 0.04959,-0.022 0.04959,-0.05 l 0,-1.0525 c 0,-0.027 -0.02211,-0.049 -0.04959,-0.049 l -0.455695,0 0,-4.4624 c 0,-0.028 -0.02211,-0.05 -0.04959,-0.05 l -3.05886,0 z"/><path d="m 38.176835,1004.9579 c -0.02748,0 -0.04959,0.022 -0.04959,0.05 l 0,4.4624 -0.455696,0 c -0.02748,0 -0.04959,0.022 -0.04959,0.049 l 0,1.0525 c 0,0.028 0.02211,0.05 0.04959,0.05 l 0.505287,0 3.058862,0 0.505286,0 c 0.02748,0 0.04959,-0.022 0.04959,-0.05 l 0,-1.0525 c 0,-0.027 -0.02211,-0.049 -0.04959,-0.049 l -0.455695,0 0,-4.4624 c 0,-0.028 -0.02211,-0.05 -0.04959,-0.05 l -3.058862,0 z" style="opacity:1;fill:#000000;fill-opacity:1;fill-rule:evenodd;stroke:none;stroke-width:2;stroke-linecap:butt;stroke-linejoin:miter;stroke-miterlimit:4;stroke-dasharray:none;stroke-dashoffset:12;stroke-opacity:1"/><path style="opacity:1;fill:#000000;fill-opacity:1;fill-rule:evenodd;stroke:none;stroke-width:2;stroke-linecap:butt;stroke-linejoin:miter;stroke-miterlimit:4;stroke-dasharray:none;stroke-dashoffset:12;stroke-opacity:1" d="m 48.576578,1004.8939 c -0.02748,0 -0.04959,0.022 -0.04959,0.05 l 0,4.4624 -0.455696,0 c -0.02748,0 -0.04959,0.022 -0.04959,0.049 l 0,1.0525 c 0,0.028 0.02211,0.05 0.04959,0.05 l 0.505286,0 3.058862,0 0.505286,0 c 0.02748,0 0.04959,-0.022 0.04959,-0.05 l 0,-1.0525 c 0,-0.027 -0.02211,-0.049 -0.04959,-0.049 l -0.455695,0 0,-4.4624 c 0,-0.028 -0.02211,-0.05 -0.04959,-0.05 l -3.058862,0 z"/><path d="m 58.593508,1004.8939 c -0.02748,0 -0.04959,0.022 -0.04959,0.05 l 0,4.4624 -0.455696,0 c -0.02748,0 -0.04959,0.022 -0.04959,0.049 l 0,1.0525 c 0,0.028 0.02211,0.05 0.04959,0.05 l 0.505286,0 3.058862,0 0.505287,0 c 0.02748,0 0.04959,-0.022 0.04959,-0.05 l 0,-1.0525 c 0,-0.027 -0.02211,-0.049 -0.04959,-0.049 l -0.455695,0 0,-4.4624 c 0,-0.028 -0.02211,-0.05 -0.04959,-0.05 l -3.058862,0 z" style="opacity:1;fill:#000000;fill-opacity:1;fill-rule:evenodd;stroke:none;stroke-width:2;stroke-linecap:butt;stroke-linejoin:miter;stroke-miterlimit:4;stroke-dasharray:none;stroke-dashoffset:12;stroke-opacity:1"/><path style="opacity:1;fill:#000000;fill-opacity:1;fill-rule:evenodd;stroke:none;stroke-width:2;stroke-linecap:butt;stroke-linejoin:miter;stroke-miterlimit:4;stroke-dasharray:none;stroke-dashoffset:12;stroke-opacity:1" d="m 15.381175,1013.3558 c -0.02725,0 -0.0491,0.022 -0.0491,0.049 l 0,7.5176 c 0,0.027 0.02185,0.049 0.0491,0.049 l 4.240167,0 c 0.02725,0 0.04922,-0.022 0.04922,-0.049 l 0,-7.5176 c 0,-0.027 -0.02197,-0.049 -0.04922,-0.049 l -4.240167,0 z m 0.999842,0.96 2.28625,0 c 0.02061,0 0.03726,0.017 0.03726,0.037 l 0,5.6854 c 0,0.021 -0.01665,0.037 -0.03726,0.037 l -2.28625,0 c -0.02061,0 -0.03726,-0.017 -0.03726,-0.037 l 0,-5.6854 c 0,-0.021 0.01665,-0.037 0.03726,-0.037 z"/><path d="m 8.7457569,1013.3558 c -0.027248,0 -0.049097,0.022 -0.049097,0.049 l 0,7.5176 c 0,0.027 0.021849,0.049 0.049097,0.049 l 4.2401661,0 c 0.02725,0 0.04922,-0.022 0.04922,-0.049 l 0,-7.5176 c 0,-0.027 -0.02197,-0.049 -0.04922,-0.049 l -4.2401661,0 z m 0.9998415,0.96 2.2862496,0 c 0.02061,0 0.03726,0.017 0.03726,0.037 l 0,5.6854 c 0,0.021 -0.01665,0.037 -0.03726,0.037 l -2.2862496,0 c -0.020608,0 -0.037255,-0.017 -0.037255,-0.037 l 0,-5.6854 c 0,-0.021 0.016647,-0.037 0.037255,-0.037 z" style="opacity:1;fill:#000000;fill-opacity:1;fill-rule:evenodd;stroke:none;stroke-width:2;stroke-linecap:butt;stroke-linejoin:miter;stroke-miterlimit:4;stroke-dasharray:none;stroke-dashoffset:12;stroke-opacity:1"/><path style="opacity:1;fill:#000000;fill-opacity:1;fill-rule:evenodd;stroke:none;stroke-width:2;stroke-linecap:butt;stroke-linejoin:miter;stroke-miterlimit:4;stroke-dasharray:none;stroke-dashoffset:12;stroke-opacity:1" d="m 21.952792,1013.3558 c -0.02725,0 -0.0491,0.022 -0.0491,0.049 l 0,7.5176 c 0,0.027 0.02185,0.049 0.0491,0.049 l 4.240166,0 c 0.02725,0 0.04922,-0.022 0.04922,-0.049 l 0,-7.5176 c 0,-0.027 -0.02197,-0.049 -0.04922,-0.049 l -4.240166,0 z m 0.999842,0.96 2.28625,0 c 0.02061,0 0.03726,0.017 0.03726,0.037 l 0,5.6854 c 0,0.021 -0.01665,0.037 -0.03726,0.037 l -2.28625,0 c -0.02061,0 -0.03726,-0.017 -0.03726,-0.037 l 0,-5.6854 c 0,-0.021 0.01665,-0.037 0.03726,-0.037 z"/><path d="m 28.652013,1013.3558 c -0.02725,0 -0.0491,0.022 -0.0491,0.049 l 0,7.5176 c 0,0.027 0.02185,0.049 0.0491,0.049 l 4.240166,0 c 0.02725,0 0.04922,-0.022 0.04922,-0.049 l 0,-7.5176 c 0,-0.027 -0.02197,-0.049 -0.04922,-0.049 l -4.240166,0 z m 0.999842,0.96 2.28625,0 c 0.02061,0 0.03725,0.017 0.03725,0.037 l 0,5.6854 c 0,0.021 -0.01665,0.037 -0.03725,0.037 l -2.28625,0 c -0.02061,0 -0.03726,-0.017 -0.03726,-0.037 l 0,-5.6854 c 0,-0.021 0.01665,-0.037 0.03726,-0.037 z" style="opacity:1;fill:#000000;fill-opacity:1;fill-rule:evenodd;stroke:none;stroke-width:2;stroke-linecap:butt;stroke-linejoin:miter;stroke-miterlimit:4;stroke-dasharray:none;stroke-dashoffset:12;stroke-opacity:1"/><path d="m 37.316749,1013.3558 c -0.02725,0 -0.0491,0.022 -0.0491,0.049 l 0,7.5175 c 0,0.027 0.02185,0.049 0.0491,0.049 l 4.240167,0 c 0.02725,0 0.04922,-0.022 0.04922,-0.049 l 0,-7.5175 c 0,-0.027 -0.02197,-0.049 -0.04922,-0.049 l -4.240167,0 z m 0.999842,0.96 2.28625,0 c 0.02061,0 0.03726,0.016 0.03726,0.037 l 0,5.6854 c 0,0.021 -0.01665,0.037 -0.03726,0.037 l -2.28625,0 c -0.02061,0 -0.03725,-0.017 -0.03725,-0.037 l 0,-5.6854 c 0,-0.021 0.01665,-0.037 0.03725,-0.037 z" style="opacity:1;fill:#000000;fill-opacity:1;fill-rule:evenodd;stroke:none;stroke-width:2;stroke-linecap:butt;stroke-linejoin:miter;stroke-miterlimit:4;stroke-dasharray:none;stroke-dashoffset:12;stroke-opacity:1"/><path style="opacity:1;fill:#000000;fill-opacity:1;fill-rule:evenodd;stroke:none;stroke-width:2;stroke-linecap:butt;stroke-linejoin:miter;stroke-miterlimit:4;stroke-dasharray:none;stroke-dashoffset:12;stroke-opacity:1" d="m 57.852241,1013.3558 c -0.02725,0 -0.0491,0.022 -0.0491,0.049 l 0,7.5175 c 0,0.027 0.02185,0.049 0.0491,0.049 l 4.240139,0 c 0.02725,0 0.04922,-0.022 0.04922,-0.049 l 0,-7.5175 c 0,-0.027 -0.02197,-0.049 -0.04922,-0.049 l -4.240139,0 z m 0.999835,0.96 2.286235,0 c 0.02061,0 0.03726,0.016 0.03726,0.037 l 0,5.6854 c 0,0.021 -0.01665,0.037 -0.03726,0.037 l -2.286235,0 c -0.02061,0 -0.03726,-0.017 -0.03726,-0.037 l 0,-5.6854 c 0,-0.021 0.01665,-0.037 0.03726,-0.037 z"/><path d="m 67.555716,1004.9579 c -0.02748,0 -0.04959,0.022 -0.04959,0.05 l 0,4.4624 -0.455696,0 c -0.02748,0 -0.04959,0.022 -0.04959,0.05 l 0,1.0524 c 0,0.028 0.02211,0.05 0.04959,0.05 l 0.505287,0 3.058861,0 0.505286,0 c 0.02748,0 0.04959,-0.022 0.04959,-0.05 l 0,-1.0524 c 0,-0.028 -0.02211,-0.05 -0.04959,-0.05 l -0.455695,0 0,-4.4624 c 0,-0.028 -0.02211,-0.05 -0.04959,-0.05 l -3.058861,0 z" style="opacity:1;fill:#000000;fill-opacity:1;fill-rule:evenodd;stroke:none;stroke-width:2;stroke-linecap:butt;stroke-linejoin:miter;stroke-miterlimit:4;stroke-dasharray:none;stroke-dashoffset:12;stroke-opacity:1"/><path style="opacity:1;fill:#000000;fill-opacity:1;fill-rule:evenodd;stroke:none;stroke-width:2;stroke-linecap:butt;stroke-linejoin:miter;stroke-miterlimit:4;stroke-dasharray:none;stroke-dashoffset:12;stroke-opacity:1" d="m 74.382541,1004.9579 c -0.02748,0 -0.04959,0.022 -0.04959,0.05 l 0,4.4624 -0.455696,0 c -0.02748,0 -0.04959,0.022 -0.04959,0.05 l 0,1.0525 c 0,0.027 0.02211,0.05 0.04959,0.05 l 0.505287,0 3.05886,0 0.505287,0 c 0.02748,0 0.04959,-0.022 0.04959,-0.05 l 0,-1.0525 c 0,-0.028 -0.02211,-0.05 -0.04959,-0.05 l -0.455695,0 0,-4.4624 c 0,-0.028 -0.02211,-0.05 -0.04959,-0.05 l -3.05886,0 z"/><path style="opacity:1;fill:#000000;fill-opacity:1;fill-rule:evenodd;stroke:none;stroke-width:2;stroke-linecap:butt;stroke-linejoin:miter;stroke-miterlimit:4;stroke-dasharray:none;stroke-dashoffset:12;stroke-opacity:1" d="m 80.789643,1004.9579 c -0.02748,0 -0.04959,0.022 -0.04959,0.05 l 0,4.4624 -0.455696,0 c -0.02748,0 -0.04959,0.022 -0.04959,0.05 l 0,1.0524 c 0,0.028 0.02211,0.05 0.04959,0.05 l 0.505287,0 3.058861,0 0.505286,0 c 0.02748,0 0.04959,-0.022 0.04959,-0.05 l 0,-1.0524 c 0,-0.028 -0.02211,-0.05 -0.04959,-0.05 l -0.455695,0 0,-4.4624 c 0,-0.028 -0.02211,-0.05 -0.04959,-0.05 l -3.058861,0 z"/><path d="m 87.616468,1004.9579 c -0.02748,0 -0.04959,0.022 -0.04959,0.05 l 0,4.4624 -0.455696,0 c -0.02748,0 -0.04959,0.022 -0.04959,0.05 l 0,1.0525 c 0,0.027 0.02211,0.05 0.04959,0.05 l 0.505287,0 3.05886,0 0.505287,0 c 0.02748,0 0.04959,-0.022 0.04959,-0.05 l 0,-1.0525 c 0,-0.028 -0.02211,-0.05 -0.04959,-0.05 l -0.455695,0 0,-4.4624 c 0,-0.028 -0.02211,-0.05 -0.04959,-0.05 l -3.05886,0 z" style="opacity:1;fill:#000000;fill-opacity:1;fill-rule:evenodd;stroke:none;stroke-width:2;stroke-linecap:butt;stroke-linejoin:miter;stroke-miterlimit:4;stroke-dasharray:none;stroke-dashoffset:12;stroke-opacity:1"/><path d="m 73.700003,1013.3558 c -0.02725,0 -0.0491,0.022 -0.0491,0.049 l 0,7.5175 c 0,0.027 0.02185,0.049 0.0491,0.049 l 4.240167,0 c 0.02725,0 0.04922,-0.022 0.04922,-0.049 l 0,-7.5175 c 0,-0.027 -0.02197,-0.049 -0.04922,-0.049 l -4.240167,0 z m 0.999842,0.96 2.28625,0 c 0.02061,0 0.03725,0.017 0.03725,0.037 l 0,5.6855 c 0,0.021 -0.01665,0.037 -0.03725,0.037 l -2.28625,0 c -0.02061,0 -0.03726,-0.017 -0.03726,-0.037 l 0,-5.6855 c 0,-0.021 0.01665,-0.037 0.03726,-0.037 z" style="opacity:1;fill:#000000;fill-opacity:1;fill-rule:evenodd;stroke:none;stroke-width:2;stroke-linecap:butt;stroke-linejoin:miter;stroke-miterlimit:4;stroke-dasharray:none;stroke-dashoffset:12;stroke-opacity:1"/><path style="opacity:1;fill:#000000;fill-opacity:1;fill-rule:evenodd;stroke:none;stroke-width:2;stroke-linecap:butt;stroke-linejoin:miter;stroke-miterlimit:4;stroke-dasharray:none;stroke-dashoffset:12;stroke-opacity:1" d="m 67.064585,1013.3558 c -0.02725,0 -0.0491,0.022 -0.0491,0.049 l 0,7.5175 c 0,0.027 0.02185,0.049 0.0491,0.049 l 4.240166,0 c 0.02725,0 0.04922,-0.022 0.04922,-0.049 l 0,-7.5175 c 0,-0.027 -0.02197,-0.049 -0.04922,-0.049 l -4.240166,0 z m 0.999841,0.96 2.28625,0 c 0.02061,0 0.03726,0.017 0.03726,0.037 l 0,5.6855 c 0,0.021 -0.01665,0.037 -0.03726,0.037 l -2.28625,0 c -0.02061,0 -0.03726,-0.017 -0.03726,-0.037 l 0,-5.6855 c 0,-0.021 0.01665,-0.037 0.03726,-0.037 z"/><path d="m 80.27162,1013.3558 c -0.02725,0 -0.0491,0.022 -0.0491,0.049 l 0,7.5175 c 0,0.027 0.02185,0.049 0.0491,0.049 l 4.240166,0 c 0.02725,0 0.04922,-0.022 0.04922,-0.049 l 0,-7.5175 c 0,-0.027 -0.02197,-0.049 -0.04922,-0.049 l -4.240166,0 z m 0.999842,0.96 2.28625,0 c 0.02061,0 0.03726,0.017 0.03726,0.037 l 0,5.6855 c 0,0.021 -0.01665,0.037 -0.03726,0.037 l -2.28625,0 c -0.02061,0 -0.03726,-0.017 -0.03726,-0.037 l 0,-5.6855 c 0,-0.021 0.01665,-0.037 0.03726,-0.037 z" style="opacity:1;fill:#000000;fill-opacity:1;fill-rule:evenodd;stroke:none;stroke-width:2;stroke-linecap:butt;stroke-linejoin:miter;stroke-miterlimit:4;stroke-dasharray:none;stroke-dashoffset:12;stroke-opacity:1"/><path style="opacity:1;fill:#000000;fill-opacity:1;fill-rule:evenodd;stroke:none;stroke-width:2;stroke-linecap:butt;stroke-linejoin:miter;stroke-miterlimit:4;stroke-dasharray:none;stroke-dashoffset:12;stroke-opacity:1" d="m 86.970841,1013.3558 c -0.02725,0 -0.0491,0.022 -0.0491,0.049 l 0,7.5175 c 0,0.027 0.02185,0.049 0.0491,0.049 l 4.240166,0 c 0.02725,0 0.04922,-0.022 0.04922,-0.049 l 0,-7.5175 c 0,-0.027 -0.02197,-0.049 -0.04922,-0.049 l -4.240166,0 z m 0.999842,0.96 2.28625,0 c 0.02061,0 0.03726,0.017 0.03726,0.037 l 0,5.6855 c 0,0.021 -0.01665,0.037 -0.03726,0.037 l -2.28625,0 c -0.02061,0 -0.03726,-0.017 -0.03726,-0.037 l 0,-5.6855 c 0,-0.021 0.01665,-0.037 0.03726,-0.037 z"/><rect style="opacity:1;fill:#000000;fill-opacity:1;fill-rule:evenodd;stroke:none;stroke-width:2;stroke-linecap:butt;stroke-linejoin:miter;stroke-miterlimit:4;stroke-dasharray:none;stroke-dashoffset:12;stroke-opacity:1" width="3.8347669" height="7.6999998" x="48.149345" y="1014.2696" ry="0.037127707"/><path style="opacity:1;fill:#000000;fill-opacity:1;fill-rule:evenodd;stroke:none;stroke-width:2;stroke-linecap:butt;stroke-linejoin:miter;stroke-miterlimit:4;stroke-dasharray:none;stroke-dashoffset:12;stroke-opacity:1" d="m 48.307084,1013.4591 c 8.78e-4,-0.1639 0.273733,-0.5541 0.515639,-0.7372 0.321539,-0.2436 0.647406,-0.3641 1.062959,-0.3931 0.575831,-0.04 1.089106,0.1374 1.493307,0.5166 0.199372,0.1872 0.401519,0.509 0.401519,0.6394 0,0.04 -0.428872,0.053 -1.736923,0.053 -1.624299,0 -1.736897,-0.01 -1.736501,-0.079 z"/><path style="opacity:1;fill:#000000;fill-opacity:1;fill-rule:evenodd;stroke:none;stroke-width:2;stroke-linecap:butt;stroke-linejoin:miter;stroke-miterlimit:4;stroke-dasharray:none;stroke-dashoffset:12;stroke-opacity:1" d="m 43.316163,998.13305 c -0.238587,0 -0.430654,0.19266 -0.430654,0.43198 0,0.23935 0.192067,0.432 0.430654,0.432 l 0.239198,0 0,22.52837 -0.887953,0 c -0.02061,0 -0.03713,0.017 -0.03713,0.037 l 0,0.8215 c 0,0.021 0.01652,0.037 0.03713,0.037 l 4.359949,0 c 0.02061,0 0.03713,-0.016 0.03713,-0.037 l 0,-0.8215 c 0,-0.021 -0.01652,-0.037 -0.03713,-0.037 l -0.945562,0 0,-22.52837 0.264981,0 c 0.238586,0 0.430653,-0.19265 0.430653,-0.432 0,-0.23932 -0.192067,-0.43198 -0.430653,-0.43198 l -3.030613,0 z"/><path d="m 53.702606,998.13305 c -0.238588,0 -0.430653,0.19266 -0.430653,0.43198 0,0.23935 0.192065,0.432 0.430653,0.432 l 0.239197,0 0,22.52837 -0.887953,0 c -0.02061,0 -0.03713,0.017 -0.03713,0.037 l 0,0.8215 c 0,0.021 0.01652,0.037 0.03713,0.037 l 4.359951,0 c 0.02061,0 0.03713,-0.016 0.03713,-0.037 l 0,-0.8215 c 0,-0.021 -0.01652,-0.037 -0.03713,-0.037 l -0.945563,0 0,-22.52837 0.264979,0 c 0.238588,0 0.430654,-0.19265 0.430654,-0.432 0,-0.23932 -0.192066,-0.43198 -0.430654,-0.43198 l -3.030611,0 z" style="opacity:1;fill:#000000;fill-opacity:1;fill-rule:evenodd;stroke:none;stroke-width:2;stroke-linecap:butt;stroke-linejoin:miter;stroke-miterlimit:4;stroke-dasharray:none;stroke-dashoffset:12;stroke-opacity:1"/><path style="opacity:1;fill:#000000;fill-opacity:1;fill-rule:evenodd;stroke:none;stroke-width:2;stroke-linecap:butt;stroke-linejoin:miter;stroke-miterlimit:4;stroke-dasharray:none;stroke-dashoffset:12;stroke-opacity:1" d="m 63.477629,998.13305 c -0.238587,0 -0.430654,0.19266 -0.430654,0.43198 0,0.23935 0.192067,0.432 0.430654,0.432 l 0.239197,0 0,22.52837 -0.887953,0 c -0.02061,0 -0.03713,0.017 -0.03713,0.037 l 0,0.8215 c 0,0.021 0.01652,0.037 0.03713,0.037 l 4.359951,0 c 0.02061,0 0.03713,-0.016 0.03713,-0.037 l 0,-0.8215 c 0,-0.021 -0.01652,-0.037 -0.03713,-0.037 l -0.945564,0 0,-22.52837 0.264981,0 c 0.238586,0 0.430653,-0.19265 0.430653,-0.432 0,-0.23932 -0.192067,-0.43198 -0.430653,-0.43198 l -3.030612,0 z"/><path d="m 33.605592,998.13305 c -0.238587,0 -0.430653,0.19266 -0.430653,0.43198 0,0.23935 0.192066,0.432 0.430653,0.432 l 0.239198,0 0,22.52837 -0.887952,0 c -0.02061,0 -0.03713,0.017 -0.03713,0.037 l 0,0.8215 c 0,0.021 0.01652,0.037 0.03713,0.037 l 4.359949,0 c 0.02061,0 0.03713,-0.016 0.03713,-0.037 l 0,-0.8215 c 0,-0.021 -0.01652,-0.037 -0.03713,-0.037 l -0.945562,0 0,-22.52837 0.26498,0 c 0.238587,0 0.430653,-0.19265 0.430653,-0.432 0,-0.23932 -0.192066,-0.43198 -0.430653,-0.43198 l -3.030613,0 z" style="opacity:1;fill:#000000;fill-opacity:1;fill-rule:evenodd;stroke:none;stroke-width:2;stroke-linecap:butt;stroke-linejoin:miter;stroke-miterlimit:4;stroke-dasharray:none;stroke-dashoffset:12;stroke-opacity:1"/><path style="opacity:1;fill:#000000;fill-opacity:1;fill-rule:evenodd;stroke:none;stroke-width:2;stroke-linecap:butt;stroke-linejoin:miter;stroke-miterlimit:4;stroke-dasharray:none;stroke-dashoffset:12;stroke-opacity:1" d="m 31.800362,1023.6559 0,0.2397 0,0.5988 0,0.9281 c 0,0.1328 0.161562,0.2397 0.362167,0.2397 l 35.676282,0 c 0.200605,0 0.362043,-0.1069 0.362043,-0.2397 l 0,-0.9281 0,-0.5988 0,-0.2397 -0.362043,0 -35.676282,0 -0.362167,0 z"/><path d="m 42.8005,1001.3598 0,-2.00212 -0.239412,-0.0963 c -0.147895,-0.0595 -0.292303,-0.2145 -0.377776,-0.40553 l -0.138363,-0.30922 -2.204424,0 -2.204425,0 -0.07303,0.20472 c -0.07065,0.19805 -0.394842,0.49 -0.653849,0.58883 -0.161748,0.0617 -0.140446,0.45375 0.046,0.84653 0.07663,0.1613 0.311225,0.6028 0.521314,0.9809 0.210087,0.3781 0.561338,1.0162 0.78056,1.4179 l 0.398583,0.7304 2.072418,0.023 2.072418,0.023 0,-2.0019 z" style="opacity:1;fill:#000000;fill-opacity:1;fill-rule:evenodd;stroke:none;stroke-width:2;stroke-linecap:butt;stroke-linejoin:miter;stroke-miterlimit:4;stroke-dasharray:none;stroke-dashoffset:12;stroke-opacity:1"/><path style="opacity:1;fill:#000000;fill-opacity:1;fill-rule:evenodd;stroke:none;stroke-width:2;stroke-linecap:butt;stroke-linejoin:miter;stroke-miterlimit:4;stroke-dasharray:none;stroke-dashoffset:12;stroke-opacity:1" d="m 48.196765,998.59703 c -0.496779,0.008 -0.620024,0.0142 -0.646734,0.0318 -0.03482,0.0231 -0.05372,0.0503 -0.188747,0.2728 -0.142033,0.23404 -0.343616,0.4144 -0.551585,0.49332 -0.09022,0.0342 -0.09224,0.0362 -0.100259,0.0981 -0.02004,1.32884 1.14e-4,2.56724 1.14e-4,3.85664 2.387167,0.027 4.379058,0 6.546183,0 0.01376,-1.2547 0.08722,-2.5376 0.01043,-3.85664 -0.008,-0.0619 -0.01002,-0.0639 -0.100258,-0.0981 -0.20797,-0.0789 -0.409665,-0.25928 -0.551696,-0.49332 -0.135033,-0.22251 -0.153922,-0.24973 -0.188747,-0.2728 -0.02671,-0.0177 -0.149845,-0.0238 -0.646623,-0.0318 l -0.133567,-0.002 c -1.176811,0.007 -2.369731,-0.0162 -3.448518,0.002 z"/><path style="opacity:1;fill:#000000;fill-opacity:1;fill-rule:evenodd;stroke:none;stroke-width:2;stroke-linecap:butt;stroke-linejoin:miter;stroke-miterlimit:4;stroke-dasharray:none;stroke-dashoffset:12;stroke-opacity:1" d="m 57.100718,1001.3598 0,-2.00208 0.239411,-0.0963 c 0.147895,-0.0595 0.292303,-0.21451 0.377776,-0.40553 l 0.138363,-0.30922 2.204425,0 2.204424,0 0.07303,0.20472 c 0.07065,0.19805 0.394842,0.49 0.653849,0.58883 0.161748,0.0617 0.140446,0.45377 -0.046,0.84649 -0.07663,0.1613 -0.311226,0.6028 -0.521315,0.9809 -0.210086,0.3781 -0.561338,1.0162 -0.78056,1.4179 l -0.398582,0.7304 -2.072418,0.023 -2.072418,0.023 0,-2.0019 z"/></g><text x="0" y="115" fill="#000000" font-size="5px" font-weight="bold" font-family="'Helvetica Neue', Helvetica, Arial-Unicode, Arial, Sans-serif">Created by Alec Dhuse</text><text x="0" y="120" fill="#000000" font-size="5px" font-weight="bold" font-family="'Helvetica Neue', Helvetica, Arial-Unicode, Arial, Sans-serif">from the Noun Project</text></svg>