<?xml version="1.0" encoding="utf-8"?>
<!-- Generator: Adobe Illustrator 24.0.1, SVG Export Plug-In . SVG Version: 6.00 Build 0)  -->
<svg version="1.1" id="Layer_1" xmlns="http://www.w3.org/2000/svg" xmlns:xlink="http://www.w3.org/1999/xlink" x="0px" y="0px"
	 viewBox="0 0 382 382" style="enable-background:new 0 0 382 382;" xml:space="preserve">
<style type="text/css">
	.st0{fill:#333333;}
</style>
<path class="st0" d="M347.4,0H34.6C15.5,0,0,15.5,0,34.6v312.9C0,366.5,15.5,382,34.6,382h312.9c19.1,0,34.6-15.5,34.6-34.6V34.6
	C382,15.5,366.5,0,347.4,0z M118.2,329.8c0,5.6-4.5,10.1-10.1,10.1H65.3c-5.6,0-10.1-4.5-10.1-10.1V150.4c0-5.6,4.5-10.1,10.1-10.1
	h42.8c5.6,0,10.1,4.5,10.1,10.1V329.8z M86.7,123.4c-22.5,0-40.7-18.2-40.7-40.7s18.2-40.7,40.7-40.7s40.7,18.2,40.7,40.7
	S109.2,123.4,86.7,123.4z M341.9,330.7c0,5.1-4.1,9.2-9.2,9.2h-45.9c-5.1,0-9.2-4.1-9.2-9.2v-84.2c0-12.6,3.7-55-32.8-55
	c-28.3,0-34.1,29.1-35.2,42.1v97.1c0,5.1-4.1,9.2-9.2,9.2h-44.4c-5.1,0-9.2-4.1-9.2-9.2V149.6c0-5.1,4.1-9.2,9.2-9.2h44.4
	c5.1,0,9.2,4.1,9.2,9.2v15.7c10.5-15.8,26.1-27.9,59.3-27.9c73.6,0,73.1,68.7,73.1,106.5L341.9,330.7L341.9,330.7z"/>
</svg>
