<svg xmlns="http://www.w3.org/2000/svg" xmlns:xlink="http://www.w3.org/1999/xlink" version="1.1" x="0px" y="0px" viewBox="0 0 100 125" style="enable-background:new 0 0 100 100;" xml:space="preserve"><path d="M92.5,25h-85C6.1,25,5,26.1,5,27.5v45C5,73.9,6.1,75,7.5,75h85c1.4,0,2.5-1.1,2.5-2.5v-45C95,26.1,93.9,25,92.5,25z M90,70  H10V30h80V70z"/><path d="M45,52.5h2.5v5h-5c-1.4,0-2.5,1.1-2.5,2.5s1.1,2.5,2.5,2.5h5V65c0,1.4,1.1,2.5,2.5,2.5s2.5-1.1,2.5-2.5v-2.5H55  c4.1,0,7.5-3.4,7.5-7.5s-3.4-7.5-7.5-7.5h-2.5v-5h5c1.4,0,2.5-1.1,2.5-2.5s-1.1-2.5-2.5-2.5h-5V35c0-1.4-1.1-2.5-2.5-2.5  s-2.5,1.1-2.5,2.5v2.5H45c-4.1,0-7.5,3.4-7.5,7.5S40.9,52.5,45,52.5z M52.5,52.5H55c1.4,0,2.5,1.1,2.5,2.5s-1.1,2.5-2.5,2.5h-2.5  V52.5z M45,42.5h2.5v5H45c-1.4,0-2.5-1.1-2.5-2.5S43.6,42.5,45,42.5z"/><path d="M17.5,40h5c1.4,0,2.5-1.1,2.5-2.5S23.9,35,22.5,35h-5c-1.4,0-2.5,1.1-2.5,2.5S16.1,40,17.5,40z"/><path d="M77.5,65h5c1.4,0,2.5-1.1,2.5-2.5S83.9,60,82.5,60h-5c-1.4,0-2.5,1.1-2.5,2.5S76.1,65,77.5,65z"/><text x="0" y="115" fill="#000000" font-size="5px" font-weight="bold" font-family="'Helvetica Neue', Helvetica, Arial-Unicode, Arial, Sans-serif">Created by Arthur Shlain</text><text x="0" y="120" fill="#000000" font-size="5px" font-weight="bold" font-family="'Helvetica Neue', Helvetica, Arial-Unicode, Arial, Sans-serif">from the Noun Project</text></svg>