<svg xmlns="http://www.w3.org/2000/svg" xmlns:xlink="http://www.w3.org/1999/xlink" version="1.1" x="0px" y="0px" viewBox="0 0 100.017 296.47875" style="enable-background:new 0 0 100.017 237.183;" xml:space="preserve"><g><path d="M16.568,137.957C16.176,131.308,16,125.249,16,119.736c-0.035-24.218,3.496-37.82,6.964-44.92v150.003   c0,6.83,5.537,12.363,12.363,12.363c6.828,0,12.365-5.533,12.365-12.363v-90.271h4.635v90.271c0,6.83,5.537,12.363,12.363,12.363   c6.828,0,12.365-5.533,12.365-12.363V74.861c0.593,1.216,1.19,2.61,1.78,4.237c2.818,7.813,5.19,20.63,5.182,40.64   c0,5.513-0.178,11.571-0.566,18.223c-0.258,4.411,3.11,8.196,7.521,8.452c0.159,0.009,0.318,0.014,0.475,0.014   c4.203,0.001,7.729-3.282,7.978-7.535c0.403-6.931,0.592-13.297,0.592-19.154c-0.04-30.182-4.861-46.888-11.435-56.932   c-3.285-4.985-7.127-8.183-10.678-9.956c-3.4-1.714-6.389-2.107-8.195-2.132c-0.127-0.006-0.253-0.02-0.382-0.02H30.692   c-0.118,0-0.233,0.013-0.351,0.018c-1.803,0.022-4.809,0.41-8.231,2.135c-5.379,2.666-11.177,8.5-15.234,18.84   C2.77,82.07,0.014,97.077,0,119.736c0,5.854,0.188,12.223,0.596,19.158c0.248,4.251,3.771,7.531,7.975,7.531   c0.159,0,0.318-0.005,0.479-0.014C13.46,146.153,16.826,142.368,16.568,137.957z"/><circle cx="50.01" cy="22.5" r="22.5"/></g><text x="0" y="252.183" fill="#000000" font-size="5px" font-weight="bold" font-family="'Helvetica Neue', Helvetica, Arial-Unicode, Arial, Sans-serif">Created by Gan Khoon Lay</text><text x="0" y="257.183" fill="#000000" font-size="5px" font-weight="bold" font-family="'Helvetica Neue', Helvetica, Arial-Unicode, Arial, Sans-serif">from the Noun Project</text></svg>