<svg xmlns="http://www.w3.org/2000/svg" xmlns:xlink="http://www.w3.org/1999/xlink" version="1.1" x="0px" y="0px" viewBox="0 0 100 125" style="enable-background:new 0 0 100 100;" xml:space="preserve"><path d="M67.2832031,10.418457c-0.1811523-0.2939453-0.5014648-0.4741211-0.847168-0.4755859c-0.0014648,0-0.0029297,0-0.0043945,0  c-0.3442383,0-0.6640625,0.1767578-0.847168,0.46875L50.1149902,35.0740356L34.9399414,10.4189453  c-0.1811523-0.2944336-0.5014648-0.4746094-0.847168-0.4760742c-0.3457031-0.0493164-0.6679688,0.1757812-0.8515625,0.46875  L10.2421875,47.078125c-0.293457,0.4677734-0.1518555,1.0849609,0.315918,1.378418  c0.1650391,0.1035156,0.3486328,0.152832,0.5302734,0.152832c0.3330078,0,0.6582031-0.1660156,0.8481445-0.46875  l10.5628052-16.8397217l2.9547729,4.2381592c0.3740234,0.5371094,1.2666016,0.5371094,1.640625,0l2.9755859-4.2680664  l2.9741211,4.2680664c0.3740234,0.5371094,1.2670898,0.5366211,1.6411133-0.0004883l2.9702148-4.2666016l2.972168,4.2670898  c0.1865234,0.2680664,0.4931641,0.4282227,0.8203125,0.4282227s0.6337891-0.1601562,0.8208008-0.4287109l3.0700684-4.4091797  l3.5907593,5.8340454L42.5854492,47.078125c-0.293457,0.4677734-0.1518555,1.0849609,0.315918,1.378418  c0.4682617,0.293457,1.0849609,0.152832,1.378418-0.315918l10.5628052-16.8397217l2.9547729,4.2381592  c0.3740234,0.5371094,1.2666016,0.5371094,1.640625,0l2.9755859-4.2680664l2.9741211,4.2680664  c0.3740234,0.5371094,1.2670898,0.5366211,1.6411133-0.0004883l2.9702148-4.2666016l2.972168,4.2670898  c0.1865234,0.2680664,0.4931641,0.4282227,0.8203125,0.4282227s0.6337891-0.1601562,0.8208008-0.4287109l3.0700684-4.4091797  l10.4660645,17.0043945c0.1889648,0.3066406,0.5166016,0.4755859,0.8525391,0.4755859  c0.1787109,0,0.3598633-0.0478516,0.5229492-0.1484375c0.4707031-0.2895508,0.6171875-0.9052734,0.3276367-1.3754883  L67.2832031,10.418457z M41.4482422,33.2172852l-2.9726562-4.2670898c-0.3730469-0.5361328-1.2670898-0.5366211-1.6411133,0.0004883  l-2.9702148,4.2666016l-2.9731445-4.2670898c-0.1870117-0.2680664-0.4931641-0.4282227-0.8203125-0.4282227  s-0.6333008,0.159668-0.8203125,0.4282227L26.2744141,33.21875l-2.6205444-3.758606l10.4266968-16.6227417l10.1149902,16.434082  L41.4482422,33.2172852z M73.7915039,33.2172852l-2.9726562-4.2670898  c-0.3730469-0.5361328-1.2670898-0.5366211-1.6411133,0.0004883l-2.9702148,4.2666016l-2.9731445-4.2670898  c-0.1870117-0.2680664-0.4931641-0.4282227-0.8203125-0.4282227s-0.6333008,0.159668-0.8203125,0.4282227L58.6176758,33.21875  l-2.6205444-3.758606l10.4266968-16.6227417l10.1150513,16.434082L73.7915039,33.2172852z"/><path d="M25.4013672,65.2094727c0.1962891,0.203125,0.4575195,0.3051758,0.7192383,0.3051758  c0.25,0,0.5004883-0.0932617,0.6948242-0.2807617c0.3969727-0.3837891,0.4082031-1.0170898,0.0244141-1.4140625l-7.53125-7.7954102  c-0.0020142-0.0020752-0.0050049-0.0026245-0.007019-0.0046387c-0.1814575-0.1848145-0.4328003-0.3005371-0.7122192-0.3005371  s-0.5307617,0.1157227-0.7122192,0.3005371c-0.0020142,0.0020142-0.0050049,0.0025635-0.007019,0.0046387l-7.53125,7.7954102  c-0.3837891,0.3969727-0.3725586,1.0302734,0.0244141,1.4140625c0.3969727,0.3828125,1.0297852,0.3725586,1.4140625-0.0244141  l5.8120117-6.0157471v4.8122559l-7.2504883,7.505249c-0.3837891,0.3974609-0.3725586,1.0302734,0.0244141,1.4140625  c0.3969727,0.3833008,1.0297852,0.3725586,1.4140625-0.0244141l5.8120117-6.0161743v4.8126831l-7.2504883,7.505249  c-0.3837891,0.3974609-0.3725586,1.0302734,0.0244141,1.4140625c0.3969727,0.3828125,1.0297852,0.3725586,1.4140625-0.0244141  l5.8120117-6.0161743v14.4810181c0,0.5522461,0.4477539,1,1,1s1-0.4477539,1-1V74.5761108l5.8120117,6.0161743  c0.1962891,0.203125,0.4575195,0.3051758,0.7192383,0.3051758c0.25,0,0.5004883-0.0932617,0.6948242-0.2807617  c0.3969727-0.3837891,0.4082031-1.0166016,0.0244141-1.4140625l-7.2504883-7.505249v-4.8126831l5.8120117,6.0161743  c0.1962891,0.203125,0.4575195,0.3051758,0.7192383,0.3051758c0.25,0,0.5004883-0.0932617,0.6948242-0.2807617  c0.3969727-0.3837891,0.4082031-1.0166016,0.0244141-1.4140625l-7.2504883-7.505249v-4.8122559L25.4013672,65.2094727z"/><path d="M31.2714844,79.2026367c-0.3837891,0.3974609-0.3725586,1.0302734,0.0244141,1.4140625  c0.3969727,0.3828125,1.0297852,0.3725586,1.4140625-0.0244141l5.8120117-6.0161743v14.4810181c0,0.5522461,0.4477539,1,1,1  s1-0.4477539,1-1V74.5761108l5.8120117,6.0161743c0.1962891,0.203125,0.4575195,0.3051758,0.7192383,0.3051758  c0.25,0,0.5004883-0.0932617,0.6948242-0.2807617c0.3969727-0.3837891,0.4082031-1.0166016,0.0244141-1.4140625l-7.2504883-7.505249  v-4.8126831l5.8120117,6.0161743c0.1962891,0.203125,0.4575195,0.3051758,0.7192383,0.3051758  c0.25,0,0.5004883-0.0932617,0.6948242-0.2807617c0.3969727-0.3837891,0.4082031-1.0166016,0.0244141-1.4140625l-7.2504883-7.505249  v-4.8122559l5.8120117,6.0157471c0.1962891,0.203125,0.4575195,0.3051758,0.7192383,0.3051758  c0.25,0,0.5004883-0.0932617,0.6948242-0.2807617c0.3969727-0.3837891,0.4082031-1.0170898,0.0244141-1.4140625l-7.53125-7.7954102  c-0.0020142-0.0020752-0.0050049-0.0026245-0.007019-0.0046387c-0.1814575-0.1848145-0.4328003-0.3005371-0.7122192-0.3005371  s-0.5307617,0.1157227-0.7122192,0.3005371c-0.0020142,0.0020142-0.0050049,0.0025635-0.007019,0.0046387l-7.53125,7.7954102  c-0.3837891,0.3969727-0.3725586,1.0302734,0.0244141,1.4140625c0.3969727,0.3828125,1.0297852,0.3725586,1.4140625-0.0244141  l5.8120117-6.0157471v4.8122559l-7.2504883,7.505249c-0.3837891,0.3974609-0.3725586,1.0302734,0.0244141,1.4140625  c0.3969727,0.3833008,1.0297852,0.3725586,1.4140625-0.0244141l5.8120117-6.0161743v4.8126831L31.2714844,79.2026367z"/><path d="M52.2045898,79.2026367c-0.3837891,0.3974609-0.3725586,1.0302734,0.0244141,1.4140625  c0.3969727,0.3828125,1.0297852,0.3725586,1.4140625-0.0244141l5.8120117-6.0161743v14.4810181c0,0.5522461,0.4477539,1,1,1  s1-0.4477539,1-1V74.5761108l5.8120117,6.0161743c0.1962891,0.203125,0.4575195,0.3051758,0.7192383,0.3051758  c0.25,0,0.5004883-0.0932617,0.6948242-0.2807617c0.3969727-0.3837891,0.4082031-1.0166016,0.0244141-1.4140625l-7.2504883-7.505249  v-4.8126831l5.8120117,6.0161743c0.1962891,0.203125,0.4575195,0.3051758,0.7192383,0.3051758  c0.25,0,0.5004883-0.0932617,0.6948242-0.2807617c0.3969727-0.3837891,0.4082031-1.0166016,0.0244141-1.4140625l-7.2504883-7.505249  v-4.8122559l5.8120117,6.0157471c0.1962891,0.203125,0.4575195,0.3051758,0.7192383,0.3051758  c0.25,0,0.5004883-0.0932617,0.6948242-0.2807617c0.3969727-0.3837891,0.4082031-1.0170898,0.0244141-1.4140625l-7.53125-7.7954102  c-0.0020142-0.0020752-0.0050049-0.0026245-0.007019-0.0046387c-0.1814575-0.1848145-0.4328003-0.3005371-0.7122192-0.3005371  s-0.5307617,0.1157227-0.7122192,0.3005371c-0.0020142,0.0020142-0.0050049,0.0025635-0.007019,0.0046387l-7.53125,7.7954102  c-0.3837891,0.3969727-0.3725586,1.0302734,0.0244141,1.4140625c0.3969727,0.3828125,1.0297852,0.3725586,1.4140625-0.0244141  l5.8120117-6.0157471v4.8122559l-7.2504883,7.505249c-0.3837891,0.3974609-0.3725586,1.0302734,0.0244141,1.4140625  c0.3969727,0.3833008,1.0297852,0.3725586,1.4140625-0.0244141l5.8120117-6.0161743v4.8126831L52.2045898,79.2026367z"/><path d="M73.137207,79.2026367c-0.3837891,0.3974609-0.3725586,1.0302734,0.0244141,1.4140625  c0.3969727,0.3828125,1.0297852,0.3725586,1.4140625-0.0244141l5.8120117-6.0161743v14.4810181c0,0.5522461,0.4477539,1,1,1  s1-0.4477539,1-1V74.5761108l5.8120117,6.0161743c0.1962891,0.203125,0.4575195,0.3051758,0.7192383,0.3051758  c0.25,0,0.5004883-0.0932617,0.6948242-0.2807617c0.3969727-0.3837891,0.4082031-1.0166016,0.0244141-1.4140625l-7.2504883-7.505249  v-4.8126831l5.8120117,6.0161743c0.1962891,0.203125,0.4575195,0.3051758,0.7192383,0.3051758  c0.25,0,0.5004883-0.0932617,0.6948242-0.2807617c0.3969727-0.3837891,0.4082031-1.0166016,0.0244141-1.4140625l-7.2504883-7.505249  v-4.8122559l5.8120117,6.0157471c0.1962891,0.203125,0.4575195,0.3051758,0.7192383,0.3051758  c0.25,0,0.5004883-0.0932617,0.6948242-0.2807617c0.3969727-0.3837891,0.4082031-1.0170898,0.0244141-1.4140625l-7.53125-7.7954102  c-0.0020142-0.0020752-0.0050049-0.0026245-0.007019-0.0046387c-0.1814575-0.1848145-0.4328003-0.3005371-0.7122192-0.3005371  s-0.5307617,0.1157227-0.7122192,0.3005371c-0.0020142,0.0020142-0.0050049,0.0025635-0.007019,0.0046387l-7.53125,7.7954102  c-0.3837891,0.3969727-0.3725586,1.0302734,0.0244141,1.4140625c0.3969727,0.3828125,1.0297852,0.3725586,1.4140625-0.0244141  l5.8120117-6.0157471v4.8122559l-7.2504883,7.505249c-0.3837891,0.3974609-0.3725586,1.0302734,0.0244141,1.4140625  c0.3969727,0.3833008,1.0297852,0.3725586,1.4140625-0.0244141l5.8120117-6.0161743v4.8126831L73.137207,79.2026367z"/><text x="0" y="115" fill="#000000" font-size="5px" font-weight="bold" font-family="'Helvetica Neue', Helvetica, Arial-Unicode, Arial, Sans-serif">Created by Made by Made</text><text x="0" y="120" fill="#000000" font-size="5px" font-weight="bold" font-family="'Helvetica Neue', Helvetica, Arial-Unicode, Arial, Sans-serif">from the Noun Project</text></svg>