<svg xmlns="http://www.w3.org/2000/svg" xmlns:xlink="http://www.w3.org/1999/xlink" xml:space="preserve" version="1.1" style="shape-rendering:geometricPrecision;text-rendering:geometricPrecision;image-rendering:optimizeQuality;" viewBox="0 0 58 110" x="0px" y="0px" fill-rule="evenodd" clip-rule="evenodd"><defs><style type="text/css">
   
    .fil0 {fill:black}
   
  </style></defs><g><path class="fil0" d="M0 24c0,-31 58,-33 58,-1 0,19 -19,18 -23,36 -2,9 -14,8 -14,-2 0,-17 14,-18 20,-29 4,-8 -3,-16 -11,-16 -17,0 -11,19 -22,19 -4,0 -8,-3 -8,-7zm28 64c-12,0 -11,-18 0,-18 12,0 12,18 0,18z"/></g><text x="0" y="103" fill="#000000" font-size="5px" font-weight="bold" font-family="'Helvetica Neue', Helvetica, Arial-Unicode, Arial, Sans-serif">Created by heri sugianto</text><text x="0" y="108" fill="#000000" font-size="5px" font-weight="bold" font-family="'Helvetica Neue', Helvetica, Arial-Unicode, Arial, Sans-serif">from the Noun Project</text></svg>