<svg xmlns="http://www.w3.org/2000/svg" viewBox="0 0 64 80" x="0px" y="0px"><g><path d="M55,3H24a1,1,0,0,0-1,1V28H11a1,1,0,0,0-1,1v3H9a1,1,0,0,0-1,1V60a1,1,0,0,0,1,1H45a1,1,0,0,0,1-1V45h9a1,1,0,0,0,1-1V4A1,1,0,0,0,55,3ZM12,30H23v5H21.414l-2.707-2.707A1,1,0,0,0,18,32H12ZM44,59H10V34h7.586l2.707,2.707A1,1,0,0,0,21,37H44ZM34,34.2l-2.479-3.718a4.377,4.377,0,0,1,4.668.435Zm3.521-1.676A4.442,4.442,0,0,1,38,34.5V35H35.869ZM32.132,35H29v-.5a4.453,4.453,0,0,1,.964-2.75ZM54,43H46V36a1,1,0,0,0-1-1H40v-.5a6.5,6.5,0,0,0-13,0V35H25V5H54Z"/><path d="M32.917,18.5l3.3,4.128a1,1,0,0,0,.725.373L37,23a.993.993,0,0,0,.707-.293L48,12.414V15h2V10a1,1,0,0,0-1-1H44v2h2.586l-9.5,9.5-3.3-4.128A1,1,0,0,0,33.056,16a1.018,1.018,0,0,0-.763.291l-5,5,1.414,1.414Z"/><rect x="45" y="19" width="5" height="2"/><rect x="41" y="23" width="9" height="2"/><rect x="45" y="27" width="5" height="2"/><rect x="42" y="31" width="8" height="2"/><rect x="14" y="53" width="6" height="2"/><rect x="22" y="53" width="2" height="2"/><rect x="14" y="49" width="10" height="2"/></g><text x="0" y="79" fill="#000000" font-size="5px" font-weight="bold" font-family="'Helvetica Neue', Helvetica, Arial-Unicode, Arial, Sans-serif">Created by supalerk laipawat</text><text x="0" y="84" fill="#000000" font-size="5px" font-weight="bold" font-family="'Helvetica Neue', Helvetica, Arial-Unicode, Arial, Sans-serif">from the Noun Project</text></svg>