<svg xmlns="http://www.w3.org/2000/svg" xmlns:xlink="http://www.w3.org/1999/xlink" viewBox="0 0 90 90" version="1.1" x="0px" y="0px"><g stroke="none" stroke-width="1" fill="none" fill-rule="evenodd"><g><rect x="0" y="0" width="90" height="90"/><rect fill="#000000" x="0" y="78" width="90" height="12" rx="6"/><path d="M42.8138613,18.9084973 C45.3049192,16.4107944 45.3028537,12.3670515 42.8141103,9.8716693 C40.3248197,7.37573842 36.2902051,7.37639887 33.8013242,9.87191896 L11.2454956,32.4845012 C9.58443036,34.149746 9.58523926,36.8504521 11.2454956,38.5148859 L33.8013242,61.1274682 C36.2923821,63.6251711 40.3253669,63.6231001 42.8141103,61.1277178 C45.3034009,58.631787 45.3027422,54.5864099 42.8138613,52.0908898 L32.5775298,41.8311228 L73.6298716,41.8311228 C77.1456596,41.8311228 80,38.9703003 80,35.441297 C80,31.9115177 77.1479964,29.0514711 73.6298716,29.0514711 L32.6940124,29.0514711 L42.8138613,18.9084973 Z" fill="#000000" transform="translate(45.000000, 35.500000) rotate(-90.000000) translate(-45.000000, -35.500000) "/></g></g></svg>