<svg xmlns="http://www.w3.org/2000/svg" xmlns:xlink="http://www.w3.org/1999/xlink" version="1.1" x="0px" y="0px" viewBox="0 0 100 125" enable-background="new 0 0 100 100" xml:space="preserve"><g><defs><path id="r" d="M23.95,70.346H77c4.971,0,9-4.029,9-9v-30c0-4.971-4.029-9-9-9H23c-4.971,0-9,4.029-9,9v30    c0,3.143,0.937,6.227,3.378,7.837C17.793,64.122,18,61.51,18,61.346v-30c0-2.761,2.239-5,5-5h54c2.761,0,5,2.239,5,5v30    c0,2.761-2.239,5-5,5H26.365L23.95,70.346z"/></defs><clipPath id="q"><use xlink:href="#r" overflow="visible"/></clipPath><rect x="9" y="17.346" clip-path="url(#q)" fill="#000000" width="82" height="58"/></g><g><defs><polygon id="p" points="18,60.413 14,57.346 14,93.654 30.339,69.871 26.405,66.469 18,79.406   "/></defs><clipPath id="o"><use xlink:href="#p" overflow="visible"/></clipPath><rect x="9" y="52.346" clip-path="url(#o)" fill="#000000" width="26.339" height="46.307"/></g><g><defs><path id="n" d="M37.5,48.346c-3.038,0-5.5-2.462-5.5-5.5s2.462-5.5,5.5-5.5s5.5,2.462,5.5,5.5S40.538,48.346,37.5,48.346z     M37.5,44.346c0.828,0,1.5-0.672,1.5-1.5s-0.672-1.5-1.5-1.5s-1.5,0.672-1.5,1.5S36.672,44.346,37.5,44.346z"/></defs><clipPath id="m"><use xlink:href="#n" overflow="visible"/></clipPath><rect x="27" y="32.346" clip-path="url(#m)" fill="#000000" width="21" height="21"/></g><g><defs><path id="l" d="M50,17.346c-3.038,0-5.5-2.462-5.5-5.5s2.462-5.5,5.5-5.5s5.5,2.462,5.5,5.5S53.038,17.346,50,17.346z     M50,13.346c0.828,0,1.5-0.672,1.5-1.5s-0.672-1.5-1.5-1.5s-1.5,0.672-1.5,1.5S49.172,13.346,50,13.346z"/></defs><clipPath id="k"><use xlink:href="#l" overflow="visible"/></clipPath><rect x="39.5" y="1.346" clip-path="url(#k)" fill="#000000" width="21" height="21"/></g><g><defs><rect id="j" x="32" y="53.346" width="37" height="4"/></defs><clipPath id="i"><use xlink:href="#j" overflow="visible"/></clipPath><rect x="27" y="48.346" clip-path="url(#i)" fill="#000000" width="47" height="14"/></g><g><defs><rect id="h" x="7" y="32.346" width="4" height="14"/></defs><clipPath id="g"><use xlink:href="#h" overflow="visible"/></clipPath><rect x="2" y="27.346" clip-path="url(#g)" fill="#000000" width="14" height="24"/></g><g><defs><rect id="f" x="89" y="32.346" width="4" height="14"/></defs><clipPath id="e"><use xlink:href="#f" overflow="visible"/></clipPath><rect x="84" y="27.346" clip-path="url(#e)" fill="#000000" width="14" height="24"/></g><g><defs><rect id="d" x="48.5" y="16.346" width="3" height="10"/></defs><clipPath id="c"><use xlink:href="#d" overflow="visible"/></clipPath><rect x="43.5" y="11.346" clip-path="url(#c)" fill="#000000" width="13" height="20"/></g><g><defs><path id="b" d="M63.5,44.346c0.828,0,1.5-0.672,1.5-1.5s-0.672-1.5-1.5-1.5s-1.5,0.672-1.5,1.5S62.672,44.346,63.5,44.346    z M63.5,48.346c-3.038,0-5.5-2.462-5.5-5.5s2.462-5.5,5.5-5.5c3.038,0,5.5,2.462,5.5,5.5S66.538,48.346,63.5,48.346z"/></defs><clipPath id="a"><use xlink:href="#b" overflow="visible"/></clipPath><rect x="53" y="32.346" clip-path="url(#a)" fill="#000000" width="21" height="21"/></g><text x="0" y="115" fill="#000000" font-size="5px" font-weight="bold" font-family="'Helvetica Neue', Helvetica, Arial-Unicode, Arial, Sans-serif">Created by GJR</text><text x="0" y="120" fill="#000000" font-size="5px" font-weight="bold" font-family="'Helvetica Neue', Helvetica, Arial-Unicode, Arial, Sans-serif">from the Noun Project</text></svg>