<svg xmlns="http://www.w3.org/2000/svg" xmlns:xlink="http://www.w3.org/1999/xlink" version="1.0" x="0px" y="0px" viewBox="0 0 100 125" enable-background="new 0 0 100 100" xml:space="preserve"><circle fill="none" stroke="#000000" stroke-width="2" stroke-linecap="round" stroke-linejoin="round" stroke-miterlimit="10" cx="31.716" cy="19.144" r="9.142"/><path fill="none" stroke="#000000" stroke-width="2" stroke-linecap="round" stroke-linejoin="round" stroke-miterlimit="10" d="  M31.717,62.571v22.855c0,2.526-2.047,4.573-4.573,4.573c-2.523,0-4.571-2.047-4.571-4.573V44.284v13.714  c0,2.527-2.047,4.573-4.57,4.573c-2.526,0-4.573-2.046-4.573-4.573V39.715c0-5.049,4.095-9.145,9.144-9.145  c1.241,1.241,2.668,2.174,4.196,2.803c1.578,0.652,3.263,0.983,4.948,0.986c1.682-0.002,3.364-0.334,4.945-0.986  c1.528-0.629,2.957-1.563,4.195-2.803c5.049,0,9.144,4.095,9.144,9.145v18.283c0,2.527-2.047,4.573-4.571,4.573  c-2.526,0-4.573-2.046-4.573-4.573V44.284v41.143c0,2.526-2.044,4.573-4.57,4.573s-4.57-2.047-4.57-4.573V62.571z"/><circle fill="none" stroke="#000000" stroke-width="2" stroke-linecap="round" stroke-linejoin="round" stroke-miterlimit="10" cx="72.856" cy="50.001" r="13.714"/><polygon fill="none" stroke="#000000" stroke-width="2" stroke-linecap="round" stroke-linejoin="round" stroke-miterlimit="10" points="  78.948,46.344 71.634,53.655 66.762,48.779 71.634,53.655 "/><text x="0" y="115" fill="#000000" font-size="5px" font-weight="bold" font-family="'Helvetica Neue', Helvetica, Arial-Unicode, Arial, Sans-serif">Created by Danil Polshin</text><text x="0" y="120" fill="#000000" font-size="5px" font-weight="bold" font-family="'Helvetica Neue', Helvetica, Arial-Unicode, Arial, Sans-serif">from the Noun Project</text></svg>