<svg xmlns="http://www.w3.org/2000/svg" xmlns:xlink="http://www.w3.org/1999/xlink" version="1.0" x="0px" y="0px" viewBox="0 0 100 125" enable-background="new 0 0 100 100" xml:space="preserve"><path fill="none" stroke="#000000" stroke-width="2" stroke-linecap="round" stroke-linejoin="round" stroke-miterlimit="10" d="  M59.144,19.144c0,5.049-4.095,9.14-9.144,9.14c-5.048,0-9.14-4.091-9.14-9.14C40.86,14.091,44.951,10,50,10  C55.049,10,59.144,14.091,59.144,19.144z"/><path fill="none" stroke="#000000" stroke-width="2" stroke-linecap="round" stroke-linejoin="round" stroke-miterlimit="10" d="  M50,62.571V85.43c0,2.525-2.046,4.57-4.573,4.57c-2.523,0-4.57-2.045-4.57-4.57V48.856c0-3.311-1.261-6.615-3.786-9.141  L21.459,24.108c-1.782-1.787-1.782-4.682,0-6.467c1.786-1.786,4.681-1.786,6.466,0l12.931,12.93  c1.241,1.241,2.668,2.171,4.195,2.804c1.582,0.652,3.264,0.983,4.948,0.986l0,0c1.685-0.002,3.368-0.334,4.948-0.986  c1.528-0.633,2.956-1.563,4.196-2.804l12.931-12.93c1.786-1.786,4.681-1.786,6.463,0c1.786,1.786,1.786,4.681,0,6.467L62.93,39.716  c-2.526,2.526-3.789,5.83-3.786,9.141V85.43c0,2.525-2.048,4.57-4.569,4.57C52.047,90,50,87.955,50,85.43V62.571L50,62.571z"/><text x="0" y="115" fill="#000000" font-size="5px" font-weight="bold" font-family="'Helvetica Neue', Helvetica, Arial-Unicode, Arial, Sans-serif">Created by Danil Polshin</text><text x="0" y="120" fill="#000000" font-size="5px" font-weight="bold" font-family="'Helvetica Neue', Helvetica, Arial-Unicode, Arial, Sans-serif">from the Noun Project</text></svg>