<svg xmlns="http://www.w3.org/2000/svg" xmlns:xlink="http://www.w3.org/1999/xlink" version="1.1" x="0px" y="0px" viewBox="0 0 100 125" style="enable-background:new 0 0 100 100;" xml:space="preserve"><g><path d="M95.4,55.3c-2.5-0.6-5,0.9-5.7,3.5c-4,17.8-19.6,30.1-37.9,30.1c-13,0-24.9-6.4-32-16.7l4.4-3c1.3-0.9,2.1-2.5,1.9-4.1   c-0.2-1.6-1.3-3-2.8-3.6L7.2,55.4c-1.3-0.5-2.8-0.3-4,0.5C2,56.7,1.3,58,1.3,59.4L1,76.7c0,1.6,0.9,3.1,2.3,3.9   c0.6,0.3,1.4,0.5,2.1,0.5c0.9,0,1.7-0.3,2.4-0.7l4.3-2.9c8.8,12.9,23.6,20.8,39.8,20.8c22.7,0,42.1-15.4,47-37.4   c0.3-1.2,0.1-2.5-0.5-3.5C97.7,56.3,96.6,55.6,95.4,55.3z"/><path d="M4.6,44.7c2.5,0.6,5-0.9,5.7-3.5c4-17.8,19.6-30.1,37.9-30.1c13,0,24.9,6.4,32,16.7l-4.4,3c-1.3,0.9-2.1,2.5-1.9,4.1   c0.2,1.6,1.3,3,2.8,3.6l16.1,6.1c1.3,0.5,2.8,0.3,4-0.5c1.2-0.8,1.9-2.1,1.9-3.5L99,23.3c0-1.6-0.9-3.1-2.3-3.9   c-0.6-0.3-1.4-0.5-2.1-0.5c-0.9,0-1.7,0.3-2.4,0.7L88,22.6C79.1,9.7,64.4,1.7,48.2,1.7c-22.7,0-42.1,15.4-47,37.4   c-0.3,1.2-0.1,2.5,0.5,3.5C2.3,43.7,3.4,44.4,4.6,44.7z"/></g><text x="0" y="115" fill="#000000" font-size="5px" font-weight="bold" font-family="'Helvetica Neue', Helvetica, Arial-Unicode, Arial, Sans-serif">Created by Darshana Girkar</text><text x="0" y="120" fill="#000000" font-size="5px" font-weight="bold" font-family="'Helvetica Neue', Helvetica, Arial-Unicode, Arial, Sans-serif">from the Noun Project</text></svg>