<svg xmlns="http://www.w3.org/2000/svg" xmlns:xlink="http://www.w3.org/1999/xlink" version="1.1" x="0px" y="0px" viewBox="0 0 100 125" enable-background="new 0 0 100 100" xml:space="preserve"><g><path fill="#000000" d="M89.773,92.543H10.229c-0.782,0-1.415-0.633-1.415-1.414v-5.48c0-0.781,0.633-1.414,1.415-1.414h79.545   c0.782,0,1.414,0.633,1.414,1.414v5.48C91.188,91.91,90.556,92.543,89.773,92.543z M11.643,89.715h76.717v-2.652H11.643V89.715z"/></g><g><path fill="#000000" d="M69.857,56.246c-0.017,0-0.039-0.002-0.056,0H30.197c-0.55,0-1.05-0.319-1.281-0.816   c-0.232-0.499-0.155-1.086,0.198-1.507l19.801-23.608c0.536-0.641,1.63-0.641,2.166,0l19.604,23.369   c0.356,0.258,0.586,0.676,0.586,1.148C71.271,55.613,70.639,56.246,69.857,56.246z M33.23,53.418H66.77L49.998,33.423L33.23,53.418   z"/></g><g><path fill="#000000" d="M64.035,56.246c-0.017,0-0.039-0.002-0.056,0H36.02c-0.55,0-1.05-0.319-1.281-0.816   c-0.232-0.499-0.155-1.086,0.198-1.507l13.979-16.666c0.536-0.641,1.63-0.641,2.166,0l13.782,16.427   c0.356,0.258,0.586,0.676,0.586,1.148C65.449,55.613,64.816,56.246,64.035,56.246z M39.053,53.418h21.895L49.998,40.365   L39.053,53.418z"/></g><g><path fill="#000000" d="M86.714,87.063H14.592c-0.781,0-1.414-0.633-1.414-1.414V47.585c0-0.782,0.633-1.414,1.414-1.414h21.682   c0.55,0,1.05,0.319,1.282,0.816c0.231,0.499,0.154,1.085-0.199,1.507l-4.126,4.924H66.77l-4.13-4.924   c-0.354-0.421-0.431-1.008-0.198-1.507c0.231-0.497,0.731-0.816,1.281-0.816h22.991c0.781,0,1.414,0.632,1.414,1.414v38.063   C88.128,86.43,87.495,87.063,86.714,87.063z M16.006,84.234H85.3V49H66.755l4.13,4.923c0.354,0.421,0.431,1.008,0.198,1.507   c-0.231,0.497-0.731,0.816-1.281,0.816H30.197c-0.55,0-1.05-0.318-1.281-0.816c-0.232-0.499-0.155-1.086,0.198-1.507L33.241,49   H16.006V84.234z"/></g><g><path fill="#000000" d="M89.773,49H63.723c-0.417,0-0.814-0.185-1.083-0.505L49.998,33.423L37.356,48.494   C37.089,48.814,36.69,49,36.273,49H10.229c-0.782,0-1.415-0.633-1.415-1.414V25.606c0-0.781,0.633-1.414,1.415-1.414h79.545   c0.782,0,1.414,0.633,1.414,1.414v21.979C91.188,48.367,90.556,49,89.773,49z M64.383,46.171h23.977v-19.15H11.643v19.15h23.971   l13.302-15.857c0.536-0.641,1.63-0.641,2.166,0L64.383,46.171z"/></g><g><path fill="#000000" d="M49.998,32.637c-0.781,0-1.414-0.632-1.414-1.414V8.872c0-0.782,0.633-1.414,1.414-1.414   c0.782,0,1.414,0.632,1.414,1.414v22.352C51.412,32.005,50.78,32.637,49.998,32.637z"/></g><g><path fill="#000000" d="M63.612,20.047H50.001c-0.781,0-1.414-0.633-1.414-1.415v-7.64c0-0.781,0.633-1.414,1.414-1.414h13.611   c0.781,0,1.414,0.633,1.414,1.414v7.64C65.026,19.414,64.394,20.047,63.612,20.047z M51.415,17.218h10.783v-4.812H51.415V17.218z"/></g><g><path fill="#000000" d="M38.864,86.984h-6.01c-0.782,0-1.414-0.633-1.414-1.414V54.832c0-0.782,0.632-1.414,1.414-1.414h6.01   c0.782,0,1.414,0.632,1.414,1.414V85.57C40.278,86.352,39.646,86.984,38.864,86.984z M34.269,84.156h3.182v-27.91h-3.182V84.156z"/></g><g><path fill="#000000" d="M67.147,86.984h-6.01c-0.782,0-1.414-0.633-1.414-1.414V54.832c0-0.782,0.632-1.414,1.414-1.414h6.01   c0.781,0,1.414,0.632,1.414,1.414V85.57C68.562,86.352,67.929,86.984,67.147,86.984z M62.552,84.156h3.182v-27.91h-3.182V84.156z"/></g><g><path fill="#000000" d="M55.953,87.063H43.933c-0.781,0-1.414-0.633-1.414-1.414v-14.74c0-0.782,0.633-1.414,1.414-1.414h12.021   c0.781,0,1.414,0.632,1.414,1.414v14.74C57.367,86.43,56.734,87.063,55.953,87.063z M45.347,84.234h9.192V72.322h-9.192V84.234z"/></g><g><path fill="#000000" d="M27.493,81.701h-7.777c-0.782,0-1.414-0.633-1.414-1.416V62.846c0-0.781,0.632-1.414,1.414-1.414h7.777   c0.782,0,1.414,0.633,1.414,1.414v17.439C28.907,81.068,28.275,81.701,27.493,81.701z M21.13,78.871h4.949V64.26H21.13V78.871z"/></g><g><path fill="#000000" d="M80.523,81.701h-7.777c-0.781,0-1.414-0.633-1.414-1.416V62.846c0-0.781,0.633-1.414,1.414-1.414h7.777   c0.782,0,1.415,0.633,1.415,1.414v17.439C81.938,81.068,81.306,81.701,80.523,81.701z M74.16,78.871h4.949V64.26H74.16V78.871z"/></g><g><path fill="#000000" d="M49.943,86.412c-0.782,0-1.415-0.633-1.415-1.414v-14.09c0-0.782,0.633-1.414,1.415-1.414   c0.781,0,1.414,0.632,1.414,1.414v14.09C51.357,85.779,50.725,86.412,49.943,86.412z"/></g><g><path fill="#000000" d="M57.367,68.148H42.431c-0.782,0-1.415-0.633-1.415-1.414s0.633-1.414,1.415-1.414h14.937   c0.781,0,1.414,0.633,1.414,1.414S58.148,68.148,57.367,68.148z"/></g><g><path fill="#000000" d="M57.367,64.26H42.431c-0.782,0-1.415-0.633-1.415-1.414s0.633-1.414,1.415-1.414h14.937   c0.781,0,1.414,0.633,1.414,1.414S58.148,64.26,57.367,64.26z"/></g><g><path fill="#000000" d="M27.493,68.031h-7.777c-0.782,0-1.414-0.633-1.414-1.414s0.632-1.414,1.414-1.414h7.777   c0.782,0,1.414,0.633,1.414,1.414S28.275,68.031,27.493,68.031z"/></g><g><path fill="#000000" d="M80.523,68.031h-7.777c-0.781,0-1.414-0.633-1.414-1.414s0.633-1.414,1.414-1.414h7.777   c0.782,0,1.415,0.633,1.415,1.414S81.306,68.031,80.523,68.031z"/></g><text x="0" y="115" fill="#000000" font-size="5px" font-weight="bold" font-family="'Helvetica Neue', Helvetica, Arial-Unicode, Arial, Sans-serif">Created by Iconic</text><text x="0" y="120" fill="#000000" font-size="5px" font-weight="bold" font-family="'Helvetica Neue', Helvetica, Arial-Unicode, Arial, Sans-serif">from the Noun Project</text></svg>