<?xml version="1.0" encoding="utf-8"?>
<!-- Generator: Adobe Illustrator 24.0.1, SVG Export Plug-In . SVG Version: 6.00 Build 0)  -->
<svg version="1.1" id="Capa_1" xmlns="http://www.w3.org/2000/svg" xmlns:xlink="http://www.w3.org/1999/xlink" x="0px" y="0px"
	 viewBox="0 0 35 35" style="enable-background:new 0 0 35 35;" xml:space="preserve">
<style type="text/css">
	.st0{fill:#333333;}
</style>
<g>
	<path class="st0" d="M25.3,0H9.7C8.4,0,7.3,1.1,7.3,2.4v30.3c0,1.3,1.1,2.4,2.4,2.4h15.6c1.3,0,2.4-1.1,2.4-2.4V2.4
		C27.7,1.1,26.6,0,25.3,0z M15,1.7h5c0.2,0,0.3,0.1,0.3,0.3c0,0.2-0.1,0.3-0.3,0.3h-5c-0.2,0-0.3-0.1-0.3-0.3
		C14.7,1.8,14.8,1.7,15,1.7z M17.5,33.8c-0.7,0-1.2-0.5-1.2-1.2s0.5-1.2,1.2-1.2s1.2,0.5,1.2,1.2S18.2,33.8,17.5,33.8z M26,30.6H9
		V3.7h17V30.6z"/>
</g>
</svg>
