<svg xmlns="http://www.w3.org/2000/svg" xmlns:xlink="http://www.w3.org/1999/xlink" version="1.1" x="0px" y="0px" viewBox="0 0 100 125" style="enable-background:new 0 0 100 100;" xml:space="preserve"><path d="M64.3,15.3L64.3,15.3c-1.9,0-3.3,1.5-3.3,3.2v8.7H39v-8.7c0-1.8-1.5-3.2-3.2-3.2h-0.1c-1.8,0-3.2,1.5-3.2,3.2v62.9  c0,1.8,1.5,3.2,3.2,3.2h0.1c1.8,0,3.2-1.5,3.2-3.2v-9.7h22v9.7c0,1.8,1.5,3.2,3.2,3.2h0.1c1.8,0,3.2-1.5,3.2-3.2V18.6  C67.5,16.8,66.1,15.3,64.3,15.3z M61,32.3v8.2H39v-8.2H61z M61,45.4v8.2H39v-8.2H61z M39,66.8v-8.2h22v8.2H39z"/><text x="0" y="115" fill="#000000" font-size="5px" font-weight="bold" font-family="'Helvetica Neue', Helvetica, Arial-Unicode, Arial, Sans-serif">Created by n.o.o.m.</text><text x="0" y="120" fill="#000000" font-size="5px" font-weight="bold" font-family="'Helvetica Neue', Helvetica, Arial-Unicode, Arial, Sans-serif">from the Noun Project</text></svg>