<svg xmlns="http://www.w3.org/2000/svg" xmlns:xlink="http://www.w3.org/1999/xlink" version="1.1" x="0px" y="0px" viewBox="0 0 100 125" style="enable-background:new 0 0 100 100;" xml:space="preserve"><style type="text/css">
	.st0{fill:#020202;}
</style><path class="st0" d="M75.9,30.1V11.4l18.6,0h0c1.7,0,3-1.3,3-3c0-1.7-1.3-3-3-3l-21.6,0h0c-0.8,0-1.6,0.3-2.1,0.9  c-0.6,0.6-0.9,1.3-0.9,2.1v18.7H51.2c-1.7,0-3,1.3-3,3v18.7l-18.6,0h0c-0.8,0-1.6,0.3-2.1,0.9c-0.6,0.6-0.9,1.3-0.9,2.1v18.7H8  c-1.7,0-3,1.3-3,3V95c0,1.7,1.3,3,3,3s3-1.3,3-3V76.3h18.7c1.7,0,3-1.3,3-3V54.7l18.6,0h0c0.8,0,1.6-0.3,2.1-0.9  c0.6-0.6,0.9-1.3,0.9-2.1V33.1h18.7C74.6,33.1,75.9,31.7,75.9,30.1z M94.9,88.9H80.5l16.6-16.6c1.2-1.2,1.2-3.1,0-4.2  c-1.2-1.2-3.1-1.2-4.2,0L76.3,84.7l0-14.4c0-1.7-1.3-3-3-3h0c-1.7,0-3,1.3-3,3l0,21.6c0,0,0,0,0,0c0,0.2,0,0.4,0.1,0.6  c0,0.1,0,0.1,0,0.1c0,0.1,0.1,0.3,0.1,0.4c0,0.1,0.1,0.1,0.1,0.2c0.1,0.1,0.1,0.2,0.2,0.3c0.1,0.2,0.2,0.3,0.4,0.5  c0.1,0.1,0.3,0.3,0.5,0.4c0.1,0.1,0.2,0.1,0.3,0.2c0.1,0,0.1,0.1,0.2,0.1c0.1,0.1,0.3,0.1,0.4,0.1c0.1,0,0.1,0,0.2,0.1  c0.2,0,0.4,0.1,0.6,0.1h21.7c1.7,0,3-1.3,3-3S96.6,88.9,94.9,88.9z"/><text x="0" y="115" fill="#000000" font-size="5px" font-weight="bold" font-family="'Helvetica Neue', Helvetica, Arial-Unicode, Arial, Sans-serif">Created by No More Heroes</text><text x="0" y="120" fill="#000000" font-size="5px" font-weight="bold" font-family="'Helvetica Neue', Helvetica, Arial-Unicode, Arial, Sans-serif">from the Noun Project</text></svg>