<svg xmlns:dc="http://purl.org/dc/elements/1.1/" xmlns:cc="http://creativecommons.org/ns#" xmlns:rdf="http://www.w3.org/1999/02/22-rdf-syntax-ns#" xmlns:svg="http://www.w3.org/2000/svg" xmlns="http://www.w3.org/2000/svg" xmlns:sodipodi="http://sodipodi.sourceforge.net/DTD/sodipodi-0.dtd" xmlns:inkscape="http://www.inkscape.org/namespaces/inkscape" version="1.1" x="0px" y="0px" viewBox="0 0 100 125"><g transform="translate(0,-952.36218)"><path style="text-indent:0;text-transform:none;direction:ltr;block-progression:tb;baseline-shift:baseline;color:#000000;enable-background:accumulate;" d="m 68,960.36217 0,18.00003 -18,0 c -1.57075,10e-5 -2.99984,1.4292 -3,3 l 0,18 -18,0 c -1.57075,10e-5 -2.99984,1.4292 -3,3 l 0,18 -20,0 c -1.57075,10e-5 -2.99984,1.4292 -3,3 l 0,21 c 1.6e-4,1.5707 1.42925,2.9998 3,3 l 88,0 c 1.57075,-2e-4 2.99984,-1.4293 3,-3 l 0,-84.00003 c -1.6e-4,-1.57075 -1.42925,-2.99984 -3,-3 l -23,0 c -1.68556,0.0277 -2.96711,1.73567 -3,3 z m 6,3 17,0 0,78.00003 -82.0000004,0 0,-15 20.0000004,0 c 1.57075,-2e-4 2.99984,-1.4293 3,-3 l 0,-18 18,0 c 1.57075,-2e-4 2.99984,-1.4293 3,-3 l 0,-18 18,0 c 1.57075,-2e-4 2.99984,-1.4293 3,-3 z" fill="#000000" fill-opacity="1" stroke="none" marker="none" visibility="visible" display="inline" overflow="visible"/></g><text x="0" y="115" fill="#000000" font-size="5px" font-weight="bold" font-family="'Helvetica Neue', Helvetica, Arial-Unicode, Arial, Sans-serif">Created by Rockicon</text><text x="0" y="120" fill="#000000" font-size="5px" font-weight="bold" font-family="'Helvetica Neue', Helvetica, Arial-Unicode, Arial, Sans-serif">from the Noun Project</text></svg>