<svg xmlns="http://www.w3.org/2000/svg" data-name="Layer 1" viewBox="0 0 100 125" x="0px" y="0px"><title>Artboard 17</title><path d="M98,94.79,96.4,88.26c-.83-2.47-5.69-10.42-33.58-10.64V76a1.6,1.6,0,1,0-3.2,0v3.26c0,1-.33,9.56-9.62,9.56s-9.61-8.64-9.62-9.62V76a1.6,1.6,0,1,0-3.2,0v1.62C16.41,77.73,6,81,3.57,88.38L2,94.79a1.6,1.6,0,0,0,3.1.78l1.57-6.3c1.86-5.58,11.89-8.37,30.64-8.51C37.87,85.35,41,92,50,92s12.13-6.58,12.72-11.15c22,.17,29.6,5.35,30.6,8.34l1.61,6.41a1.59,1.59,0,0,0,1.55,1.21,1.31,1.31,0,0,0,.39,0A1.6,1.6,0,0,0,98,94.79ZM12.93,11.22l11.61,1.51a1.56,1.56,0,0,0-.18.71V29.87a5.9,5.9,0,0,0,.06.86,2,2,0,0,0-.06.34V33a4.81,4.81,0,0,0-3.21,4.53v6.41a4.82,4.82,0,0,0,3.61,4.66c.85,2.53,3.22,9.38,4.57,12.08C31.88,65.73,39.1,74.34,50,74.34s18.12-8.61,20.67-13.71c1.35-2.7,3.72-9.55,4.57-12.08a4.82,4.82,0,0,0,3.61-4.66V37.48A4.81,4.81,0,0,0,75.64,33V31.79h0v-6.4c0-.18,0-.36,0-.54a1.23,1.23,0,0,0,0-.19V13.44a1.56,1.56,0,0,0-.18-.71l9.8-1.28V17c-1,1.13-3.2,3.95-3.2,7a4.81,4.81,0,1,0,9.61,0c0-3.08-2.2-5.9-3.2-7V9.63a1.69,1.69,0,0,0-.12-.6c0-.07-.08-.12-.11-.18A2.4,2.4,0,0,0,88,8.54c-.06-.06-.13-.1-.19-.15a1.15,1.15,0,0,0-.29-.2,1.83,1.83,0,0,0-.25-.08A1.25,1.25,0,0,0,87.07,8L50.21,3.23a1.48,1.48,0,0,0-.42,0L12.93,8a1.6,1.6,0,0,0,0,3.18Zm73.93,8.92a7.44,7.44,0,0,1,1.61,3.91,1.61,1.61,0,0,1-3.21,0A7.5,7.5,0,0,1,86.86,20.14ZM50,6.43l24.47,3.2L50,12.82,25.53,9.63ZM61.22,35.88H54.81A4.81,4.81,0,0,0,50,40.69a4.81,4.81,0,0,0-4.81-4.81H38.78a4.8,4.8,0,0,0-4.57,3.38L30.13,36.2l-.05,0-2.52-1.88V31.07a1.37,1.37,0,0,0-.07-.34,5.87,5.87,0,0,0,.07-.86V27.08a62.82,62.82,0,0,0,22.44,4,62.82,62.82,0,0,0,22.44-4v4h0v3.2h0l-2.87,2.11a2.61,2.61,0,0,0-.31.27l-3.47,2.6A4.8,4.8,0,0,0,61.22,35.88Zm1.6,4.81v1.6a3.2,3.2,0,0,1-3.2,3.2H56.41a3.2,3.2,0,0,1-3.2-3.2v-1.6a1.6,1.6,0,0,1,1.6-1.61h6.41A1.61,1.61,0,0,1,62.82,40.69Zm-16,1.6a3.2,3.2,0,0,1-3.2,3.2H40.38a3.2,3.2,0,0,1-3.2-3.2v-1.6a1.61,1.61,0,0,1,1.6-1.61h6.41a1.6,1.6,0,0,1,1.6,1.61v1.6ZM72.44,13.44V23.62A59.54,59.54,0,0,1,50,27.86a59.54,59.54,0,0,1-22.44-4.24V13.44a1.52,1.52,0,0,0-.06-.32L49.79,16,50,16l.21,0,22.29-2.9A1.52,1.52,0,0,0,72.44,13.44Zm-47.38,23,3.7,2.77.06,0,5.24,3.92a6.4,6.4,0,0,0,6.32,5.55h3.21A6.42,6.42,0,0,0,50,42.29a6.42,6.42,0,0,0,6.41,6.41h3.21a6.4,6.4,0,0,0,6.32-5.55l5.86-4.39s0-.07.09-.1l2.73-2a2.28,2.28,0,0,0,.42-.4,1.59,1.59,0,0,1,.6,1.23v6.41a1.6,1.6,0,0,1-1.6,1.6,1.6,1.6,0,0,0-1.52,1.1c0,.09-3.19,9.54-4.72,12.61-.24.49-6.1,11.94-17.8,11.94S32.44,59.69,32.2,59.2c-1.53-3.07-4.69-12.52-4.72-12.61A1.6,1.6,0,0,0,26,45.49a1.6,1.6,0,0,1-1.6-1.6V37.48a1.56,1.56,0,0,1,.55-1.19A.93.93,0,0,0,25.06,36.42ZM50,63.12a8.52,8.52,0,0,0,5.94-2.07,1.59,1.59,0,0,0,0-2.24,1.62,1.62,0,0,0-2.26,0A5.59,5.59,0,0,1,50,59.92a5.53,5.53,0,0,1-3.69-1.15,1.6,1.6,0,0,0-2.25,2.28A8.52,8.52,0,0,0,50,63.12Z"/><text x="0" y="115" fill="#000000" font-size="5px" font-weight="bold" font-family="'Helvetica Neue', Helvetica, Arial-Unicode, Arial, Sans-serif">Created by M S Designs</text><text x="0" y="120" fill="#000000" font-size="5px" font-weight="bold" font-family="'Helvetica Neue', Helvetica, Arial-Unicode, Arial, Sans-serif">from the Noun Project</text></svg>