<svg xmlns="http://www.w3.org/2000/svg" data-name="Layer 1" viewBox="0 0 100 125" x="0px" y="0px"><title>Artboard 16</title><path d="M75.39,80.45c0-.06,0-.12-.07-.18a.34.34,0,0,1-.06-.06A1.75,1.75,0,0,0,75,80a1.43,1.43,0,0,0-.24-.19l-.08-.06-6.39-3.2a1.6,1.6,0,0,0-1.6.1L57.11,83a1.59,1.59,0,0,0-.71,1.33V90A10.53,10.53,0,0,1,50,92.36,10.71,10.71,0,0,1,43.6,90V84.36A1.58,1.58,0,0,0,42.89,83l-9.59-6.4a1.63,1.63,0,0,0-1.61-.1l-6.39,3.2s-.05,0-.07.06A1,1,0,0,0,25,80a1.15,1.15,0,0,0-.22.22l-.07.06a1.46,1.46,0,0,0-.07.19,1.94,1.94,0,0,0-.13.3c0,.11,0,.2,0,.3s0,.2,0,.3a1.5,1.5,0,0,0,.09.32,1.17,1.17,0,0,0,0,.2l.06.07a1.16,1.16,0,0,0,.2.25,2.39,2.39,0,0,0,.22.23l.07.06,9.59,6.4a1.6,1.6,0,0,0,1.78-2.66l-7.31-4.87,3.1-1.55,8.12,5.41v5.54a1.6,1.6,0,0,0,.46,1.13,13.22,13.22,0,0,0,18.26,0,1.61,1.61,0,0,0,.47-1.13V85.22l8.11-5.41,3.1,1.55-7.3,4.87a1.6,1.6,0,1,0,1.77,2.66l9.6-6.4a.34.34,0,0,1,.06-.06,1.31,1.31,0,0,0,.23-.24,1.43,1.43,0,0,0,.19-.24l.06-.07c0-.07,0-.14.06-.21a2.63,2.63,0,0,0,.08-.3,1.71,1.71,0,0,0,0-.32,1.45,1.45,0,0,0,0-.28A1.79,1.79,0,0,0,75.39,80.45Zm-56.16-.84C5.74,83,2.25,93,2.11,93.45a1.59,1.59,0,0,0,1,2,1.49,1.49,0,0,0,.5.08,1.6,1.6,0,0,0,1.52-1.09c0-.09,3.06-8.8,14.86-11.75a1.6,1.6,0,1,0-.77-3.1ZM53.69,58.84A5.65,5.65,0,0,1,50,60a5.6,5.6,0,0,1-3.68-1.14,1.6,1.6,0,0,0-2.25,2.27A8.51,8.51,0,0,0,50,63.18a8.46,8.46,0,0,0,5.93-2.07,1.59,1.59,0,0,0-2.24-2.27Zm44.2,34.61C97.75,93,94.26,83,80.77,79.61a1.6,1.6,0,1,0-.77,3.1c11.71,2.93,14.74,11.4,14.86,11.75a1.6,1.6,0,0,0,1.52,1.09,1.49,1.49,0,0,0,.5-.08A1.59,1.59,0,0,0,97.89,93.45ZM82.1,76.57a1.6,1.6,0,0,0,3-1.19A48.2,48.2,0,0,1,82,60V47.19c0-10.89-4.45-15.4-6.39-16.85V14.82A1.56,1.56,0,0,0,75.3,14l9.88-1.29v5.56c-1,1.12-3.2,3.94-3.2,7a4.8,4.8,0,0,0,9.6,0c0-3.07-2.2-5.89-3.2-7V10.84a1.45,1.45,0,0,0-.12-.59,1.08,1.08,0,0,0-.11-.18,1.6,1.6,0,0,0-.21-.32.85.85,0,0,0-.19-.14,1.31,1.31,0,0,0-.28-.2,1.83,1.83,0,0,0-.25-.08A2,2,0,0,0,87,9.26L50.21,4.46a1.48,1.48,0,0,0-.42,0L13,9.26a1.6,1.6,0,0,0-1.39,1.58A1.61,1.61,0,0,0,13,12.43L24.7,14a1.56,1.56,0,0,0-.29.87V30.34C22.47,31.79,18,36.3,18,47.19V60a48.2,48.2,0,0,1-3.09,15.4,1.6,1.6,0,1,0,3,1.19A50.55,50.55,0,0,0,21.22,60V47.19c0-6.49,1.69-10.25,3.19-12.33v2.73c0,6.87,5,20,6.57,23.11,1.94,3.89,10.46,13.68,19,13.68S67.08,64.59,69,60.7c1.53-3.06,6.57-16.24,6.57-23.11V34.87c1.51,2.07,3.2,5.84,3.2,12.32V60A50.66,50.66,0,0,0,82.1,76.57Zm6.28-51.34a1.6,1.6,0,1,1-3.2,0,7.51,7.51,0,0,1,1.6-3.9A7.51,7.51,0,0,1,88.38,25.23Zm-22.22,34c-1.43,2.87-9,11.91-16.16,11.91s-14.73-9-16.16-11.91C32.31,56.2,28,44.71,27.65,38.42l.58.44h0l5.85,4.39a6.37,6.37,0,0,0,6.3,5.53h3.2a6.41,6.41,0,0,0,6.4-6.4,6.41,6.41,0,0,0,6.4,6.4h3.2a6.37,6.37,0,0,0,6.3-5.53l5.85-4.39s.06-.08.1-.11l.5-.37C72,44.66,67.7,56.2,66.16,59.27ZM46.8,42.39a3.2,3.2,0,0,1-3.2,3.2H40.4a3.19,3.19,0,0,1-3.19-3.2v-1.6a1.6,1.6,0,0,1,1.6-1.6H45.2a1.6,1.6,0,0,1,1.6,1.6v1.6Zm6.4,0v-1.6a1.6,1.6,0,0,1,1.6-1.6h6.39a1.6,1.6,0,0,1,1.6,1.6v1.6a3.2,3.2,0,0,1-3.2,3.2H56.4A3.2,3.2,0,0,1,53.2,42.39ZM72.39,31.2v3.26a2.59,2.59,0,0,0-.29.14L69,36.89a2.26,2.26,0,0,0-.32.29l-2.93,2.19A4.78,4.78,0,0,0,61.19,36H54.8A4.8,4.8,0,0,0,50,40.79,4.8,4.8,0,0,0,45.2,36H38.81a4.78,4.78,0,0,0-4.56,3.37l-3-2.26a1.49,1.49,0,0,0-.14-.12L28,34.7a1.62,1.62,0,0,0-.37-.19V31.2h0V28.43a62.86,62.86,0,0,0,22.39,4,62.86,62.86,0,0,0,22.39-4v2.11c0,.15,0,.31,0,.46S72.39,31.13,72.39,31.2Zm0-16.38V25A59.42,59.42,0,0,1,50,29.21,59.42,59.42,0,0,1,27.61,25V14.82a1.65,1.65,0,0,0-.1-.5l22.28,2.91h.42l22.28-2.91A1.65,1.65,0,0,0,72.39,14.82ZM50,14,25.58,10.84,50,7.66l24.42,3.18Z"/><text x="0" y="115" fill="#000000" font-size="5px" font-weight="bold" font-family="'Helvetica Neue', Helvetica, Arial-Unicode, Arial, Sans-serif">Created by M S Designs</text><text x="0" y="120" fill="#000000" font-size="5px" font-weight="bold" font-family="'Helvetica Neue', Helvetica, Arial-Unicode, Arial, Sans-serif">from the Noun Project</text></svg>