<svg xmlns="http://www.w3.org/2000/svg" xmlns:xlink="http://www.w3.org/1999/xlink" version="1.1" x="0px" y="0px" viewBox="0 0 500 625" enable-background="new 0 0 500 500" xml:space="preserve"><g><g><g><path d="M245,302.2c14.3,7.5,28.7,15.1,43,22.6c8.2,4.3,16.2-2.8,14.7-11.3c-2.7-16-5.5-31.9-8.2-47.9c-0.9,3.2-1.7,6.5-2.6,9.7     c11.6-11.3,23.2-22.6,34.8-33.9c4.9-4.8,3.2-15.6-4.4-16.7c-16-2.3-32.1-4.7-48.1-7c2,1.5,4,3.1,6,4.6     c-7.2-14.5-14.3-29.1-21.5-43.6c-3.2-6.5-14-6.5-17.3,0c-7.2,14.5-14.3,29.1-21.5,43.6c2-1.5,4-3.1,6-4.6     c-16,2.3-32.1,4.7-48.1,7c-7.7,1.1-9.3,11.9-4.4,16.7c11.6,11.3,23.2,22.6,34.8,33.9c-0.9-3.2-1.7-6.5-2.6-9.7     c-2.7,16-5.5,31.9-8.2,47.9c-1.5,8.6,6.5,15.6,14.7,11.3c14.3-7.5,28.7-15.1,43-22.6c11.4-6,1.3-23.3-10.1-17.3     c-14.3,7.5-28.7,15.1-43,22.6c4.9,3.8,9.8,7.5,14.7,11.3c2.5-14.3,4.9-28.7,7.4-43c0.3-1.6,0.6-3.3,0.8-4.9     c0.8-5.2-1.2-8.4-4.5-11.6c-6-5.8-12-11.7-17.9-17.5c-5-4.8-9.9-9.7-14.9-14.5c-1.5,5.6-2.9,11.1-4.4,16.7     c14.3-2.1,28.6-4.2,42.9-6.2c1.7-0.2,3.6-0.3,5.2-0.8c4-1.1,5.7-4,7.3-7.3c3.7-7.4,7.3-14.8,11-22.3c3.1-6.2,6.1-12.4,9.2-18.7     c-5.8,0-11.5,0-17.3,0c6.4,12.9,12.8,25.9,19.2,38.8c0.8,1.6,1.4,3.3,2.3,4.8c2.2,3.6,5.2,4.5,8.9,5c8.2,1.2,16.4,2.4,24.6,3.6     c6.9,1,13.7,2,20.6,3c-1.5-5.6-2.9-11.1-4.4-16.7c-10.4,10.2-20.8,20.3-31.2,30.5c-1.2,1.2-2.5,2.3-3.6,3.5     c-3.4,3.8-2.9,7.9-2.1,12.4c1.4,8.2,2.8,16.5,4.2,24.7c1.2,6.8,2.3,13.7,3.5,20.5c4.9-3.8,9.8-7.5,14.7-11.3     c-14.3-7.5-28.7-15.1-43-22.6C243.7,279,233.5,296.2,245,302.2z"/></g></g><g><g><path d="M62.9,201.5c0-25.9,0-51.7,0-77.6c-3.3,3.3-6.7,6.7-10,10c13.1,0,26.1,0,39.2,0c31.4,0,62.7,0,94.1,0     c38,0,75.9,0,113.9,0c32.8,0,65.7,0,98.5,0c10.9,0,21.7,0,32.6,0c5.1,0,10.3,0.4,15.4,0c0.2,0,0.5,0,0.7,0     c-3.3-3.3-6.7-6.7-10-10c0,25.9,0,51.7,0,77.6c0,12.9,20,12.9,20,0c0-25.9,0-51.7,0-77.6c0-5.4-4.6-10-10-10     c-13.1,0-26.1,0-39.2,0c-31.4,0-62.7,0-94.1,0c-38,0-75.9,0-113.9,0c-32.8,0-65.7,0-98.5,0c-16,0-32-0.6-48,0c-0.2,0-0.5,0-0.7,0     c-5.4,0-10,4.6-10,10c0,25.9,0,51.7,0,77.6C42.9,214.4,62.9,214.4,62.9,201.5L62.9,201.5z"/></g></g><g><g><path d="M437.1,298.5c0,25.9,0,51.7,0,77.6c3.3-3.3,6.7-6.7,10-10c-13.1,0-26.1,0-39.2,0c-31.4,0-62.7,0-94.1,0     c-38,0-75.9,0-113.9,0c-32.8,0-65.7,0-98.5,0c-10.9,0-21.7,0-32.6,0c-5.1,0-10.3-0.4-15.4,0c-0.2,0-0.5,0-0.7,0     c3.3,3.3,6.7,6.7,10,10c0-25.9,0-51.7,0-77.6c0-12.9-20-12.9-20,0c0,25.9,0,51.7,0,77.6c0,5.4,4.6,10,10,10c13.1,0,26.1,0,39.2,0     c31.4,0,62.7,0,94.1,0c38,0,75.9,0,113.9,0c32.8,0,65.7,0,98.5,0c16,0,32,0.6,48,0c0.2,0,0.5,0,0.7,0c5.4,0,10-4.6,10-10     c0-25.9,0-51.7,0-77.6C457.1,285.6,437.1,285.6,437.1,298.5L437.1,298.5z"/></g></g><g><g><path d="M52.9,308.5c31.8-0.5,58.5-26.3,58.5-58.5c0-32.2-26.7-58-58.5-58.5c-12.9-0.2-12.9,19.8,0,20     c21,0.3,38.5,17.3,38.5,38.5c0,21.2-17.5,38.2-38.5,38.5C40,288.7,40,308.7,52.9,308.5L52.9,308.5z"/></g></g><g><g><path d="M447.1,288.5c-21.1,0-38.9-17.2-38.9-38.5c0-21.3,17.7-38.5,38.9-38.5c12.9,0,12.9-20,0-20c-32,0-58.9,26.4-58.9,58.5     s26.9,58.5,58.9,58.5C460,308.5,460,288.5,447.1,288.5L447.1,288.5z"/></g></g></g></svg>