<svg xmlns="http://www.w3.org/2000/svg" class="icon" viewBox="0 0 1024 1024" version="1.1" x="0px" y="0px"><path fill="#3a4357" d="M512 42.666667q95.658667 0 182.485333 37.162667t149.674667 100.010667 100.010667 149.674667 37.162667 182.485333-37.162667 182.485333-100.010667 149.674667-149.674667 100.010667-182.485333 37.162667-182.485333-37.162667-149.674667-100.010667-100.010667-149.674667-37.162667-182.485333 37.162667-182.485333 100.010667-149.674667 149.674667-100.010667 182.485333-37.162667zM512 128q-77.994667 0-149.162667 30.506667t-122.496 81.834667-81.834667 122.496-30.506667 149.162667 30.506667 149.162667 81.834667 122.496 122.496 81.834667 149.162667 30.506667 149.162667-30.506667 122.496-81.834667 81.834667-122.496 30.506667-149.162667-30.506667-149.162667-81.834667-122.496-122.496-81.834667-149.162667-30.506667zM512 213.333333q17.664 0 30.165333 12.501333t12.501333 30.165333l0 238.336 115.669333 115.328q12.330667 12.330667 12.330667 30.336t-12.330667 30.336-30.336 12.330667-30.336-12.330667l-128-128q-12.330667-12.330667-12.330667-30.336l0-256q0-17.664 12.501333-30.165333t30.165333-12.501333z"/></svg>